<ttFont>
    <TTGlyph name=".notdef" xMin="85" yMin="0" xMax="453" yMax="678">
      <contour>
        <pt x="156" y="546" on="1"/>
        <pt x="156" y="130" on="1"/>
        <pt x="156" y="98" on="0"/>
        <pt x="179" y="71" on="0"/>
        <pt x="210" y="71" on="1"/>
        <pt x="328" y="71" on="1"/>
        <pt x="359" y="71" on="0"/>
        <pt x="382" y="98" on="0"/>
        <pt x="382" y="130" on="1"/>
        <pt x="382" y="546" on="1"/>
        <pt x="382" y="578" on="0"/>
        <pt x="359" y="606" on="0"/>
        <pt x="328" y="606" on="1"/>
        <pt x="210" y="606" on="1"/>
        <pt x="179" y="606" on="0"/>
        <pt x="156" y="578" on="0"/>
      </contour>
      <contour>
        <pt x="85" y="0" on="1"/>
        <pt x="85" y="678" on="1"/>
        <pt x="453" y="678" on="1"/>
        <pt x="453" y="0" on="1"/>
      </contour>
    </TTGlyph>
    <TTGlyph name="A" xMin="24" yMin="-16" xMax="586" yMax="636">
      <contour>
        <pt x="346" y="636" on="1"/>
        <pt x="583" y="37" on="1"/>
        <pt x="586" y="28" on="0"/>
        <pt x="586" y="18" on="1"/>
        <pt x="586" y="0" on="0"/>
        <pt x="561" y="-16" on="0"/>
        <pt x="550" y="-16" on="1"/>
        <pt x="524" y="-16" on="0"/>
        <pt x="513" y="12" on="1"/>
        <pt x="444" y="189" on="1"/>
        <pt x="166" y="189" on="1"/>
        <pt x="97" y="12" on="1"/>
        <pt x="85" y="-16" on="0"/>
        <pt x="60" y="-16" on="1"/>
        <pt x="49" y="-16" on="0"/>
        <pt x="24" y="0" on="0"/>
        <pt x="24" y="18" on="1"/>
        <pt x="24" y="28" on="0"/>
        <pt x="27" y="37" on="1"/>
        <pt x="264" y="636" on="1"/>
      </contour>
      <contour>
        <pt x="195" y="261" on="1"/>
        <pt x="415" y="261" on="1"/>
        <pt x="304" y="532" on="1"/>
      </contour>
    </TTGlyph>
    <TTGlyph name="A.sc" xMin="26" yMin="-22" xMax="558" yMax="552">
      <contour>
        <pt x="29" y="28" on="1"/>
        <pt x="260" y="552" on="1"/>
        <pt x="324" y="552" on="1"/>
        <pt x="555" y="28" on="1"/>
        <pt x="558" y="21" on="0"/>
        <pt x="558" y="10" on="1"/>
        <pt x="558" y="-7" on="0"/>
        <pt x="534" y="-22" on="0"/>
        <pt x="522" y="-22" on="1"/>
        <pt x="493" y="-22" on="0"/>
        <pt x="482" y="4" on="1"/>
        <pt x="416" y="163" on="1"/>
        <pt x="168" y="163" on="1"/>
        <pt x="102" y="4" on="1"/>
        <pt x="90" y="-22" on="0"/>
        <pt x="62" y="-22" on="1"/>
        <pt x="50" y="-22" on="0"/>
        <pt x="26" y="-7" on="0"/>
        <pt x="26" y="10" on="1"/>
        <pt x="26" y="21" on="0"/>
      </contour>
      <contour>
        <pt x="201" y="235" on="1"/>
        <pt x="383" y="235" on="1"/>
        <pt x="291" y="443" on="1"/>
      </contour>
    </TTGlyph>
    <TTGlyph name="AE" xMin="10" yMin="-16" xMax="857" yMax="641">
      <contour>
        <pt x="482" y="317" on="1"/>
        <pt x="482" y="72" on="1"/>
        <pt x="813" y="72" on="1"/>
        <pt x="857" y="72" on="0"/>
        <pt x="857" y="34" on="1"/>
        <pt x="857" y="0" on="0"/>
        <pt x="813" y="0" on="1"/>
        <pt x="442" y="0" on="1"/>
        <pt x="408" y="0" on="0"/>
        <pt x="408" y="44" on="1"/>
        <pt x="408" y="184" on="1"/>
        <pt x="201" y="184" on="1"/>
        <pt x="81" y="11" on="1"/>
        <pt x="63" y="-16" on="0"/>
        <pt x="40" y="-16" on="1"/>
        <pt x="31" y="-16" on="0"/>
        <pt x="10" y="-2" on="0"/>
        <pt x="10" y="12" on="1"/>
        <pt x="10" y="25" on="0"/>
        <pt x="20" y="39" on="1"/>
        <pt x="414" y="627" on="1"/>
        <pt x="424" y="641" on="0"/>
        <pt x="442" y="641" on="1"/>
        <pt x="813" y="641" on="1"/>
        <pt x="857" y="641" on="0"/>
        <pt x="857" y="603" on="1"/>
        <pt x="857" y="569" on="0"/>
        <pt x="813" y="569" on="1"/>
        <pt x="482" y="569" on="1"/>
        <pt x="482" y="389" on="1"/>
        <pt x="692" y="389" on="1"/>
        <pt x="740" y="389" on="0"/>
        <pt x="740" y="351" on="1"/>
        <pt x="740" y="317" on="0"/>
        <pt x="692" y="317" on="1"/>
      </contour>
      <contour>
        <pt x="408" y="494" on="1"/>
        <pt x="249" y="256" on="1"/>
        <pt x="408" y="256" on="1"/>
      </contour>
    </TTGlyph>
    <TTGlyph name="Aacute" xMin="24" yMin="-16" xMax="586" yMax="819">
      <component glyphName="acutecomb" x="636" y="178" flags="0x1004"/>
      <component glyphName="A" x="0" y="0" flags="0x1204"/>
    </TTGlyph>
    <TTGlyph name="Abreve" xMin="24" yMin="-16" xMax="586" yMax="819">
      <contour>
        <pt x="435" y="819" on="1"/>
        <pt x="435" y="753" on="0"/>
        <pt x="350" y="693" on="0"/>
        <pt x="305" y="693" on="1"/>
        <pt x="285" y="693" on="0"/>
        <pt x="244" y="705" on="0"/>
        <pt x="202" y="732" on="0"/>
        <pt x="175" y="784" on="0"/>
        <pt x="175" y="819" on="1"/>
        <pt x="248" y="819" on="1"/>
        <pt x="248" y="767" on="0"/>
        <pt x="362" y="767" on="0"/>
        <pt x="362" y="819" on="1"/>
      </contour>
      <contour>
        <pt x="346" y="636" on="1"/>
        <pt x="583" y="37" on="1"/>
        <pt x="586" y="28" on="0"/>
        <pt x="586" y="18" on="1"/>
        <pt x="586" y="0" on="0"/>
        <pt x="561" y="-16" on="0"/>
        <pt x="550" y="-16" on="1"/>
        <pt x="524" y="-16" on="0"/>
        <pt x="513" y="12" on="1"/>
        <pt x="444" y="189" on="1"/>
        <pt x="166" y="189" on="1"/>
        <pt x="97" y="12" on="1"/>
        <pt x="85" y="-16" on="0"/>
        <pt x="60" y="-16" on="1"/>
        <pt x="49" y="-16" on="0"/>
        <pt x="24" y="0" on="0"/>
        <pt x="24" y="18" on="1"/>
        <pt x="24" y="28" on="0"/>
        <pt x="27" y="37" on="1"/>
        <pt x="264" y="636" on="1"/>
      </contour>
      <contour>
        <pt x="195" y="261" on="1"/>
        <pt x="415" y="261" on="1"/>
        <pt x="304" y="532" on="1"/>
      </contour>
    </TTGlyph>
    <TTGlyph name="Acircumflex" xMin="24" yMin="-16" xMax="586" yMax="819">
      <component glyphName="uni0302" x="607" y="141" flags="0x1004"/>
      <component glyphName="A" x="0" y="0" flags="0x1204"/>
    </TTGlyph>
    <TTGlyph name="Acyrillic" xMin="24" yMin="-16" xMax="586" yMax="636">
      <component glyphName="A" x="0" y="0" flags="0x1004"/>
    </TTGlyph>
    <TTGlyph name="Adieresis" xMin="24" yMin="-16" xMax="586" yMax="808">
      <component glyphName="dieresis" x="109" y="127" flags="0x1004"/>
      <component glyphName="A" x="0" y="0" flags="0x1204"/>
    </TTGlyph>
    <TTGlyph name="Agrave" xMin="24" yMin="-16" xMax="586" yMax="819">
      <component glyphName="gravecomb" x="572" y="178" flags="0x1004"/>
      <component glyphName="A" x="0" y="0" flags="0x1204"/>
    </TTGlyph>
    <TTGlyph name="Alpha" xMin="24" yMin="-16" xMax="586" yMax="636">
      <component glyphName="A" x="0" y="0" flags="0x1004"/>
    </TTGlyph>
    <TTGlyph name="Alphatonos" xMin="30" yMin="-16" xMax="592" yMax="793">
      <component glyphName="tonos" x="36" y="102" flags="0x1004"/>
      <component glyphName="Alpha" x="6" y="0" flags="0x1004"/>
    </TTGlyph>
    <TTGlyph name="Amacron" xMin="24" yMin="-16" xMax="586" yMax="780">
      <contour>
        <pt x="426" y="780" on="1"/>
        <pt x="470" y="780" on="0"/>
        <pt x="470" y="742" on="1"/>
        <pt x="470" y="726" on="0"/>
        <pt x="445" y="707" on="0"/>
        <pt x="426" y="707" on="1"/>
        <pt x="181" y="707" on="1"/>
        <pt x="140" y="707" on="0"/>
        <pt x="140" y="744" on="1"/>
        <pt x="140" y="757" on="0"/>
        <pt x="159" y="780" on="0"/>
        <pt x="181" y="780" on="1"/>
      </contour>
      <contour>
        <pt x="346" y="636" on="1"/>
        <pt x="583" y="37" on="1"/>
        <pt x="586" y="28" on="0"/>
        <pt x="586" y="18" on="1"/>
        <pt x="586" y="0" on="0"/>
        <pt x="561" y="-16" on="0"/>
        <pt x="550" y="-16" on="1"/>
        <pt x="524" y="-16" on="0"/>
        <pt x="513" y="12" on="1"/>
        <pt x="444" y="189" on="1"/>
        <pt x="166" y="189" on="1"/>
        <pt x="97" y="12" on="1"/>
        <pt x="85" y="-16" on="0"/>
        <pt x="60" y="-16" on="1"/>
        <pt x="49" y="-16" on="0"/>
        <pt x="24" y="0" on="0"/>
        <pt x="24" y="18" on="1"/>
        <pt x="24" y="28" on="0"/>
        <pt x="27" y="37" on="1"/>
        <pt x="264" y="636" on="1"/>
      </contour>
      <contour>
        <pt x="195" y="261" on="1"/>
        <pt x="415" y="261" on="1"/>
        <pt x="304" y="532" on="1"/>
      </contour>
    </TTGlyph>
    <TTGlyph name="Aogonek" xMin="24" yMin="-205" xMax="627" yMax="646">
      <contour>
        <pt x="195" y="261" on="1"/>
        <pt x="415" y="261" on="1"/>
        <pt x="304" y="532" on="1"/>
      </contour>
      <contour>
        <pt x="504" y="-91" on="1"/>
        <pt x="504" y="-135" on="0"/>
        <pt x="536" y="-135" on="1"/>
        <pt x="550" y="-135" on="0"/>
        <pt x="595" y="-118" on="0"/>
        <pt x="602" y="-118" on="1"/>
        <pt x="627" y="-118" on="0"/>
        <pt x="627" y="-145" on="1"/>
        <pt x="627" y="-167" on="0"/>
        <pt x="592" y="-196" on="0"/>
        <pt x="554" y="-205" on="0"/>
        <pt x="538" y="-205" on="1"/>
        <pt x="492" y="-205" on="0"/>
        <pt x="432" y="-142" on="0"/>
        <pt x="432" y="-91" on="1"/>
        <pt x="432" y="-46" on="0"/>
        <pt x="505" y="33" on="1"/>
        <pt x="444" y="189" on="1"/>
        <pt x="166" y="189" on="1"/>
        <pt x="97" y="12" on="1"/>
        <pt x="85" y="-16" on="0"/>
        <pt x="60" y="-16" on="1"/>
        <pt x="49" y="-16" on="0"/>
        <pt x="24" y="0" on="0"/>
        <pt x="24" y="18" on="1"/>
        <pt x="24" y="28" on="0"/>
        <pt x="27" y="37" on="1"/>
        <pt x="268" y="646" on="1"/>
        <pt x="342" y="646" on="1"/>
        <pt x="583" y="37" on="1"/>
        <pt x="586" y="28" on="0"/>
        <pt x="586" y="18" on="1"/>
        <pt x="586" y="2" on="0"/>
        <pt x="566" y="-15" on="0"/>
        <pt x="554" y="-16" on="1"/>
        <pt x="536" y="-31" on="0"/>
        <pt x="512" y="-67" on="0"/>
        <pt x="504" y="-87" on="0"/>
      </contour>
    </TTGlyph>
    <TTGlyph name="Aring" xMin="24" yMin="-16" xMax="586" yMax="819">
      <component glyphName="uni030A" x="612" y="150" flags="0x1004"/>
      <component glyphName="A" x="0" y="0" flags="0x1204"/>
    </TTGlyph>
    <TTGlyph name="Atilde" xMin="24" yMin="-16" xMax="586" yMax="808">
      <component glyphName="tildecomb" x="582" y="212" flags="0x1004"/>
      <component glyphName="A" x="0" y="0" flags="0x1204"/>
    </TTGlyph>
    <TTGlyph name="B" xMin="84" yMin="0" xMax="588" yMax="636">
      <contour>
        <pt x="354" y="312" on="1"/>
        <pt x="156" y="312" on="1"/>
        <pt x="156" y="72" on="1"/>
        <pt x="336" y="72" on="1"/>
        <pt x="446" y="72" on="0"/>
        <pt x="516" y="111" on="0"/>
        <pt x="516" y="184" on="1"/>
        <pt x="516" y="200" on="1"/>
        <pt x="516" y="273" on="0"/>
        <pt x="451" y="312" on="0"/>
      </contour>
      <contour>
        <pt x="84" y="44" on="1"/>
        <pt x="84" y="592" on="1"/>
        <pt x="84" y="636" on="0"/>
        <pt x="118" y="636" on="1"/>
        <pt x="306" y="636" on="1"/>
        <pt x="428" y="636" on="0"/>
        <pt x="546" y="567" on="0"/>
        <pt x="546" y="475" on="1"/>
        <pt x="546" y="403" on="0"/>
        <pt x="506" y="366" on="1"/>
        <pt x="588" y="325" on="0"/>
        <pt x="588" y="203" on="1"/>
        <pt x="588" y="184" on="1"/>
        <pt x="588" y="75" on="0"/>
        <pt x="470" y="0" on="0"/>
        <pt x="336" y="0" on="1"/>
        <pt x="118" y="0" on="1"/>
        <pt x="84" y="0" on="0"/>
      </contour>
      <contour>
        <pt x="306" y="384" on="1"/>
        <pt x="403" y="384" on="0"/>
        <pt x="474" y="418" on="0"/>
        <pt x="474" y="472" on="1"/>
        <pt x="474" y="525" on="0"/>
        <pt x="403" y="559" on="0"/>
        <pt x="306" y="559" on="1"/>
        <pt x="156" y="559" on="1"/>
        <pt x="156" y="384" on="1"/>
      </contour>
    </TTGlyph>
    <TTGlyph name="Becyrillic" xMin="85" yMin="-7" xMax="547" yMax="636">
      <contour>
        <pt x="469" y="636" on="1"/>
        <pt x="514" y="636" on="0"/>
        <pt x="514" y="564" on="0"/>
        <pt x="469" y="564" on="1"/>
        <pt x="157" y="564" on="1"/>
        <pt x="157" y="476" on="1"/>
        <pt x="310" y="476" on="1"/>
        <pt x="417" y="476" on="0"/>
        <pt x="547" y="333" on="0"/>
        <pt x="547" y="135" on="0"/>
        <pt x="417" y="-7" on="0"/>
        <pt x="310" y="-7" on="1"/>
        <pt x="119" y="-7" on="1"/>
        <pt x="85" y="-7" on="0"/>
        <pt x="85" y="36" on="1"/>
        <pt x="85" y="636" on="1"/>
      </contour>
      <contour>
        <pt x="310" y="404" on="1"/>
        <pt x="157" y="404" on="1"/>
        <pt x="157" y="65" on="1"/>
        <pt x="310" y="65" on="1"/>
        <pt x="392" y="65" on="0"/>
        <pt x="475" y="165" on="0"/>
        <pt x="475" y="303" on="0"/>
        <pt x="391" y="404" on="0"/>
      </contour>
    </TTGlyph>
    <TTGlyph name="Beta" xMin="84" yMin="0" xMax="588" yMax="636">
      <component glyphName="B" x="0" y="0" flags="0x1004"/>
    </TTGlyph>
    <TTGlyph name="C" xMin="71" yMin="0" xMax="575" yMax="636">
      <contour>
        <pt x="465" y="0" on="1"/>
        <pt x="324" y="0" on="1"/>
        <pt x="189" y="0" on="0"/>
        <pt x="71" y="75" on="0"/>
        <pt x="71" y="184" on="1"/>
        <pt x="71" y="452" on="1"/>
        <pt x="71" y="561" on="0"/>
        <pt x="185" y="636" on="0"/>
        <pt x="306" y="636" on="1"/>
        <pt x="465" y="636" on="1"/>
        <pt x="530" y="636" on="0"/>
        <pt x="575" y="569" on="0"/>
        <pt x="575" y="514" on="1"/>
        <pt x="575" y="469" on="0"/>
        <pt x="539" y="469" on="1"/>
        <pt x="525" y="469" on="0"/>
        <pt x="503" y="489" on="0"/>
        <pt x="503" y="512" on="1"/>
        <pt x="503" y="542" on="0"/>
        <pt x="485" y="564" on="0"/>
        <pt x="458" y="564" on="1"/>
        <pt x="306" y="564" on="1"/>
        <pt x="209" y="564" on="0"/>
        <pt x="143" y="524" on="0"/>
        <pt x="143" y="450" on="1"/>
        <pt x="143" y="186" on="1"/>
        <pt x="143" y="111" on="0"/>
        <pt x="213" y="72" on="0"/>
        <pt x="324" y="72" on="1"/>
        <pt x="458" y="72" on="1"/>
        <pt x="485" y="72" on="0"/>
        <pt x="503" y="94" on="0"/>
        <pt x="503" y="124" on="1"/>
        <pt x="503" y="147" on="0"/>
        <pt x="525" y="167" on="0"/>
        <pt x="539" y="167" on="1"/>
        <pt x="575" y="167" on="0"/>
        <pt x="575" y="121" on="1"/>
        <pt x="575" y="66" on="0"/>
        <pt x="530" y="0" on="0"/>
      </contour>
    </TTGlyph>
    <TTGlyph name="Cacute" xMin="71" yMin="0" xMax="575" yMax="819">
      <contour>
        <pt x="465" y="0" on="1"/>
        <pt x="324" y="0" on="1"/>
        <pt x="189" y="0" on="0"/>
        <pt x="71" y="75" on="0"/>
        <pt x="71" y="184" on="1"/>
        <pt x="71" y="452" on="1"/>
        <pt x="71" y="561" on="0"/>
        <pt x="185" y="636" on="0"/>
        <pt x="306" y="636" on="1"/>
        <pt x="465" y="636" on="1"/>
        <pt x="530" y="636" on="0"/>
        <pt x="575" y="569" on="0"/>
        <pt x="575" y="514" on="1"/>
        <pt x="575" y="469" on="0"/>
        <pt x="539" y="469" on="1"/>
        <pt x="525" y="469" on="0"/>
        <pt x="503" y="489" on="0"/>
        <pt x="503" y="512" on="1"/>
        <pt x="503" y="542" on="0"/>
        <pt x="485" y="564" on="0"/>
        <pt x="458" y="564" on="1"/>
        <pt x="306" y="564" on="1"/>
        <pt x="209" y="564" on="0"/>
        <pt x="143" y="524" on="0"/>
        <pt x="143" y="450" on="1"/>
        <pt x="143" y="186" on="1"/>
        <pt x="143" y="111" on="0"/>
        <pt x="213" y="72" on="0"/>
        <pt x="324" y="72" on="1"/>
        <pt x="458" y="72" on="1"/>
        <pt x="485" y="72" on="0"/>
        <pt x="503" y="94" on="0"/>
        <pt x="503" y="124" on="1"/>
        <pt x="503" y="147" on="0"/>
        <pt x="525" y="167" on="0"/>
        <pt x="539" y="167" on="1"/>
        <pt x="575" y="167" on="0"/>
        <pt x="575" y="121" on="1"/>
        <pt x="575" y="66" on="0"/>
        <pt x="530" y="0" on="0"/>
      </contour>
      <contour>
        <pt x="377" y="819" on="1"/>
        <pt x="390" y="819" on="0"/>
        <pt x="413" y="797" on="0"/>
        <pt x="413" y="784" on="1"/>
        <pt x="413" y="770" on="0"/>
        <pt x="398" y="753" on="1"/>
        <pt x="329" y="685" on="1"/>
        <pt x="314" y="668" on="0"/>
        <pt x="296" y="668" on="1"/>
        <pt x="281" y="668" on="0"/>
        <pt x="261" y="690" on="0"/>
        <pt x="261" y="702" on="1"/>
        <pt x="261" y="717" on="0"/>
        <pt x="275" y="733" on="1"/>
        <pt x="345" y="803" on="1"/>
        <pt x="362" y="819" on="0"/>
      </contour>
    </TTGlyph>
    <TTGlyph name="Ccaron" xMin="71" yMin="0" xMax="575" yMax="819">
      <contour>
        <pt x="465" y="0" on="1"/>
        <pt x="324" y="0" on="1"/>
        <pt x="189" y="0" on="0"/>
        <pt x="71" y="75" on="0"/>
        <pt x="71" y="184" on="1"/>
        <pt x="71" y="452" on="1"/>
        <pt x="71" y="561" on="0"/>
        <pt x="185" y="636" on="0"/>
        <pt x="306" y="636" on="1"/>
        <pt x="465" y="636" on="1"/>
        <pt x="530" y="636" on="0"/>
        <pt x="575" y="569" on="0"/>
        <pt x="575" y="514" on="1"/>
        <pt x="575" y="469" on="0"/>
        <pt x="539" y="469" on="1"/>
        <pt x="525" y="469" on="0"/>
        <pt x="503" y="489" on="0"/>
        <pt x="503" y="512" on="1"/>
        <pt x="503" y="542" on="0"/>
        <pt x="485" y="564" on="0"/>
        <pt x="458" y="564" on="1"/>
        <pt x="306" y="564" on="1"/>
        <pt x="209" y="564" on="0"/>
        <pt x="143" y="524" on="0"/>
        <pt x="143" y="450" on="1"/>
        <pt x="143" y="186" on="1"/>
        <pt x="143" y="111" on="0"/>
        <pt x="213" y="72" on="0"/>
        <pt x="324" y="72" on="1"/>
        <pt x="458" y="72" on="1"/>
        <pt x="485" y="72" on="0"/>
        <pt x="503" y="94" on="0"/>
        <pt x="503" y="124" on="1"/>
        <pt x="503" y="147" on="0"/>
        <pt x="525" y="167" on="0"/>
        <pt x="539" y="167" on="1"/>
        <pt x="575" y="167" on="0"/>
        <pt x="575" y="121" on="1"/>
        <pt x="575" y="66" on="0"/>
        <pt x="530" y="0" on="0"/>
      </contour>
      <contour>
        <pt x="353" y="655" on="1"/>
        <pt x="289" y="655" on="1"/>
        <pt x="181" y="768" on="1"/>
        <pt x="172" y="777" on="0"/>
        <pt x="172" y="789" on="1"/>
        <pt x="172" y="799" on="0"/>
        <pt x="188" y="819" on="0"/>
        <pt x="205" y="819" on="1"/>
        <pt x="221" y="819" on="0"/>
        <pt x="243" y="800" on="1"/>
        <pt x="321" y="735" on="1"/>
        <pt x="399" y="800" on="1"/>
        <pt x="421" y="819" on="0"/>
        <pt x="437" y="819" on="1"/>
        <pt x="454" y="819" on="0"/>
        <pt x="470" y="799" on="0"/>
        <pt x="470" y="789" on="1"/>
        <pt x="470" y="777" on="0"/>
        <pt x="461" y="768" on="1"/>
      </contour>
    </TTGlyph>
    <TTGlyph name="Ccedilla" xMin="71" yMin="-190" xMax="575" yMax="636">
      <contour>
        <pt x="297" y="0" on="1"/>
        <pt x="178" y="2" on="0"/>
        <pt x="71" y="80" on="0"/>
        <pt x="71" y="184" on="1"/>
        <pt x="71" y="452" on="1"/>
        <pt x="71" y="561" on="0"/>
        <pt x="185" y="636" on="0"/>
        <pt x="306" y="636" on="1"/>
        <pt x="465" y="636" on="1"/>
        <pt x="530" y="636" on="0"/>
        <pt x="575" y="569" on="0"/>
        <pt x="575" y="514" on="1"/>
        <pt x="575" y="469" on="0"/>
        <pt x="539" y="469" on="1"/>
        <pt x="525" y="469" on="0"/>
        <pt x="503" y="489" on="0"/>
        <pt x="503" y="512" on="1"/>
        <pt x="503" y="542" on="0"/>
        <pt x="485" y="564" on="0"/>
        <pt x="458" y="564" on="1"/>
        <pt x="306" y="564" on="1"/>
        <pt x="209" y="564" on="0"/>
        <pt x="143" y="524" on="0"/>
        <pt x="143" y="450" on="1"/>
        <pt x="143" y="186" on="1"/>
        <pt x="143" y="111" on="0"/>
        <pt x="213" y="72" on="0"/>
        <pt x="324" y="72" on="1"/>
        <pt x="458" y="72" on="1"/>
        <pt x="485" y="72" on="0"/>
        <pt x="503" y="94" on="0"/>
        <pt x="503" y="124" on="1"/>
        <pt x="503" y="147" on="0"/>
        <pt x="525" y="167" on="0"/>
        <pt x="539" y="167" on="1"/>
        <pt x="575" y="167" on="0"/>
        <pt x="575" y="121" on="1"/>
        <pt x="575" y="66" on="0"/>
        <pt x="530" y="0" on="0"/>
        <pt x="465" y="0" on="1"/>
        <pt x="369" y="0" on="1"/>
        <pt x="371" y="-13" on="0"/>
        <pt x="406" y="-37" on="0"/>
        <pt x="438" y="-72" on="0"/>
        <pt x="438" y="-99" on="1"/>
        <pt x="438" y="-142" on="0"/>
        <pt x="374" y="-190" on="0"/>
        <pt x="332" y="-190" on="1"/>
        <pt x="315" y="-190" on="0"/>
        <pt x="278" y="-181" on="0"/>
        <pt x="243" y="-152" on="0"/>
        <pt x="243" y="-130" on="1"/>
        <pt x="243" y="-116" on="0"/>
        <pt x="259" y="-102" on="0"/>
        <pt x="268" y="-102" on="1"/>
        <pt x="281" y="-102" on="0"/>
        <pt x="325" y="-123" on="0"/>
        <pt x="334" y="-123" on="1"/>
        <pt x="346" y="-123" on="0"/>
        <pt x="360" y="-119" on="0"/>
        <pt x="365" y="-108" on="0"/>
        <pt x="366" y="-104" on="0"/>
        <pt x="366" y="-98" on="1"/>
        <pt x="366" y="-94" on="0"/>
        <pt x="333" y="-73" on="0"/>
        <pt x="298" y="-29" on="0"/>
      </contour>
    </TTGlyph>
    <TTGlyph name="Ccircumflex" xMin="71" yMin="0" xMax="575" yMax="821">
      <contour>
        <pt x="176" y="705" on="1"/>
        <pt x="285" y="821" on="1"/>
        <pt x="352" y="821" on="1"/>
        <pt x="463" y="705" on="1"/>
        <pt x="471" y="695" on="0"/>
        <pt x="471" y="681" on="1"/>
        <pt x="471" y="653" on="0"/>
        <pt x="438" y="653" on="1"/>
        <pt x="431" y="653" on="0"/>
        <pt x="419" y="657" on="0"/>
        <pt x="414" y="661" on="0"/>
        <pt x="408" y="666" on="1"/>
        <pt x="403" y="671" on="1"/>
        <pt x="319" y="740" on="1"/>
        <pt x="236" y="671" on="1"/>
        <pt x="234" y="670" on="0"/>
        <pt x="226" y="662" on="0"/>
        <pt x="220" y="657" on="0"/>
        <pt x="208" y="653" on="0"/>
        <pt x="201" y="653" on="1"/>
        <pt x="168" y="653" on="0"/>
        <pt x="168" y="681" on="1"/>
        <pt x="168" y="695" on="0"/>
      </contour>
      <contour>
        <pt x="465" y="0" on="1"/>
        <pt x="324" y="0" on="1"/>
        <pt x="189" y="0" on="0"/>
        <pt x="71" y="75" on="0"/>
        <pt x="71" y="184" on="1"/>
        <pt x="71" y="452" on="1"/>
        <pt x="71" y="561" on="0"/>
        <pt x="185" y="636" on="0"/>
        <pt x="306" y="636" on="1"/>
        <pt x="465" y="636" on="1"/>
        <pt x="530" y="636" on="0"/>
        <pt x="575" y="569" on="0"/>
        <pt x="575" y="514" on="1"/>
        <pt x="575" y="469" on="0"/>
        <pt x="539" y="469" on="1"/>
        <pt x="525" y="469" on="0"/>
        <pt x="503" y="489" on="0"/>
        <pt x="503" y="512" on="1"/>
        <pt x="503" y="542" on="0"/>
        <pt x="485" y="564" on="0"/>
        <pt x="458" y="564" on="1"/>
        <pt x="306" y="564" on="1"/>
        <pt x="209" y="564" on="0"/>
        <pt x="143" y="524" on="0"/>
        <pt x="143" y="450" on="1"/>
        <pt x="143" y="186" on="1"/>
        <pt x="143" y="111" on="0"/>
        <pt x="213" y="72" on="0"/>
        <pt x="324" y="72" on="1"/>
        <pt x="458" y="72" on="1"/>
        <pt x="485" y="72" on="0"/>
        <pt x="503" y="94" on="0"/>
        <pt x="503" y="124" on="1"/>
        <pt x="503" y="147" on="0"/>
        <pt x="525" y="167" on="0"/>
        <pt x="539" y="167" on="1"/>
        <pt x="575" y="167" on="0"/>
        <pt x="575" y="121" on="1"/>
        <pt x="575" y="66" on="0"/>
        <pt x="530" y="0" on="0"/>
      </contour>
    </TTGlyph>
    <TTGlyph name="Cdotaccent" xMin="71" yMin="0" xMax="575" yMax="793">
      <contour>
        <pt x="465" y="0" on="1"/>
        <pt x="324" y="0" on="1"/>
        <pt x="189" y="0" on="0"/>
        <pt x="71" y="75" on="0"/>
        <pt x="71" y="184" on="1"/>
        <pt x="71" y="452" on="1"/>
        <pt x="71" y="561" on="0"/>
        <pt x="185" y="636" on="0"/>
        <pt x="306" y="636" on="1"/>
        <pt x="465" y="636" on="1"/>
        <pt x="530" y="636" on="0"/>
        <pt x="575" y="569" on="0"/>
        <pt x="575" y="514" on="1"/>
        <pt x="575" y="469" on="0"/>
        <pt x="539" y="469" on="1"/>
        <pt x="525" y="469" on="0"/>
        <pt x="503" y="489" on="0"/>
        <pt x="503" y="512" on="1"/>
        <pt x="503" y="542" on="0"/>
        <pt x="485" y="564" on="0"/>
        <pt x="458" y="564" on="1"/>
        <pt x="306" y="564" on="1"/>
        <pt x="209" y="564" on="0"/>
        <pt x="143" y="524" on="0"/>
        <pt x="143" y="450" on="1"/>
        <pt x="143" y="186" on="1"/>
        <pt x="143" y="111" on="0"/>
        <pt x="213" y="72" on="0"/>
        <pt x="324" y="72" on="1"/>
        <pt x="458" y="72" on="1"/>
        <pt x="485" y="72" on="0"/>
        <pt x="503" y="94" on="0"/>
        <pt x="503" y="124" on="1"/>
        <pt x="503" y="147" on="0"/>
        <pt x="525" y="167" on="0"/>
        <pt x="539" y="167" on="1"/>
        <pt x="575" y="167" on="0"/>
        <pt x="575" y="121" on="1"/>
        <pt x="575" y="66" on="0"/>
        <pt x="530" y="0" on="0"/>
      </contour>
      <contour>
        <pt x="324" y="691" on="1"/>
        <pt x="302" y="691" on="0"/>
        <pt x="263" y="720" on="0"/>
        <pt x="263" y="764" on="0"/>
        <pt x="304" y="793" on="0"/>
        <pt x="344" y="793" on="0"/>
        <pt x="385" y="764" on="0"/>
        <pt x="385" y="720" on="0"/>
        <pt x="344" y="691" on="0"/>
      </contour>
    </TTGlyph>
    <TTGlyph name="Checyrillic" xMin="57" yMin="-7" xMax="561" yMax="643">
      <contour>
        <pt x="326" y="232" on="1"/>
        <pt x="489" y="232" on="0"/>
        <pt x="489" y="398" on="1"/>
        <pt x="489" y="599" on="1"/>
        <pt x="489" y="643" on="0"/>
        <pt x="561" y="643" on="0"/>
        <pt x="561" y="601" on="1"/>
        <pt x="561" y="36" on="1"/>
        <pt x="561" y="-7" on="0"/>
        <pt x="527" y="-7" on="1"/>
        <pt x="489" y="-7" on="0"/>
        <pt x="489" y="36" on="1"/>
        <pt x="489" y="210" on="1"/>
        <pt x="427" y="160" on="0"/>
        <pt x="326" y="160" on="1"/>
        <pt x="291" y="160" on="1"/>
        <pt x="170" y="160" on="0"/>
        <pt x="57" y="236" on="0"/>
        <pt x="57" y="344" on="1"/>
        <pt x="57" y="598" on="1"/>
        <pt x="57" y="643" on="0"/>
        <pt x="92" y="643" on="1"/>
        <pt x="129" y="643" on="0"/>
        <pt x="129" y="599" on="1"/>
        <pt x="129" y="346" on="1"/>
        <pt x="129" y="272" on="0"/>
        <pt x="194" y="232" on="0"/>
        <pt x="291" y="232" on="1"/>
      </contour>
    </TTGlyph>
    <TTGlyph name="Chi" xMin="39" yMin="-7" xMax="566" yMax="643">
      <component glyphName="X" x="0" y="0" flags="0x1004"/>
    </TTGlyph>
    <TTGlyph name="D" xMin="84" yMin="0" xMax="588" yMax="636">
      <contour>
        <pt x="588" y="452" on="1"/>
        <pt x="588" y="184" on="1"/>
        <pt x="588" y="75" on="0"/>
        <pt x="470" y="0" on="0"/>
        <pt x="336" y="0" on="1"/>
        <pt x="118" y="0" on="1"/>
        <pt x="84" y="0" on="0"/>
        <pt x="84" y="44" on="1"/>
        <pt x="84" y="592" on="1"/>
        <pt x="84" y="636" on="0"/>
        <pt x="118" y="636" on="1"/>
        <pt x="354" y="636" on="1"/>
        <pt x="475" y="636" on="0"/>
        <pt x="588" y="560" on="0"/>
      </contour>
      <contour>
        <pt x="516" y="186" on="1"/>
        <pt x="516" y="450" on="1"/>
        <pt x="516" y="524" on="0"/>
        <pt x="451" y="564" on="0"/>
        <pt x="354" y="564" on="1"/>
        <pt x="156" y="564" on="1"/>
        <pt x="156" y="72" on="1"/>
        <pt x="336" y="72" on="1"/>
        <pt x="447" y="72" on="0"/>
        <pt x="516" y="111" on="0"/>
      </contour>
    </TTGlyph>
    <TTGlyph name="Dcaron" xMin="84" yMin="0" xMax="588" yMax="819">
      <contour>
        <pt x="588" y="452" on="1"/>
        <pt x="588" y="184" on="1"/>
        <pt x="588" y="75" on="0"/>
        <pt x="470" y="0" on="0"/>
        <pt x="336" y="0" on="1"/>
        <pt x="118" y="0" on="1"/>
        <pt x="84" y="0" on="0"/>
        <pt x="84" y="44" on="1"/>
        <pt x="84" y="592" on="1"/>
        <pt x="84" y="636" on="0"/>
        <pt x="118" y="636" on="1"/>
        <pt x="354" y="636" on="1"/>
        <pt x="475" y="636" on="0"/>
        <pt x="588" y="560" on="0"/>
      </contour>
      <contour>
        <pt x="516" y="186" on="1"/>
        <pt x="516" y="450" on="1"/>
        <pt x="516" y="524" on="0"/>
        <pt x="451" y="564" on="0"/>
        <pt x="354" y="564" on="1"/>
        <pt x="156" y="564" on="1"/>
        <pt x="156" y="72" on="1"/>
        <pt x="336" y="72" on="1"/>
        <pt x="447" y="72" on="0"/>
        <pt x="516" y="111" on="0"/>
      </contour>
      <contour>
        <pt x="344" y="655" on="1"/>
        <pt x="280" y="655" on="1"/>
        <pt x="172" y="768" on="1"/>
        <pt x="163" y="777" on="0"/>
        <pt x="163" y="789" on="1"/>
        <pt x="163" y="799" on="0"/>
        <pt x="179" y="819" on="0"/>
        <pt x="196" y="819" on="1"/>
        <pt x="212" y="819" on="0"/>
        <pt x="234" y="800" on="1"/>
        <pt x="312" y="735" on="1"/>
        <pt x="390" y="800" on="1"/>
        <pt x="412" y="819" on="0"/>
        <pt x="428" y="819" on="1"/>
        <pt x="445" y="819" on="0"/>
        <pt x="461" y="799" on="0"/>
        <pt x="461" y="789" on="1"/>
        <pt x="461" y="777" on="0"/>
        <pt x="452" y="768" on="1"/>
      </contour>
    </TTGlyph>
    <TTGlyph name="Dcroat" xMin="42" yMin="0" xMax="588" yMax="646">
      <contour>
        <pt x="516" y="186" on="1"/>
        <pt x="516" y="460" on="1"/>
        <pt x="516" y="534" on="0"/>
        <pt x="451" y="574" on="0"/>
        <pt x="354" y="574" on="1"/>
        <pt x="156" y="574" on="1"/>
        <pt x="156" y="361" on="1"/>
        <pt x="240" y="361" on="1"/>
        <pt x="284" y="361" on="0"/>
        <pt x="284" y="324" on="1"/>
        <pt x="284" y="308" on="0"/>
        <pt x="260" y="288" on="0"/>
        <pt x="240" y="288" on="1"/>
        <pt x="156" y="288" on="1"/>
        <pt x="156" y="72" on="1"/>
        <pt x="336" y="72" on="1"/>
        <pt x="447" y="72" on="0"/>
        <pt x="516" y="111" on="0"/>
      </contour>
      <contour>
        <pt x="588" y="462" on="1"/>
        <pt x="588" y="184" on="1"/>
        <pt x="588" y="75" on="0"/>
        <pt x="470" y="0" on="0"/>
        <pt x="336" y="0" on="1"/>
        <pt x="118" y="0" on="1"/>
        <pt x="84" y="0" on="0"/>
        <pt x="84" y="44" on="1"/>
        <pt x="84" y="288" on="1"/>
        <pt x="42" y="288" on="0"/>
        <pt x="42" y="326" on="1"/>
        <pt x="42" y="340" on="0"/>
        <pt x="61" y="361" on="0"/>
        <pt x="84" y="361" on="1"/>
        <pt x="84" y="602" on="1"/>
        <pt x="84" y="646" on="0"/>
        <pt x="118" y="646" on="1"/>
        <pt x="354" y="646" on="1"/>
        <pt x="475" y="646" on="0"/>
        <pt x="588" y="570" on="0"/>
      </contour>
    </TTGlyph>
    <TTGlyph name="Decyrillic" xMin="13" yMin="-92" xMax="573" yMax="636">
      <contour>
        <pt x="85" y="-47" on="1"/>
        <pt x="85" y="-92" on="0"/>
        <pt x="13" y="-92" on="0"/>
        <pt x="13" y="-47" on="1"/>
        <pt x="13" y="0" on="1"/>
        <pt x="13" y="67" on="0"/>
        <pt x="78" y="67" on="1"/>
        <pt x="108" y="128" on="0"/>
        <pt x="176" y="490" on="0"/>
        <pt x="176" y="636" on="1"/>
        <pt x="513" y="636" on="1"/>
        <pt x="513" y="66" on="1"/>
        <pt x="573" y="66" on="0"/>
        <pt x="573" y="0" on="1"/>
        <pt x="573" y="-47" on="1"/>
        <pt x="573" y="-92" on="0"/>
        <pt x="501" y="-92" on="0"/>
        <pt x="501" y="-47" on="1"/>
        <pt x="501" y="0" on="1"/>
        <pt x="85" y="0" on="1"/>
      </contour>
      <contour>
        <pt x="255" y="564" on="1"/>
        <pt x="252" y="450" on="0"/>
        <pt x="189" y="141" on="0"/>
        <pt x="157" y="72" on="1"/>
        <pt x="441" y="72" on="1"/>
        <pt x="441" y="564" on="1"/>
      </contour>
    </TTGlyph>
    <TTGlyph name="Delta" xMin="25" yMin="0" xMax="567" yMax="644">
      <contour>
        <pt x="530" y="0" on="1"/>
        <pt x="62" y="0" on="1"/>
        <pt x="46" y="0" on="0"/>
        <pt x="25" y="19" on="0"/>
        <pt x="25" y="34" on="1"/>
        <pt x="25" y="43" on="0"/>
        <pt x="28" y="52" on="1"/>
        <pt x="255" y="615" on="1"/>
        <pt x="266" y="644" on="0"/>
        <pt x="326" y="644" on="0"/>
        <pt x="337" y="615" on="1"/>
        <pt x="564" y="52" on="1"/>
        <pt x="567" y="43" on="0"/>
        <pt x="567" y="34" on="1"/>
        <pt x="567" y="19" on="0"/>
        <pt x="546" y="0" on="0"/>
      </contour>
      <contour>
        <pt x="480" y="73" on="1"/>
        <pt x="296" y="536" on="1"/>
        <pt x="112" y="73" on="1"/>
      </contour>
    </TTGlyph>
    <TTGlyph name="Djecyrillic" xMin="26" yMin="-205" xMax="684" yMax="636">
      <contour>
        <pt x="440" y="636" on="1"/>
        <pt x="486" y="636" on="0"/>
        <pt x="486" y="599" on="1"/>
        <pt x="486" y="564" on="0"/>
        <pt x="440" y="564" on="1"/>
        <pt x="290" y="564" on="1"/>
        <pt x="290" y="426" on="1"/>
        <pt x="356" y="476" on="0"/>
        <pt x="454" y="476" on="1"/>
        <pt x="572" y="476" on="0"/>
        <pt x="684" y="400" on="0"/>
        <pt x="684" y="292" on="1"/>
        <pt x="684" y="-66" on="1"/>
        <pt x="684" y="-111" on="0"/>
        <pt x="667" y="-169" on="0"/>
        <pt x="631" y="-196" on="0"/>
        <pt x="595" y="-205" on="0"/>
        <pt x="567" y="-205" on="1"/>
        <pt x="518" y="-205" on="0"/>
        <pt x="518" y="-133" on="0"/>
        <pt x="567" y="-133" on="1"/>
        <pt x="594" y="-133" on="0"/>
        <pt x="612" y="-112" on="0"/>
        <pt x="612" y="-83" on="1"/>
        <pt x="612" y="289" on="1"/>
        <pt x="612" y="363" on="0"/>
        <pt x="547" y="404" on="0"/>
        <pt x="454" y="404" on="1"/>
        <pt x="374" y="404" on="0"/>
        <pt x="290" y="319" on="0"/>
        <pt x="290" y="238" on="1"/>
        <pt x="290" y="37" on="1"/>
        <pt x="290" y="-7" on="0"/>
        <pt x="251" y="-7" on="1"/>
        <pt x="215" y="-7" on="0"/>
        <pt x="215" y="35" on="1"/>
        <pt x="215" y="564" on="1"/>
        <pt x="69" y="564" on="1"/>
        <pt x="46" y="564" on="0"/>
        <pt x="26" y="586" on="0"/>
        <pt x="26" y="614" on="0"/>
        <pt x="46" y="636" on="0"/>
        <pt x="69" y="636" on="1"/>
      </contour>
    </TTGlyph>
    <TTGlyph name="Dzecyrillic" xMin="61" yMin="-8" xMax="597" yMax="644">
      <component glyphName="S" x="0" y="0" flags="0x1004"/>
    </TTGlyph>
    <TTGlyph name="Dzhecyrillic" xMin="85" yMin="-92" xMax="579" yMax="631">
      <contour>
        <pt x="296" y="-47" on="1"/>
        <pt x="296" y="0" on="1"/>
        <pt x="85" y="0" on="1"/>
        <pt x="85" y="586" on="1"/>
        <pt x="85" y="631" on="0"/>
        <pt x="120" y="631" on="1"/>
        <pt x="157" y="631" on="0"/>
        <pt x="157" y="586" on="1"/>
        <pt x="157" y="72" on="1"/>
        <pt x="507" y="72" on="1"/>
        <pt x="507" y="586" on="1"/>
        <pt x="507" y="631" on="0"/>
        <pt x="579" y="631" on="0"/>
        <pt x="579" y="586" on="1"/>
        <pt x="579" y="0" on="1"/>
        <pt x="368" y="0" on="1"/>
        <pt x="368" y="-47" on="1"/>
        <pt x="368" y="-69" on="0"/>
        <pt x="354" y="-92" on="0"/>
        <pt x="332" y="-92" on="1"/>
        <pt x="296" y="-92" on="0"/>
      </contour>
    </TTGlyph>
    <TTGlyph name="E" xMin="84" yMin="0" xMax="588" yMax="636">
      <contour>
        <pt x="156" y="322" on="1"/>
        <pt x="156" y="72" on="1"/>
        <pt x="544" y="72" on="1"/>
        <pt x="588" y="72" on="0"/>
        <pt x="588" y="34" on="1"/>
        <pt x="588" y="0" on="0"/>
        <pt x="544" y="0" on="1"/>
        <pt x="118" y="0" on="1"/>
        <pt x="84" y="0" on="0"/>
        <pt x="84" y="44" on="1"/>
        <pt x="84" y="592" on="1"/>
        <pt x="84" y="636" on="0"/>
        <pt x="118" y="636" on="1"/>
        <pt x="544" y="636" on="1"/>
        <pt x="588" y="636" on="0"/>
        <pt x="588" y="598" on="1"/>
        <pt x="588" y="564" on="0"/>
        <pt x="544" y="564" on="1"/>
        <pt x="156" y="564" on="1"/>
        <pt x="156" y="394" on="1"/>
        <pt x="421" y="394" on="1"/>
        <pt x="471" y="394" on="0"/>
        <pt x="471" y="356" on="1"/>
        <pt x="471" y="322" on="0"/>
        <pt x="421" y="322" on="1"/>
      </contour>
    </TTGlyph>
    <TTGlyph name="E.sc" xMin="86" yMin="0" xMax="590" yMax="552">
      <contour>
        <pt x="158" y="260" on="1"/>
        <pt x="158" y="72" on="1"/>
        <pt x="546" y="72" on="1"/>
        <pt x="590" y="72" on="0"/>
        <pt x="590" y="34" on="1"/>
        <pt x="590" y="0" on="0"/>
        <pt x="546" y="0" on="1"/>
        <pt x="120" y="0" on="1"/>
        <pt x="86" y="0" on="0"/>
        <pt x="86" y="44" on="1"/>
        <pt x="86" y="508" on="1"/>
        <pt x="86" y="552" on="0"/>
        <pt x="120" y="552" on="1"/>
        <pt x="546" y="552" on="1"/>
        <pt x="590" y="552" on="0"/>
        <pt x="590" y="514" on="1"/>
        <pt x="590" y="480" on="0"/>
        <pt x="546" y="480" on="1"/>
        <pt x="158" y="480" on="1"/>
        <pt x="158" y="332" on="1"/>
        <pt x="423" y="332" on="1"/>
        <pt x="473" y="332" on="0"/>
        <pt x="473" y="294" on="1"/>
        <pt x="473" y="260" on="0"/>
        <pt x="423" y="260" on="1"/>
      </contour>
    </TTGlyph>
    <TTGlyph name="Eacute" xMin="84" yMin="0" xMax="588" yMax="819">
      <component glyphName="acutecomb" x="650" y="178" flags="0x1004"/>
      <component glyphName="E" x="0" y="0" flags="0x1204"/>
    </TTGlyph>
    <TTGlyph name="Ecaron" xMin="84" yMin="0" xMax="588" yMax="819">
      <contour>
        <pt x="156" y="322" on="1"/>
        <pt x="156" y="72" on="1"/>
        <pt x="544" y="72" on="1"/>
        <pt x="588" y="72" on="0"/>
        <pt x="588" y="34" on="1"/>
        <pt x="588" y="0" on="0"/>
        <pt x="544" y="0" on="1"/>
        <pt x="118" y="0" on="1"/>
        <pt x="84" y="0" on="0"/>
        <pt x="84" y="44" on="1"/>
        <pt x="84" y="592" on="1"/>
        <pt x="84" y="636" on="0"/>
        <pt x="118" y="636" on="1"/>
        <pt x="544" y="636" on="1"/>
        <pt x="588" y="636" on="0"/>
        <pt x="588" y="598" on="1"/>
        <pt x="588" y="564" on="0"/>
        <pt x="544" y="564" on="1"/>
        <pt x="156" y="564" on="1"/>
        <pt x="156" y="394" on="1"/>
        <pt x="421" y="394" on="1"/>
        <pt x="471" y="394" on="0"/>
        <pt x="471" y="356" on="1"/>
        <pt x="471" y="322" on="0"/>
        <pt x="421" y="322" on="1"/>
      </contour>
      <contour>
        <pt x="353" y="655" on="1"/>
        <pt x="289" y="655" on="1"/>
        <pt x="181" y="768" on="1"/>
        <pt x="172" y="777" on="0"/>
        <pt x="172" y="789" on="1"/>
        <pt x="172" y="799" on="0"/>
        <pt x="188" y="819" on="0"/>
        <pt x="205" y="819" on="1"/>
        <pt x="221" y="819" on="0"/>
        <pt x="243" y="800" on="1"/>
        <pt x="321" y="735" on="1"/>
        <pt x="399" y="800" on="1"/>
        <pt x="421" y="819" on="0"/>
        <pt x="437" y="819" on="1"/>
        <pt x="454" y="819" on="0"/>
        <pt x="470" y="799" on="0"/>
        <pt x="470" y="789" on="1"/>
        <pt x="470" y="777" on="0"/>
        <pt x="461" y="768" on="1"/>
      </contour>
    </TTGlyph>
    <TTGlyph name="Ecircumflex" xMin="84" yMin="0" xMax="588" yMax="819">
      <component glyphName="uni0302" x="633" y="141" flags="0x1004"/>
      <component glyphName="E" x="0" y="0" flags="0x1204"/>
    </TTGlyph>
    <TTGlyph name="Edieresis" xMin="84" yMin="0" xMax="588" yMax="808">
      <component glyphName="dieresis" x="135" y="127" flags="0x1004"/>
      <component glyphName="E" x="0" y="0" flags="0x1204"/>
    </TTGlyph>
    <TTGlyph name="Edotaccent" xMin="84" yMin="0" xMax="588" yMax="808">
      <contour>
        <pt x="331" y="706" on="1"/>
        <pt x="309" y="706" on="0"/>
        <pt x="270" y="735" on="0"/>
        <pt x="270" y="779" on="0"/>
        <pt x="311" y="808" on="0"/>
        <pt x="351" y="808" on="0"/>
        <pt x="392" y="779" on="0"/>
        <pt x="392" y="735" on="0"/>
        <pt x="351" y="706" on="0"/>
      </contour>
      <contour>
        <pt x="156" y="322" on="1"/>
        <pt x="156" y="72" on="1"/>
        <pt x="544" y="72" on="1"/>
        <pt x="588" y="72" on="0"/>
        <pt x="588" y="34" on="1"/>
        <pt x="588" y="0" on="0"/>
        <pt x="544" y="0" on="1"/>
        <pt x="118" y="0" on="1"/>
        <pt x="84" y="0" on="0"/>
        <pt x="84" y="44" on="1"/>
        <pt x="84" y="592" on="1"/>
        <pt x="84" y="636" on="0"/>
        <pt x="118" y="636" on="1"/>
        <pt x="544" y="636" on="1"/>
        <pt x="588" y="636" on="0"/>
        <pt x="588" y="598" on="1"/>
        <pt x="588" y="564" on="0"/>
        <pt x="544" y="564" on="1"/>
        <pt x="156" y="564" on="1"/>
        <pt x="156" y="394" on="1"/>
        <pt x="421" y="394" on="1"/>
        <pt x="471" y="394" on="0"/>
        <pt x="471" y="356" on="1"/>
        <pt x="471" y="322" on="0"/>
        <pt x="421" y="322" on="1"/>
      </contour>
    </TTGlyph>
    <TTGlyph name="Efcyrillic" xMin="42" yMin="-7" xMax="546" yMax="643">
      <component glyphName="Phi" x="0" y="0" flags="0x1004"/>
    </TTGlyph>
    <TTGlyph name="Egrave" xMin="84" yMin="0" xMax="588" yMax="819">
      <component glyphName="gravecomb" x="599" y="178" flags="0x1004"/>
      <component glyphName="E" x="0" y="0" flags="0x1204"/>
    </TTGlyph>
    <TTGlyph name="Elcyrillic" xMin="22" yMin="-7" xMax="530" yMax="636">
      <contour>
        <pt x="530" y="36" on="1"/>
        <pt x="530" y="-7" on="0"/>
        <pt x="493" y="-7" on="1"/>
        <pt x="458" y="-7" on="0"/>
        <pt x="458" y="36" on="1"/>
        <pt x="458" y="564" on="1"/>
        <pt x="260" y="564" on="1"/>
        <pt x="223" y="564" on="0"/>
        <pt x="197" y="544" on="0"/>
        <pt x="197" y="517" on="1"/>
        <pt x="197" y="133" on="1"/>
        <pt x="197" y="53" on="0"/>
        <pt x="128" y="0" on="0"/>
        <pt x="68" y="0" on="1"/>
        <pt x="22" y="0" on="0"/>
        <pt x="22" y="37" on="1"/>
        <pt x="22" y="72" on="0"/>
        <pt x="68" y="72" on="1"/>
        <pt x="95" y="72" on="0"/>
        <pt x="113" y="91" on="0"/>
        <pt x="113" y="118" on="1"/>
        <pt x="113" y="503" on="1"/>
        <pt x="113" y="577" on="0"/>
        <pt x="170" y="636" on="0"/>
        <pt x="253" y="636" on="1"/>
        <pt x="530" y="636" on="1"/>
      </contour>
    </TTGlyph>
    <TTGlyph name="Emacron" xMin="84" yMin="0" xMax="588" yMax="779">
      <contour>
        <pt x="452" y="779" on="1"/>
        <pt x="496" y="779" on="0"/>
        <pt x="496" y="741" on="1"/>
        <pt x="496" y="725" on="0"/>
        <pt x="471" y="706" on="0"/>
        <pt x="452" y="706" on="1"/>
        <pt x="207" y="706" on="1"/>
        <pt x="166" y="706" on="0"/>
        <pt x="166" y="743" on="1"/>
        <pt x="166" y="756" on="0"/>
        <pt x="185" y="779" on="0"/>
        <pt x="207" y="779" on="1"/>
      </contour>
      <contour>
        <pt x="156" y="322" on="1"/>
        <pt x="156" y="72" on="1"/>
        <pt x="544" y="72" on="1"/>
        <pt x="588" y="72" on="0"/>
        <pt x="588" y="34" on="1"/>
        <pt x="588" y="0" on="0"/>
        <pt x="544" y="0" on="1"/>
        <pt x="118" y="0" on="1"/>
        <pt x="84" y="0" on="0"/>
        <pt x="84" y="44" on="1"/>
        <pt x="84" y="592" on="1"/>
        <pt x="84" y="636" on="0"/>
        <pt x="118" y="636" on="1"/>
        <pt x="544" y="636" on="1"/>
        <pt x="588" y="636" on="0"/>
        <pt x="588" y="598" on="1"/>
        <pt x="588" y="564" on="0"/>
        <pt x="544" y="564" on="1"/>
        <pt x="156" y="564" on="1"/>
        <pt x="156" y="394" on="1"/>
        <pt x="421" y="394" on="1"/>
        <pt x="471" y="394" on="0"/>
        <pt x="471" y="356" on="1"/>
        <pt x="471" y="322" on="0"/>
        <pt x="421" y="322" on="1"/>
      </contour>
    </TTGlyph>
    <TTGlyph name="Emcyrillic" xMin="84" yMin="-7" xMax="609" yMax="643">
      <component glyphName="M" x="0" y="0" flags="0x1004"/>
    </TTGlyph>
    <TTGlyph name="Encyrillic" xMin="84" yMin="-7" xMax="588" yMax="643">
      <component glyphName="H" x="0" y="0" flags="0x1004"/>
    </TTGlyph>
    <TTGlyph name="Eng" xMin="84" yMin="-175" xMax="588" yMax="643">
      <contour>
        <pt x="516" y="118" on="1"/>
        <pt x="516" y="597" on="1"/>
        <pt x="516" y="643" on="0"/>
        <pt x="551" y="643" on="1"/>
        <pt x="588" y="643" on="0"/>
        <pt x="588" y="600" on="1"/>
        <pt x="588" y="0" on="1"/>
        <pt x="588" y="-105" on="0"/>
        <pt x="479" y="-175" on="0"/>
        <pt x="365" y="-175" on="1"/>
        <pt x="319" y="-175" on="0"/>
        <pt x="319" y="-138" on="1"/>
        <pt x="319" y="-103" on="0"/>
        <pt x="365" y="-103" on="1"/>
        <pt x="455" y="-103" on="0"/>
        <pt x="516" y="-67" on="0"/>
        <pt x="516" y="0" on="1"/>
        <pt x="516" y="13" on="1"/>
        <pt x="156" y="517" on="1"/>
        <pt x="156" y="32" on="1"/>
        <pt x="156" y="-7" on="0"/>
        <pt x="84" y="-7" on="0"/>
        <pt x="84" y="35" on="1"/>
        <pt x="84" y="600" on="1"/>
        <pt x="84" y="643" on="0"/>
        <pt x="118" y="643" on="1"/>
        <pt x="140" y="643" on="0"/>
        <pt x="156" y="620" on="1"/>
      </contour>
    </TTGlyph>
    <TTGlyph name="Eogonek" xMin="84" yMin="-205" xMax="588" yMax="641">
      <contour>
        <pt x="313" y="-91" on="1"/>
        <pt x="313" y="-135" on="0"/>
        <pt x="345" y="-135" on="1"/>
        <pt x="359" y="-135" on="0"/>
        <pt x="404" y="-118" on="0"/>
        <pt x="411" y="-118" on="1"/>
        <pt x="436" y="-118" on="0"/>
        <pt x="436" y="-145" on="1"/>
        <pt x="436" y="-167" on="0"/>
        <pt x="401" y="-196" on="0"/>
        <pt x="364" y="-205" on="0"/>
        <pt x="347" y="-205" on="1"/>
        <pt x="301" y="-205" on="0"/>
        <pt x="241" y="-142" on="0"/>
        <pt x="241" y="-91" on="1"/>
        <pt x="241" y="-56" on="0"/>
        <pt x="285" y="0" on="1"/>
        <pt x="118" y="0" on="1"/>
        <pt x="84" y="0" on="0"/>
        <pt x="84" y="44" on="1"/>
        <pt x="84" y="597" on="1"/>
        <pt x="84" y="641" on="0"/>
        <pt x="118" y="641" on="1"/>
        <pt x="544" y="641" on="1"/>
        <pt x="588" y="641" on="0"/>
        <pt x="588" y="603" on="1"/>
        <pt x="588" y="569" on="0"/>
        <pt x="544" y="569" on="1"/>
        <pt x="156" y="569" on="1"/>
        <pt x="156" y="394" on="1"/>
        <pt x="421" y="394" on="1"/>
        <pt x="471" y="394" on="0"/>
        <pt x="471" y="356" on="1"/>
        <pt x="471" y="322" on="0"/>
        <pt x="421" y="322" on="1"/>
        <pt x="156" y="322" on="1"/>
        <pt x="156" y="72" on="1"/>
        <pt x="544" y="72" on="1"/>
        <pt x="588" y="72" on="0"/>
        <pt x="588" y="34" on="1"/>
        <pt x="588" y="0" on="0"/>
        <pt x="544" y="0" on="1"/>
        <pt x="385" y="0" on="1"/>
        <pt x="359" y="-16" on="0"/>
        <pt x="323" y="-60" on="0"/>
        <pt x="313" y="-86" on="0"/>
      </contour>
    </TTGlyph>
    <TTGlyph name="Epsilon" xMin="84" yMin="0" xMax="588" yMax="636">
      <component glyphName="E" x="0" y="0" flags="0x1004"/>
    </TTGlyph>
    <TTGlyph name="Epsilontonos" xMin="12" yMin="0" xMax="629" yMax="793">
      <component glyphName="tonos" x="-58" y="102" flags="0x1004"/>
      <component glyphName="Epsilon" x="41" y="0" flags="0x1004"/>
    </TTGlyph>
    <TTGlyph name="Ercyrillic" xMin="84" yMin="-7" xMax="546" yMax="641">
      <component glyphName="P" x="0" y="0" flags="0x1004"/>
    </TTGlyph>
    <TTGlyph name="Ereversedcyrillic" xMin="53" yMin="0" xMax="557" yMax="636">
      <contour>
        <pt x="163" y="636" on="1"/>
        <pt x="304" y="636" on="1"/>
        <pt x="438" y="636" on="0"/>
        <pt x="557" y="562" on="0"/>
        <pt x="557" y="455" on="1"/>
        <pt x="557" y="181" on="1"/>
        <pt x="557" y="74" on="0"/>
        <pt x="438" y="0" on="0"/>
        <pt x="304" y="0" on="1"/>
        <pt x="163" y="0" on="1"/>
        <pt x="98" y="0" on="0"/>
        <pt x="53" y="67" on="0"/>
        <pt x="53" y="122" on="1"/>
        <pt x="53" y="167" on="0"/>
        <pt x="89" y="167" on="1"/>
        <pt x="103" y="167" on="0"/>
        <pt x="125" y="147" on="0"/>
        <pt x="125" y="124" on="1"/>
        <pt x="125" y="94" on="0"/>
        <pt x="143" y="72" on="0"/>
        <pt x="170" y="72" on="1"/>
        <pt x="304" y="72" on="1"/>
        <pt x="414" y="72" on="0"/>
        <pt x="485" y="111" on="0"/>
        <pt x="485" y="184" on="1"/>
        <pt x="485" y="297" on="1"/>
        <pt x="216" y="297" on="1"/>
        <pt x="171" y="297" on="0"/>
        <pt x="171" y="335" on="1"/>
        <pt x="171" y="369" on="0"/>
        <pt x="216" y="369" on="1"/>
        <pt x="485" y="369" on="1"/>
        <pt x="485" y="455" on="1"/>
        <pt x="485" y="526" on="0"/>
        <pt x="415" y="564" on="0"/>
        <pt x="304" y="564" on="1"/>
        <pt x="170" y="564" on="1"/>
        <pt x="143" y="564" on="0"/>
        <pt x="125" y="542" on="0"/>
        <pt x="125" y="512" on="1"/>
        <pt x="125" y="489" on="0"/>
        <pt x="103" y="469" on="0"/>
        <pt x="89" y="469" on="1"/>
        <pt x="53" y="469" on="0"/>
        <pt x="53" y="515" on="1"/>
        <pt x="53" y="570" on="0"/>
        <pt x="98" y="636" on="0"/>
      </contour>
    </TTGlyph>
    <TTGlyph name="Escyrillic" xMin="71" yMin="0" xMax="575" yMax="636">
      <component glyphName="C" x="0" y="0" flags="0x1004"/>
    </TTGlyph>
    <TTGlyph name="Eta" xMin="84" yMin="-7" xMax="588" yMax="643">
      <component glyphName="H" x="0" y="0" flags="0x1004"/>
    </TTGlyph>
    <TTGlyph name="Etatonos" xMin="11" yMin="-7" xMax="632" yMax="793">
      <component glyphName="tonos" x="-59" y="102" flags="0x1004"/>
      <component glyphName="Eta" x="44" y="0" flags="0x1004"/>
    </TTGlyph>
    <TTGlyph name="Eth" xMin="42" yMin="0" xMax="588" yMax="636">
      <contour>
        <pt x="516" y="186" on="1"/>
        <pt x="516" y="450" on="1"/>
        <pt x="516" y="524" on="0"/>
        <pt x="451" y="564" on="0"/>
        <pt x="354" y="564" on="1"/>
        <pt x="156" y="564" on="1"/>
        <pt x="156" y="361" on="1"/>
        <pt x="240" y="361" on="1"/>
        <pt x="284" y="361" on="0"/>
        <pt x="284" y="324" on="1"/>
        <pt x="284" y="308" on="0"/>
        <pt x="260" y="288" on="0"/>
        <pt x="240" y="288" on="1"/>
        <pt x="156" y="288" on="1"/>
        <pt x="156" y="72" on="1"/>
        <pt x="336" y="72" on="1"/>
        <pt x="447" y="72" on="0"/>
        <pt x="516" y="111" on="0"/>
      </contour>
      <contour>
        <pt x="588" y="452" on="1"/>
        <pt x="588" y="184" on="1"/>
        <pt x="588" y="75" on="0"/>
        <pt x="470" y="0" on="0"/>
        <pt x="336" y="0" on="1"/>
        <pt x="118" y="0" on="1"/>
        <pt x="84" y="0" on="0"/>
        <pt x="84" y="44" on="1"/>
        <pt x="84" y="288" on="1"/>
        <pt x="42" y="288" on="0"/>
        <pt x="42" y="326" on="1"/>
        <pt x="42" y="340" on="0"/>
        <pt x="61" y="361" on="0"/>
        <pt x="84" y="361" on="1"/>
        <pt x="84" y="592" on="1"/>
        <pt x="84" y="636" on="0"/>
        <pt x="118" y="636" on="1"/>
        <pt x="354" y="636" on="1"/>
        <pt x="475" y="636" on="0"/>
        <pt x="588" y="560" on="0"/>
      </contour>
    </TTGlyph>
    <TTGlyph name="Euro" xMin="44" yMin="-15" xMax="518" yMax="651">
      <contour>
        <pt x="446" y="527" on="1"/>
        <pt x="446" y="557" on="0"/>
        <pt x="428" y="579" on="0"/>
        <pt x="401" y="579" on="1"/>
        <pt x="345" y="579" on="1"/>
        <pt x="266" y="579" on="0"/>
        <pt x="181" y="494" on="0"/>
        <pt x="179" y="414" on="1"/>
        <pt x="363" y="414" on="1"/>
        <pt x="407" y="414" on="0"/>
        <pt x="407" y="377" on="1"/>
        <pt x="407" y="361" on="0"/>
        <pt x="382" y="341" on="0"/>
        <pt x="363" y="341" on="1"/>
        <pt x="179" y="341" on="1"/>
        <pt x="179" y="296" on="1"/>
        <pt x="363" y="296" on="1"/>
        <pt x="387" y="296" on="0"/>
        <pt x="407" y="272" on="0"/>
        <pt x="407" y="258" on="1"/>
        <pt x="407" y="242" on="0"/>
        <pt x="383" y="223" on="0"/>
        <pt x="363" y="223" on="1"/>
        <pt x="179" y="223" on="1"/>
        <pt x="180" y="175" on="0"/>
        <pt x="208" y="107" on="0"/>
        <pt x="258" y="72" on="0"/>
        <pt x="312" y="57" on="0"/>
        <pt x="345" y="57" on="1"/>
        <pt x="401" y="57" on="1"/>
        <pt x="428" y="57" on="0"/>
        <pt x="446" y="79" on="0"/>
        <pt x="446" y="109" on="1"/>
        <pt x="446" y="132" on="0"/>
        <pt x="468" y="152" on="0"/>
        <pt x="482" y="152" on="1"/>
        <pt x="518" y="152" on="0"/>
        <pt x="518" y="106" on="1"/>
        <pt x="518" y="51" on="0"/>
        <pt x="473" y="-15" on="0"/>
        <pt x="408" y="-15" on="1"/>
        <pt x="345" y="-15" on="1"/>
        <pt x="241" y="-15" on="0"/>
        <pt x="108" y="110" on="0"/>
        <pt x="107" y="223" on="1"/>
        <pt x="86" y="223" on="1"/>
        <pt x="44" y="223" on="0"/>
        <pt x="44" y="260" on="1"/>
        <pt x="44" y="296" on="0"/>
        <pt x="86" y="296" on="1"/>
        <pt x="107" y="296" on="1"/>
        <pt x="107" y="341" on="1"/>
        <pt x="86" y="341" on="1"/>
        <pt x="63" y="341" on="0"/>
        <pt x="44" y="364" on="0"/>
        <pt x="44" y="379" on="1"/>
        <pt x="44" y="393" on="0"/>
        <pt x="63" y="414" on="0"/>
        <pt x="86" y="414" on="1"/>
        <pt x="107" y="414" on="1"/>
        <pt x="108" y="526" on="0"/>
        <pt x="241" y="651" on="0"/>
        <pt x="345" y="651" on="1"/>
        <pt x="408" y="651" on="1"/>
        <pt x="473" y="651" on="0"/>
        <pt x="518" y="584" on="0"/>
        <pt x="518" y="529" on="1"/>
        <pt x="518" y="484" on="0"/>
        <pt x="482" y="484" on="1"/>
        <pt x="468" y="484" on="0"/>
        <pt x="446" y="504" on="0"/>
      </contour>
    </TTGlyph>
    <TTGlyph name="F" xMin="84" yMin="-7" xMax="588" yMax="636">
      <contour>
        <pt x="156" y="35" on="1"/>
        <pt x="156" y="-7" on="0"/>
        <pt x="84" y="-7" on="0"/>
        <pt x="84" y="36" on="1"/>
        <pt x="84" y="592" on="1"/>
        <pt x="84" y="636" on="0"/>
        <pt x="118" y="636" on="1"/>
        <pt x="544" y="636" on="1"/>
        <pt x="588" y="636" on="0"/>
        <pt x="588" y="598" on="1"/>
        <pt x="588" y="564" on="0"/>
        <pt x="544" y="564" on="1"/>
        <pt x="156" y="564" on="1"/>
        <pt x="156" y="394" on="1"/>
        <pt x="421" y="394" on="1"/>
        <pt x="471" y="394" on="0"/>
        <pt x="471" y="356" on="1"/>
        <pt x="471" y="322" on="0"/>
        <pt x="421" y="322" on="1"/>
        <pt x="156" y="322" on="1"/>
      </contour>
    </TTGlyph>
    <TTGlyph name="Fitacyrillic" xMin="64" yMin="-9" xMax="568" yMax="645">
      <contour>
        <pt x="426" y="337" on="1"/>
        <pt x="456" y="337" on="0"/>
        <pt x="496" y="365" on="1"/>
        <pt x="496" y="402" on="1"/>
        <pt x="496" y="483" on="0"/>
        <pt x="405" y="573" on="0"/>
        <pt x="227" y="573" on="0"/>
        <pt x="136" y="483" on="0"/>
        <pt x="136" y="402" on="1"/>
        <pt x="136" y="363" on="1"/>
        <pt x="164" y="377" on="0"/>
        <pt x="189" y="377" on="1"/>
        <pt x="230" y="377" on="0"/>
        <pt x="410" y="337" on="0"/>
      </contour>
      <contour>
        <pt x="568" y="230" on="1"/>
        <pt x="568" y="119" on="0"/>
        <pt x="429" y="-9" on="0"/>
        <pt x="316" y="-9" on="1"/>
        <pt x="202" y="-9" on="0"/>
        <pt x="64" y="118" on="0"/>
        <pt x="64" y="230" on="1"/>
        <pt x="64" y="406" on="1"/>
        <pt x="64" y="518" on="0"/>
        <pt x="202" y="645" on="0"/>
        <pt x="316" y="645" on="1"/>
        <pt x="429" y="645" on="0"/>
        <pt x="568" y="517" on="0"/>
        <pt x="568" y="406" on="1"/>
      </contour>
      <contour>
        <pt x="496" y="234" on="1"/>
        <pt x="496" y="280" on="1"/>
        <pt x="468" y="265" on="0"/>
        <pt x="441" y="265" on="1"/>
        <pt x="400" y="265" on="0"/>
        <pt x="219" y="305" on="0"/>
        <pt x="203" y="305" on="1"/>
        <pt x="178" y="305" on="0"/>
        <pt x="136" y="278" on="1"/>
        <pt x="136" y="234" on="1"/>
        <pt x="136" y="152" on="0"/>
        <pt x="227" y="63" on="0"/>
        <pt x="405" y="63" on="0"/>
        <pt x="496" y="152" on="0"/>
      </contour>
    </TTGlyph>
    <TTGlyph name="G" xMin="71" yMin="0" xMax="575" yMax="636">
      <contour>
        <pt x="503" y="236" on="1"/>
        <pt x="376" y="236" on="1"/>
        <pt x="326" y="236" on="0"/>
        <pt x="326" y="271" on="1"/>
        <pt x="326" y="308" on="0"/>
        <pt x="376" y="308" on="1"/>
        <pt x="575" y="308" on="1"/>
        <pt x="575" y="115" on="1"/>
        <pt x="575" y="63" on="0"/>
        <pt x="530" y="0" on="0"/>
        <pt x="465" y="0" on="1"/>
        <pt x="306" y="0" on="1"/>
        <pt x="184" y="0" on="0"/>
        <pt x="71" y="74" on="0"/>
        <pt x="71" y="181" on="1"/>
        <pt x="71" y="455" on="1"/>
        <pt x="71" y="564" on="0"/>
        <pt x="189" y="636" on="0"/>
        <pt x="324" y="636" on="1"/>
        <pt x="465" y="636" on="1"/>
        <pt x="530" y="636" on="0"/>
        <pt x="575" y="570" on="0"/>
        <pt x="575" y="515" on="1"/>
        <pt x="575" y="469" on="0"/>
        <pt x="503" y="469" on="0"/>
        <pt x="503" y="513" on="1"/>
        <pt x="503" y="543" on="0"/>
        <pt x="485" y="564" on="0"/>
        <pt x="458" y="564" on="1"/>
        <pt x="324" y="564" on="1"/>
        <pt x="214" y="564" on="0"/>
        <pt x="143" y="525" on="0"/>
        <pt x="143" y="452" on="1"/>
        <pt x="143" y="184" on="1"/>
        <pt x="143" y="111" on="0"/>
        <pt x="208" y="72" on="0"/>
        <pt x="306" y="72" on="1"/>
        <pt x="458" y="72" on="1"/>
        <pt x="485" y="72" on="0"/>
        <pt x="503" y="91" on="0"/>
        <pt x="503" y="120" on="1"/>
      </contour>
    </TTGlyph>
    <TTGlyph name="Gamma" xMin="82" yMin="-7" xMax="572" yMax="636">
      <contour>
        <pt x="199" y="564" on="1"/>
        <pt x="172" y="564" on="0"/>
        <pt x="154" y="544" on="0"/>
        <pt x="154" y="517" on="1"/>
        <pt x="154" y="35" on="1"/>
        <pt x="154" y="-7" on="0"/>
        <pt x="117" y="-7" on="1"/>
        <pt x="82" y="-7" on="0"/>
        <pt x="82" y="35" on="1"/>
        <pt x="82" y="503" on="1"/>
        <pt x="82" y="574" on="0"/>
        <pt x="129" y="636" on="0"/>
        <pt x="192" y="636" on="1"/>
        <pt x="527" y="636" on="1"/>
        <pt x="572" y="636" on="0"/>
        <pt x="572" y="564" on="0"/>
        <pt x="527" y="564" on="1"/>
      </contour>
    </TTGlyph>
    <TTGlyph name="Gbreve" xMin="71" yMin="0" xMax="575" yMax="819">
      <contour>
        <pt x="456" y="819" on="1"/>
        <pt x="456" y="753" on="0"/>
        <pt x="371" y="693" on="0"/>
        <pt x="326" y="693" on="1"/>
        <pt x="306" y="693" on="0"/>
        <pt x="265" y="705" on="0"/>
        <pt x="223" y="732" on="0"/>
        <pt x="196" y="784" on="0"/>
        <pt x="196" y="819" on="1"/>
        <pt x="269" y="819" on="1"/>
        <pt x="269" y="767" on="0"/>
        <pt x="383" y="767" on="0"/>
        <pt x="383" y="819" on="1"/>
      </contour>
      <contour>
        <pt x="503" y="236" on="1"/>
        <pt x="376" y="236" on="1"/>
        <pt x="326" y="236" on="0"/>
        <pt x="326" y="271" on="1"/>
        <pt x="326" y="308" on="0"/>
        <pt x="376" y="308" on="1"/>
        <pt x="575" y="308" on="1"/>
        <pt x="575" y="115" on="1"/>
        <pt x="575" y="63" on="0"/>
        <pt x="530" y="0" on="0"/>
        <pt x="465" y="0" on="1"/>
        <pt x="306" y="0" on="1"/>
        <pt x="184" y="0" on="0"/>
        <pt x="71" y="74" on="0"/>
        <pt x="71" y="181" on="1"/>
        <pt x="71" y="455" on="1"/>
        <pt x="71" y="564" on="0"/>
        <pt x="189" y="636" on="0"/>
        <pt x="324" y="636" on="1"/>
        <pt x="465" y="636" on="1"/>
        <pt x="530" y="636" on="0"/>
        <pt x="575" y="570" on="0"/>
        <pt x="575" y="515" on="1"/>
        <pt x="575" y="469" on="0"/>
        <pt x="503" y="469" on="0"/>
        <pt x="503" y="513" on="1"/>
        <pt x="503" y="543" on="0"/>
        <pt x="485" y="564" on="0"/>
        <pt x="458" y="564" on="1"/>
        <pt x="324" y="564" on="1"/>
        <pt x="214" y="564" on="0"/>
        <pt x="143" y="525" on="0"/>
        <pt x="143" y="452" on="1"/>
        <pt x="143" y="184" on="1"/>
        <pt x="143" y="111" on="0"/>
        <pt x="208" y="72" on="0"/>
        <pt x="306" y="72" on="1"/>
        <pt x="458" y="72" on="1"/>
        <pt x="485" y="72" on="0"/>
        <pt x="503" y="91" on="0"/>
        <pt x="503" y="120" on="1"/>
      </contour>
    </TTGlyph>
    <TTGlyph name="Gcircumflex" xMin="71" yMin="0" xMax="575" yMax="819">
      <contour>
        <pt x="183" y="703" on="1"/>
        <pt x="292" y="819" on="1"/>
        <pt x="359" y="819" on="1"/>
        <pt x="470" y="703" on="1"/>
        <pt x="478" y="693" on="0"/>
        <pt x="478" y="679" on="1"/>
        <pt x="478" y="651" on="0"/>
        <pt x="445" y="651" on="1"/>
        <pt x="438" y="651" on="0"/>
        <pt x="426" y="655" on="0"/>
        <pt x="421" y="659" on="0"/>
        <pt x="416" y="664" on="1"/>
        <pt x="410" y="669" on="1"/>
        <pt x="326" y="738" on="1"/>
        <pt x="243" y="669" on="1"/>
        <pt x="241" y="668" on="0"/>
        <pt x="233" y="660" on="0"/>
        <pt x="227" y="655" on="0"/>
        <pt x="215" y="651" on="0"/>
        <pt x="208" y="651" on="1"/>
        <pt x="175" y="651" on="0"/>
        <pt x="175" y="679" on="1"/>
        <pt x="175" y="693" on="0"/>
      </contour>
      <contour>
        <pt x="503" y="236" on="1"/>
        <pt x="376" y="236" on="1"/>
        <pt x="326" y="236" on="0"/>
        <pt x="326" y="271" on="1"/>
        <pt x="326" y="308" on="0"/>
        <pt x="376" y="308" on="1"/>
        <pt x="575" y="308" on="1"/>
        <pt x="575" y="115" on="1"/>
        <pt x="575" y="63" on="0"/>
        <pt x="530" y="0" on="0"/>
        <pt x="465" y="0" on="1"/>
        <pt x="306" y="0" on="1"/>
        <pt x="184" y="0" on="0"/>
        <pt x="71" y="74" on="0"/>
        <pt x="71" y="181" on="1"/>
        <pt x="71" y="455" on="1"/>
        <pt x="71" y="564" on="0"/>
        <pt x="189" y="636" on="0"/>
        <pt x="324" y="636" on="1"/>
        <pt x="465" y="636" on="1"/>
        <pt x="530" y="636" on="0"/>
        <pt x="575" y="570" on="0"/>
        <pt x="575" y="515" on="1"/>
        <pt x="575" y="469" on="0"/>
        <pt x="503" y="469" on="0"/>
        <pt x="503" y="513" on="1"/>
        <pt x="503" y="543" on="0"/>
        <pt x="485" y="564" on="0"/>
        <pt x="458" y="564" on="1"/>
        <pt x="324" y="564" on="1"/>
        <pt x="214" y="564" on="0"/>
        <pt x="143" y="525" on="0"/>
        <pt x="143" y="452" on="1"/>
        <pt x="143" y="184" on="1"/>
        <pt x="143" y="111" on="0"/>
        <pt x="208" y="72" on="0"/>
        <pt x="306" y="72" on="1"/>
        <pt x="458" y="72" on="1"/>
        <pt x="485" y="72" on="0"/>
        <pt x="503" y="91" on="0"/>
        <pt x="503" y="120" on="1"/>
      </contour>
    </TTGlyph>
    <TTGlyph name="Gcommaaccent" xMin="71" yMin="-205" xMax="575" yMax="636">
      <contour>
        <pt x="327" y="-175" on="1"/>
        <pt x="314" y="-205" on="0"/>
        <pt x="293" y="-205" on="1"/>
        <pt x="261" y="-205" on="0"/>
        <pt x="261" y="-170" on="1"/>
        <pt x="261" y="-170" on="0"/>
        <pt x="264" y="-152" on="1"/>
        <pt x="288" y="-65" on="1"/>
        <pt x="297" y="-34" on="0"/>
        <pt x="323" y="-34" on="1"/>
        <pt x="330" y="-34" on="0"/>
        <pt x="351" y="-38" on="0"/>
        <pt x="374" y="-55" on="0"/>
        <pt x="374" y="-69" on="1"/>
        <pt x="374" y="-78" on="0"/>
        <pt x="367" y="-92" on="1"/>
      </contour>
      <contour>
        <pt x="503" y="236" on="1"/>
        <pt x="376" y="236" on="1"/>
        <pt x="326" y="236" on="0"/>
        <pt x="326" y="271" on="1"/>
        <pt x="326" y="308" on="0"/>
        <pt x="376" y="308" on="1"/>
        <pt x="575" y="308" on="1"/>
        <pt x="575" y="115" on="1"/>
        <pt x="575" y="63" on="0"/>
        <pt x="530" y="0" on="0"/>
        <pt x="465" y="0" on="1"/>
        <pt x="306" y="0" on="1"/>
        <pt x="184" y="0" on="0"/>
        <pt x="71" y="74" on="0"/>
        <pt x="71" y="181" on="1"/>
        <pt x="71" y="455" on="1"/>
        <pt x="71" y="564" on="0"/>
        <pt x="189" y="636" on="0"/>
        <pt x="324" y="636" on="1"/>
        <pt x="465" y="636" on="1"/>
        <pt x="530" y="636" on="0"/>
        <pt x="575" y="570" on="0"/>
        <pt x="575" y="515" on="1"/>
        <pt x="575" y="469" on="0"/>
        <pt x="503" y="469" on="0"/>
        <pt x="503" y="513" on="1"/>
        <pt x="503" y="543" on="0"/>
        <pt x="485" y="564" on="0"/>
        <pt x="458" y="564" on="1"/>
        <pt x="324" y="564" on="1"/>
        <pt x="214" y="564" on="0"/>
        <pt x="143" y="525" on="0"/>
        <pt x="143" y="452" on="1"/>
        <pt x="143" y="184" on="1"/>
        <pt x="143" y="111" on="0"/>
        <pt x="208" y="72" on="0"/>
        <pt x="306" y="72" on="1"/>
        <pt x="458" y="72" on="1"/>
        <pt x="485" y="72" on="0"/>
        <pt x="503" y="91" on="0"/>
        <pt x="503" y="120" on="1"/>
      </contour>
    </TTGlyph>
    <TTGlyph name="Gdotaccent" xMin="71" yMin="0" xMax="575" yMax="793">
      <contour>
        <pt x="503" y="236" on="1"/>
        <pt x="376" y="236" on="1"/>
        <pt x="326" y="236" on="0"/>
        <pt x="326" y="271" on="1"/>
        <pt x="326" y="308" on="0"/>
        <pt x="376" y="308" on="1"/>
        <pt x="575" y="308" on="1"/>
        <pt x="575" y="115" on="1"/>
        <pt x="575" y="63" on="0"/>
        <pt x="530" y="0" on="0"/>
        <pt x="465" y="0" on="1"/>
        <pt x="306" y="0" on="1"/>
        <pt x="184" y="0" on="0"/>
        <pt x="71" y="74" on="0"/>
        <pt x="71" y="181" on="1"/>
        <pt x="71" y="455" on="1"/>
        <pt x="71" y="564" on="0"/>
        <pt x="189" y="636" on="0"/>
        <pt x="324" y="636" on="1"/>
        <pt x="465" y="636" on="1"/>
        <pt x="530" y="636" on="0"/>
        <pt x="575" y="570" on="0"/>
        <pt x="575" y="515" on="1"/>
        <pt x="575" y="469" on="0"/>
        <pt x="503" y="469" on="0"/>
        <pt x="503" y="513" on="1"/>
        <pt x="503" y="543" on="0"/>
        <pt x="485" y="564" on="0"/>
        <pt x="458" y="564" on="1"/>
        <pt x="324" y="564" on="1"/>
        <pt x="214" y="564" on="0"/>
        <pt x="143" y="525" on="0"/>
        <pt x="143" y="452" on="1"/>
        <pt x="143" y="184" on="1"/>
        <pt x="143" y="111" on="0"/>
        <pt x="208" y="72" on="0"/>
        <pt x="306" y="72" on="1"/>
        <pt x="458" y="72" on="1"/>
        <pt x="485" y="72" on="0"/>
        <pt x="503" y="91" on="0"/>
        <pt x="503" y="120" on="1"/>
      </contour>
      <contour>
        <pt x="334" y="691" on="1"/>
        <pt x="312" y="691" on="0"/>
        <pt x="273" y="720" on="0"/>
        <pt x="273" y="764" on="0"/>
        <pt x="314" y="793" on="0"/>
        <pt x="354" y="793" on="0"/>
        <pt x="395" y="764" on="0"/>
        <pt x="395" y="720" on="0"/>
        <pt x="354" y="691" on="0"/>
      </contour>
    </TTGlyph>
    <TTGlyph name="Gecyrillic" xMin="82" yMin="-7" xMax="572" yMax="636">
      <component glyphName="Gamma" x="0" y="0" flags="0x1004"/>
    </TTGlyph>
    <TTGlyph name="Gheupturncyrillic" xMin="82" yMin="-7" xMax="572" yMax="748">
      <contour>
        <pt x="572" y="564" on="1"/>
        <pt x="199" y="564" on="1"/>
        <pt x="172" y="564" on="0"/>
        <pt x="154" y="544" on="0"/>
        <pt x="154" y="517" on="1"/>
        <pt x="154" y="35" on="1"/>
        <pt x="154" y="-7" on="0"/>
        <pt x="117" y="-7" on="1"/>
        <pt x="82" y="-7" on="0"/>
        <pt x="82" y="35" on="1"/>
        <pt x="82" y="503" on="1"/>
        <pt x="82" y="574" on="0"/>
        <pt x="129" y="636" on="0"/>
        <pt x="192" y="636" on="1"/>
        <pt x="500" y="636" on="1"/>
        <pt x="500" y="703" on="1"/>
        <pt x="500" y="748" on="0"/>
        <pt x="537" y="748" on="1"/>
        <pt x="572" y="748" on="0"/>
        <pt x="572" y="703" on="1"/>
      </contour>
    </TTGlyph>
    <TTGlyph name="Gjecyrillic" xMin="82" yMin="-7" xMax="572" yMax="819">
      <component glyphName="acutecomb" x="669" y="178" flags="0x1004"/>
      <component glyphName="Gecyrillic" x="0" y="0" flags="0x1204"/>
    </TTGlyph>
    <TTGlyph name="H" xMin="84" yMin="-7" xMax="588" yMax="643">
      <contour>
        <pt x="156" y="35" on="1"/>
        <pt x="156" y="-7" on="0"/>
        <pt x="84" y="-7" on="0"/>
        <pt x="84" y="35" on="1"/>
        <pt x="84" y="600" on="1"/>
        <pt x="84" y="643" on="0"/>
        <pt x="118" y="643" on="1"/>
        <pt x="156" y="643" on="0"/>
        <pt x="156" y="600" on="1"/>
        <pt x="156" y="379" on="1"/>
        <pt x="516" y="379" on="1"/>
        <pt x="516" y="600" on="1"/>
        <pt x="516" y="643" on="0"/>
        <pt x="551" y="643" on="1"/>
        <pt x="588" y="643" on="0"/>
        <pt x="588" y="600" on="1"/>
        <pt x="588" y="35" on="1"/>
        <pt x="588" y="-7" on="0"/>
        <pt x="553" y="-7" on="1"/>
        <pt x="516" y="-7" on="0"/>
        <pt x="516" y="35" on="1"/>
        <pt x="516" y="307" on="1"/>
        <pt x="156" y="307" on="1"/>
      </contour>
    </TTGlyph>
    <TTGlyph name="Hardsigncyrillic" xMin="24" yMin="-7" xMax="618" yMax="636">
      <contour>
        <pt x="156" y="564" on="1"/>
        <pt x="70" y="564" on="1"/>
        <pt x="24" y="564" on="0"/>
        <pt x="24" y="602" on="1"/>
        <pt x="24" y="636" on="0"/>
        <pt x="70" y="636" on="1"/>
        <pt x="228" y="636" on="1"/>
        <pt x="228" y="476" on="1"/>
        <pt x="384" y="476" on="1"/>
        <pt x="489" y="476" on="0"/>
        <pt x="618" y="332" on="0"/>
        <pt x="618" y="234" on="1"/>
        <pt x="618" y="135" on="0"/>
        <pt x="490" y="-7" on="0"/>
        <pt x="387" y="-7" on="1"/>
        <pt x="193" y="-7" on="1"/>
        <pt x="156" y="-7" on="0"/>
        <pt x="156" y="36" on="1"/>
      </contour>
      <contour>
        <pt x="384" y="404" on="1"/>
        <pt x="228" y="404" on="1"/>
        <pt x="228" y="65" on="1"/>
        <pt x="387" y="65" on="1"/>
        <pt x="465" y="65" on="0"/>
        <pt x="546" y="165" on="0"/>
        <pt x="546" y="303" on="0"/>
        <pt x="463" y="404" on="0"/>
      </contour>
    </TTGlyph>
    <TTGlyph name="Hbar" xMin="28" yMin="-7" xMax="648" yMax="643">
      <contour>
        <pt x="54" y="508" on="1"/>
        <pt x="28" y="508" on="0"/>
        <pt x="28" y="530" on="1"/>
        <pt x="28" y="551" on="0"/>
        <pt x="54" y="551" on="1"/>
        <pt x="86" y="551" on="1"/>
        <pt x="86" y="600" on="1"/>
        <pt x="86" y="643" on="0"/>
        <pt x="120" y="643" on="1"/>
        <pt x="158" y="643" on="0"/>
        <pt x="158" y="600" on="1"/>
        <pt x="158" y="551" on="1"/>
        <pt x="518" y="551" on="1"/>
        <pt x="518" y="600" on="1"/>
        <pt x="518" y="643" on="0"/>
        <pt x="553" y="643" on="1"/>
        <pt x="590" y="643" on="0"/>
        <pt x="590" y="600" on="1"/>
        <pt x="590" y="551" on="1"/>
        <pt x="619" y="551" on="1"/>
        <pt x="648" y="551" on="0"/>
        <pt x="648" y="528" on="1"/>
        <pt x="648" y="508" on="0"/>
        <pt x="619" y="508" on="1"/>
        <pt x="590" y="508" on="1"/>
        <pt x="590" y="35" on="1"/>
        <pt x="590" y="-7" on="0"/>
        <pt x="555" y="-7" on="1"/>
        <pt x="518" y="-7" on="0"/>
        <pt x="518" y="35" on="1"/>
        <pt x="518" y="307" on="1"/>
        <pt x="158" y="307" on="1"/>
        <pt x="158" y="35" on="1"/>
        <pt x="158" y="-7" on="0"/>
        <pt x="86" y="-7" on="0"/>
        <pt x="86" y="35" on="1"/>
        <pt x="86" y="508" on="1"/>
      </contour>
      <contour>
        <pt x="518" y="508" on="1"/>
        <pt x="158" y="508" on="1"/>
        <pt x="158" y="379" on="1"/>
        <pt x="518" y="379" on="1"/>
      </contour>
    </TTGlyph>
    <TTGlyph name="Hcircumflex" xMin="84" yMin="-7" xMax="588" yMax="819">
      <contour>
        <pt x="156" y="35" on="1"/>
        <pt x="156" y="-7" on="0"/>
        <pt x="84" y="-7" on="0"/>
        <pt x="84" y="35" on="1"/>
        <pt x="84" y="600" on="1"/>
        <pt x="84" y="643" on="0"/>
        <pt x="118" y="643" on="1"/>
        <pt x="156" y="643" on="0"/>
        <pt x="156" y="600" on="1"/>
        <pt x="156" y="379" on="1"/>
        <pt x="516" y="379" on="1"/>
        <pt x="516" y="600" on="1"/>
        <pt x="516" y="643" on="0"/>
        <pt x="551" y="643" on="1"/>
        <pt x="588" y="643" on="0"/>
        <pt x="588" y="600" on="1"/>
        <pt x="588" y="35" on="1"/>
        <pt x="588" y="-7" on="0"/>
        <pt x="553" y="-7" on="1"/>
        <pt x="516" y="-7" on="0"/>
        <pt x="516" y="35" on="1"/>
        <pt x="516" y="307" on="1"/>
        <pt x="156" y="307" on="1"/>
      </contour>
      <contour>
        <pt x="189" y="703" on="1"/>
        <pt x="298" y="819" on="1"/>
        <pt x="365" y="819" on="1"/>
        <pt x="476" y="703" on="1"/>
        <pt x="484" y="693" on="0"/>
        <pt x="484" y="679" on="1"/>
        <pt x="484" y="651" on="0"/>
        <pt x="451" y="651" on="1"/>
        <pt x="444" y="651" on="0"/>
        <pt x="432" y="655" on="0"/>
        <pt x="427" y="659" on="0"/>
        <pt x="422" y="664" on="1"/>
        <pt x="416" y="669" on="1"/>
        <pt x="332" y="738" on="1"/>
        <pt x="249" y="669" on="1"/>
        <pt x="247" y="668" on="0"/>
        <pt x="239" y="660" on="0"/>
        <pt x="233" y="655" on="0"/>
        <pt x="221" y="651" on="0"/>
        <pt x="214" y="651" on="1"/>
        <pt x="181" y="651" on="0"/>
        <pt x="181" y="679" on="1"/>
        <pt x="181" y="693" on="0"/>
      </contour>
    </TTGlyph>
    <TTGlyph name="I" xMin="84" yMin="-7" xMax="156" yMax="643">
      <contour>
        <pt x="156" y="33" on="1"/>
        <pt x="156" y="-7" on="0"/>
        <pt x="119" y="-7" on="1"/>
        <pt x="84" y="-7" on="0"/>
        <pt x="84" y="33" on="1"/>
        <pt x="84" y="602" on="1"/>
        <pt x="84" y="643" on="0"/>
        <pt x="156" y="643" on="0"/>
        <pt x="156" y="602" on="1"/>
      </contour>
    </TTGlyph>
    <TTGlyph name="I.sc" xMin="86" yMin="-7" xMax="158" yMax="559">
      <contour>
        <pt x="158" y="33" on="1"/>
        <pt x="158" y="-7" on="0"/>
        <pt x="121" y="-7" on="1"/>
        <pt x="86" y="-7" on="0"/>
        <pt x="86" y="33" on="1"/>
        <pt x="86" y="518" on="1"/>
        <pt x="86" y="559" on="0"/>
        <pt x="158" y="559" on="0"/>
        <pt x="158" y="518" on="1"/>
      </contour>
    </TTGlyph>
    <TTGlyph name="IAcyrillic" xMin="11" yMin="-7" xMax="545" yMax="636">
      <contour>
        <pt x="472" y="564" on="1"/>
        <pt x="327" y="564" on="1"/>
        <pt x="245" y="564" on="0"/>
        <pt x="164" y="514" on="0"/>
        <pt x="164" y="457" on="1"/>
        <pt x="164" y="356" on="0"/>
        <pt x="327" y="356" on="1"/>
        <pt x="472" y="356" on="1"/>
      </contour>
      <contour>
        <pt x="510" y="-7" on="1"/>
        <pt x="472" y="-7" on="0"/>
        <pt x="472" y="33" on="1"/>
        <pt x="472" y="284" on="1"/>
        <pt x="325" y="284" on="1"/>
        <pt x="274" y="284" on="0"/>
        <pt x="228" y="248" on="0"/>
        <pt x="218" y="212" on="1"/>
        <pt x="193" y="119" on="1"/>
        <pt x="177" y="61" on="0"/>
        <pt x="103" y="-7" on="0"/>
        <pt x="11" y="-7" on="0"/>
        <pt x="11" y="28" on="1"/>
        <pt x="11" y="64" on="0"/>
        <pt x="57" y="64" on="1"/>
        <pt x="79" y="64" on="0"/>
        <pt x="113" y="105" on="0"/>
        <pt x="118" y="121" on="1"/>
        <pt x="146" y="223" on="1"/>
        <pt x="160" y="272" on="0"/>
        <pt x="196" y="304" on="1"/>
        <pt x="90" y="346" on="0"/>
        <pt x="90" y="460" on="1"/>
        <pt x="90" y="509" on="0"/>
        <pt x="129" y="580" on="0"/>
        <pt x="199" y="619" on="0"/>
        <pt x="279" y="636" on="0"/>
        <pt x="327" y="636" on="1"/>
        <pt x="511" y="636" on="1"/>
        <pt x="545" y="636" on="0"/>
        <pt x="545" y="591" on="1"/>
        <pt x="545" y="33" on="1"/>
        <pt x="545" y="-7" on="0"/>
      </contour>
    </TTGlyph>
    <TTGlyph name="IUcyrillic" xMin="84" yMin="-9" xMax="703" yMax="645">
      <contour>
        <pt x="457" y="573" on="1"/>
        <pt x="371" y="573" on="0"/>
        <pt x="275" y="483" on="0"/>
        <pt x="275" y="403" on="1"/>
        <pt x="275" y="233" on="1"/>
        <pt x="275" y="152" on="0"/>
        <pt x="371" y="63" on="0"/>
        <pt x="457" y="63" on="1"/>
        <pt x="542" y="63" on="0"/>
        <pt x="631" y="152" on="0"/>
        <pt x="631" y="233" on="1"/>
        <pt x="631" y="403" on="1"/>
        <pt x="631" y="484" on="0"/>
        <pt x="542" y="573" on="0"/>
      </contour>
      <contour>
        <pt x="457" y="-9" on="1"/>
        <pt x="344" y="-9" on="0"/>
        <pt x="200" y="119" on="0"/>
        <pt x="200" y="230" on="1"/>
        <pt x="200" y="287" on="1"/>
        <pt x="156" y="287" on="1"/>
        <pt x="156" y="32" on="1"/>
        <pt x="156" y="-7" on="0"/>
        <pt x="119" y="-7" on="1"/>
        <pt x="84" y="-7" on="0"/>
        <pt x="84" y="33" on="1"/>
        <pt x="84" y="602" on="1"/>
        <pt x="84" y="643" on="0"/>
        <pt x="120" y="643" on="1"/>
        <pt x="134" y="643" on="0"/>
        <pt x="156" y="624" on="0"/>
        <pt x="156" y="603" on="1"/>
        <pt x="156" y="359" on="1"/>
        <pt x="200" y="359" on="1"/>
        <pt x="200" y="406" on="1"/>
        <pt x="200" y="517" on="0"/>
        <pt x="344" y="645" on="0"/>
        <pt x="457" y="645" on="1"/>
        <pt x="565" y="645" on="0"/>
        <pt x="703" y="517" on="0"/>
        <pt x="703" y="406" on="1"/>
        <pt x="703" y="230" on="1"/>
        <pt x="703" y="119" on="0"/>
        <pt x="565" y="-9" on="0"/>
      </contour>
    </TTGlyph>
    <TTGlyph name="Iacute" xMin="84" yMin="-7" xMax="237" yMax="819">
      <component glyphName="acutecomb" x="470" y="178" flags="0x1004"/>
      <component glyphName="I" x="0" y="0" flags="0x1204"/>
    </TTGlyph>
    <TTGlyph name="Icircumflex" xMin="-30" yMin="-7" xMax="273" yMax="819">
      <component glyphName="uni0302" x="423" y="141" flags="0x1004"/>
      <component glyphName="I" x="0" y="0" flags="0x1204"/>
    </TTGlyph>
    <TTGlyph name="Icyrillic" xMin="84" yMin="-7" xMax="156" yMax="643">
      <component glyphName="I" x="0" y="0" flags="0x1004"/>
    </TTGlyph>
    <TTGlyph name="Idieresis" xMin="-26" yMin="-7" xMax="266" yMax="808">
      <component glyphName="dieresis" x="-76" y="127" flags="0x1004"/>
      <component glyphName="I" x="0" y="0" flags="0x1204"/>
    </TTGlyph>
    <TTGlyph name="Idotaccent" xMin="59" yMin="-7" xMax="181" yMax="793">
      <contour>
        <pt x="156" y="33" on="1"/>
        <pt x="156" y="-7" on="0"/>
        <pt x="119" y="-7" on="1"/>
        <pt x="84" y="-7" on="0"/>
        <pt x="84" y="33" on="1"/>
        <pt x="84" y="602" on="1"/>
        <pt x="84" y="643" on="0"/>
        <pt x="156" y="643" on="0"/>
        <pt x="156" y="602" on="1"/>
      </contour>
      <contour>
        <pt x="120" y="691" on="1"/>
        <pt x="98" y="691" on="0"/>
        <pt x="59" y="720" on="0"/>
        <pt x="59" y="764" on="0"/>
        <pt x="100" y="793" on="0"/>
        <pt x="140" y="793" on="0"/>
        <pt x="181" y="764" on="0"/>
        <pt x="181" y="720" on="0"/>
        <pt x="140" y="691" on="0"/>
      </contour>
    </TTGlyph>
    <TTGlyph name="Ie.ukran" xMin="71" yMin="0" xMax="575" yMax="636">
      <contour>
        <pt x="465" y="636" on="1"/>
        <pt x="530" y="636" on="0"/>
        <pt x="575" y="570" on="0"/>
        <pt x="575" y="515" on="1"/>
        <pt x="575" y="469" on="0"/>
        <pt x="539" y="469" on="1"/>
        <pt x="525" y="469" on="0"/>
        <pt x="503" y="489" on="0"/>
        <pt x="503" y="512" on="1"/>
        <pt x="503" y="542" on="0"/>
        <pt x="485" y="564" on="0"/>
        <pt x="458" y="564" on="1"/>
        <pt x="324" y="564" on="1"/>
        <pt x="213" y="564" on="0"/>
        <pt x="143" y="526" on="0"/>
        <pt x="143" y="455" on="1"/>
        <pt x="143" y="369" on="1"/>
        <pt x="412" y="369" on="1"/>
        <pt x="457" y="369" on="0"/>
        <pt x="457" y="335" on="1"/>
        <pt x="457" y="297" on="0"/>
        <pt x="412" y="297" on="1"/>
        <pt x="143" y="297" on="1"/>
        <pt x="143" y="184" on="1"/>
        <pt x="143" y="111" on="0"/>
        <pt x="214" y="72" on="0"/>
        <pt x="324" y="72" on="1"/>
        <pt x="458" y="72" on="1"/>
        <pt x="485" y="72" on="0"/>
        <pt x="503" y="94" on="0"/>
        <pt x="503" y="124" on="1"/>
        <pt x="503" y="147" on="0"/>
        <pt x="525" y="167" on="0"/>
        <pt x="539" y="167" on="1"/>
        <pt x="575" y="167" on="0"/>
        <pt x="575" y="122" on="1"/>
        <pt x="575" y="67" on="0"/>
        <pt x="530" y="0" on="0"/>
        <pt x="465" y="0" on="1"/>
        <pt x="324" y="0" on="1"/>
        <pt x="190" y="0" on="0"/>
        <pt x="71" y="74" on="0"/>
        <pt x="71" y="181" on="1"/>
        <pt x="71" y="455" on="1"/>
        <pt x="71" y="562" on="0"/>
        <pt x="190" y="636" on="0"/>
        <pt x="324" y="636" on="1"/>
      </contour>
    </TTGlyph>
    <TTGlyph name="Iecyrillic" xMin="84" yMin="0" xMax="588" yMax="636">
      <component glyphName="E" x="0" y="0" flags="0x1004"/>
    </TTGlyph>
    <TTGlyph name="Igrave" xMin="4" yMin="-7" xMax="156" yMax="819">
      <component glyphName="gravecomb" x="389" y="178" flags="0x1004"/>
      <component glyphName="I" x="0" y="0" flags="0x1204"/>
    </TTGlyph>
    <TTGlyph name="Iicyrillic" xMin="84" yMin="-7" xMax="588" yMax="643">
      <contour>
        <pt x="119" y="-7" on="1"/>
        <pt x="84" y="-7" on="0"/>
        <pt x="84" y="35" on="1"/>
        <pt x="84" y="600" on="1"/>
        <pt x="84" y="643" on="0"/>
        <pt x="121" y="643" on="1"/>
        <pt x="156" y="643" on="0"/>
        <pt x="156" y="597" on="1"/>
        <pt x="156" y="118" on="1"/>
        <pt x="516" y="620" on="1"/>
        <pt x="532" y="643" on="0"/>
        <pt x="554" y="643" on="1"/>
        <pt x="588" y="643" on="0"/>
        <pt x="588" y="600" on="1"/>
        <pt x="588" y="35" on="1"/>
        <pt x="588" y="-7" on="0"/>
        <pt x="516" y="-7" on="0"/>
        <pt x="516" y="32" on="1"/>
        <pt x="516" y="517" on="1"/>
        <pt x="160" y="18" on="1"/>
        <pt x="149" y="2" on="0"/>
        <pt x="134" y="-7" on="0"/>
      </contour>
    </TTGlyph>
    <TTGlyph name="Iicyrillic_grave" xMin="84" yMin="-7" xMax="588" yMax="819">
      <component glyphName="grave" x="201" y="126" flags="0x1004"/>
      <component glyphName="Iicyrillic" x="0" y="0" flags="0x1204"/>
    </TTGlyph>
    <TTGlyph name="Iishortcyrillic" xMin="84" yMin="-7" xMax="588" yMax="795">
      <contour>
        <pt x="119" y="-7" on="1"/>
        <pt x="84" y="-7" on="0"/>
        <pt x="84" y="35" on="1"/>
        <pt x="84" y="600" on="1"/>
        <pt x="84" y="643" on="0"/>
        <pt x="121" y="643" on="1"/>
        <pt x="156" y="643" on="0"/>
        <pt x="156" y="597" on="1"/>
        <pt x="156" y="118" on="1"/>
        <pt x="516" y="620" on="1"/>
        <pt x="532" y="643" on="0"/>
        <pt x="554" y="643" on="1"/>
        <pt x="588" y="643" on="0"/>
        <pt x="588" y="600" on="1"/>
        <pt x="588" y="35" on="1"/>
        <pt x="588" y="-7" on="0"/>
        <pt x="516" y="-7" on="0"/>
        <pt x="516" y="32" on="1"/>
        <pt x="516" y="517" on="1"/>
        <pt x="160" y="18" on="1"/>
        <pt x="149" y="2" on="0"/>
        <pt x="134" y="-7" on="0"/>
      </contour>
      <contour>
        <pt x="274" y="631" on="1"/>
        <pt x="216" y="631" on="0"/>
        <pt x="173" y="690" on="0"/>
        <pt x="173" y="758" on="1"/>
        <pt x="173" y="795" on="1"/>
        <pt x="245" y="795" on="1"/>
        <pt x="245" y="742" on="1"/>
        <pt x="245" y="717" on="0"/>
        <pt x="258" y="703" on="0"/>
        <pt x="282" y="703" on="1"/>
        <pt x="384" y="703" on="1"/>
        <pt x="407" y="703" on="0"/>
        <pt x="420" y="717" on="0"/>
        <pt x="420" y="742" on="1"/>
        <pt x="420" y="795" on="1"/>
        <pt x="492" y="795" on="1"/>
        <pt x="492" y="758" on="1"/>
        <pt x="492" y="690" on="0"/>
        <pt x="450" y="631" on="0"/>
        <pt x="391" y="631" on="1"/>
      </contour>
    </TTGlyph>
    <TTGlyph name="Imacron" xMin="-45" yMin="-7" xMax="285" yMax="779">
      <contour>
        <pt x="241" y="779" on="1"/>
        <pt x="285" y="779" on="0"/>
        <pt x="285" y="741" on="1"/>
        <pt x="285" y="725" on="0"/>
        <pt x="260" y="706" on="0"/>
        <pt x="241" y="706" on="1"/>
        <pt x="-4" y="706" on="1"/>
        <pt x="-45" y="706" on="0"/>
        <pt x="-45" y="743" on="1"/>
        <pt x="-45" y="756" on="0"/>
        <pt x="-26" y="779" on="0"/>
        <pt x="-4" y="779" on="1"/>
      </contour>
      <contour>
        <pt x="156" y="33" on="1"/>
        <pt x="156" y="-7" on="0"/>
        <pt x="119" y="-7" on="1"/>
        <pt x="84" y="-7" on="0"/>
        <pt x="84" y="33" on="1"/>
        <pt x="84" y="602" on="1"/>
        <pt x="84" y="643" on="0"/>
        <pt x="156" y="643" on="0"/>
        <pt x="156" y="602" on="1"/>
      </contour>
    </TTGlyph>
    <TTGlyph name="Iocyrillic" xMin="84" yMin="0" xMax="588" yMax="808">
      <component glyphName="Edieresis" x="0" y="0" flags="0x1004"/>
    </TTGlyph>
    <TTGlyph name="Iogonek" xMin="4" yMin="-205" xMax="199" yMax="643">
      <contour>
        <pt x="76" y="-91" on="1"/>
        <pt x="76" y="-135" on="0"/>
        <pt x="108" y="-135" on="1"/>
        <pt x="122" y="-135" on="0"/>
        <pt x="167" y="-118" on="0"/>
        <pt x="174" y="-118" on="1"/>
        <pt x="199" y="-118" on="0"/>
        <pt x="199" y="-145" on="1"/>
        <pt x="199" y="-167" on="0"/>
        <pt x="164" y="-196" on="0"/>
        <pt x="127" y="-205" on="0"/>
        <pt x="110" y="-205" on="1"/>
        <pt x="64" y="-205" on="0"/>
        <pt x="4" y="-142" on="0"/>
        <pt x="4" y="-40" on="0"/>
        <pt x="90" y="47" on="1"/>
        <pt x="90" y="602" on="1"/>
        <pt x="90" y="643" on="0"/>
        <pt x="162" y="643" on="0"/>
        <pt x="162" y="602" on="1"/>
        <pt x="162" y="33" on="1"/>
        <pt x="162" y="4" on="0"/>
        <pt x="142" y="-4" on="1"/>
        <pt x="118" y="-20" on="0"/>
        <pt x="86" y="-62" on="0"/>
        <pt x="76" y="-86" on="0"/>
      </contour>
    </TTGlyph>
    <TTGlyph name="Iota" xMin="84" yMin="-7" xMax="156" yMax="643">
      <component glyphName="I" x="0" y="0" flags="0x1004"/>
    </TTGlyph>
    <TTGlyph name="Iotadieresis" xMin="-26" yMin="-7" xMax="266" yMax="808">
      <component glyphName="Idieresis" x="0" y="0" flags="0x1004"/>
    </TTGlyph>
    <TTGlyph name="Iotatonos" xMin="10" yMin="-7" xMax="203" yMax="793">
      <component glyphName="tonos" x="-60" y="102" flags="0x1004"/>
      <component glyphName="Iota" x="47" y="0" flags="0x1004"/>
    </TTGlyph>
    <TTGlyph name="Itilde" xMin="-31" yMin="-7" xMax="270" yMax="823">
      <contour>
        <pt x="72" y="744" on="1"/>
        <pt x="68" y="746" on="0"/>
        <pt x="64" y="746" on="0"/>
        <pt x="61" y="743" on="1"/>
        <pt x="32" y="717" on="1"/>
        <pt x="21" y="706" on="0"/>
        <pt x="4" y="706" on="1"/>
        <pt x="-8" y="706" on="0"/>
        <pt x="-31" y="725" on="0"/>
        <pt x="-31" y="740" on="1"/>
        <pt x="-31" y="759" on="0"/>
        <pt x="-13" y="774" on="1"/>
        <pt x="32" y="812" on="1"/>
        <pt x="45" y="823" on="0"/>
        <pt x="58" y="823" on="1"/>
        <pt x="68" y="823" on="0"/>
        <pt x="81" y="818" on="1"/>
        <pt x="168" y="785" on="1"/>
        <pt x="172" y="783" on="0"/>
        <pt x="174" y="783" on="1"/>
        <pt x="175" y="783" on="0"/>
        <pt x="178" y="786" on="1"/>
        <pt x="208" y="812" on="1"/>
        <pt x="219" y="823" on="0"/>
        <pt x="236" y="823" on="1"/>
        <pt x="248" y="823" on="0"/>
        <pt x="270" y="804" on="0"/>
        <pt x="270" y="789" on="1"/>
        <pt x="270" y="768" on="0"/>
        <pt x="252" y="755" on="1"/>
        <pt x="208" y="717" on="1"/>
        <pt x="193" y="706" on="0"/>
        <pt x="171" y="706" on="0"/>
        <pt x="158" y="711" on="1"/>
      </contour>
      <contour>
        <pt x="156" y="33" on="1"/>
        <pt x="156" y="-7" on="0"/>
        <pt x="119" y="-7" on="1"/>
        <pt x="84" y="-7" on="0"/>
        <pt x="84" y="33" on="1"/>
        <pt x="84" y="602" on="1"/>
        <pt x="84" y="643" on="0"/>
        <pt x="156" y="643" on="0"/>
        <pt x="156" y="602" on="1"/>
      </contour>
    </TTGlyph>
    <TTGlyph name="J" xMin="33" yMin="-8" xMax="510" yMax="643">
      <contour>
        <pt x="272" y="64" on="1"/>
        <pt x="371" y="64" on="0"/>
        <pt x="438" y="104" on="0"/>
        <pt x="438" y="176" on="1"/>
        <pt x="438" y="603" on="1"/>
        <pt x="438" y="624" on="0"/>
        <pt x="460" y="643" on="0"/>
        <pt x="474" y="643" on="1"/>
        <pt x="510" y="643" on="0"/>
        <pt x="510" y="602" on="1"/>
        <pt x="510" y="173" on="1"/>
        <pt x="510" y="66" on="0"/>
        <pt x="396" y="-8" on="0"/>
        <pt x="272" y="-8" on="1"/>
        <pt x="210" y="-8" on="0"/>
        <pt x="129" y="6" on="0"/>
        <pt x="63" y="46" on="0"/>
        <pt x="33" y="123" on="0"/>
        <pt x="33" y="182" on="1"/>
        <pt x="33" y="225" on="0"/>
        <pt x="71" y="225" on="1"/>
        <pt x="87" y="225" on="0"/>
        <pt x="106" y="201" on="0"/>
        <pt x="106" y="182" on="1"/>
        <pt x="106" y="105" on="0"/>
        <pt x="172" y="64" on="0"/>
      </contour>
    </TTGlyph>
    <TTGlyph name="Jcircumflex" xMin="33" yMin="-8" xMax="605" yMax="820">
      <contour>
        <pt x="272" y="64" on="1"/>
        <pt x="371" y="64" on="0"/>
        <pt x="438" y="104" on="0"/>
        <pt x="438" y="176" on="1"/>
        <pt x="438" y="603" on="1"/>
        <pt x="438" y="624" on="0"/>
        <pt x="460" y="643" on="0"/>
        <pt x="474" y="643" on="1"/>
        <pt x="510" y="643" on="0"/>
        <pt x="510" y="602" on="1"/>
        <pt x="510" y="173" on="1"/>
        <pt x="510" y="66" on="0"/>
        <pt x="396" y="-8" on="0"/>
        <pt x="272" y="-8" on="1"/>
        <pt x="210" y="-8" on="0"/>
        <pt x="129" y="6" on="0"/>
        <pt x="63" y="46" on="0"/>
        <pt x="33" y="123" on="0"/>
        <pt x="33" y="182" on="1"/>
        <pt x="33" y="225" on="0"/>
        <pt x="71" y="225" on="1"/>
        <pt x="87" y="225" on="0"/>
        <pt x="106" y="201" on="0"/>
        <pt x="106" y="182" on="1"/>
        <pt x="106" y="105" on="0"/>
        <pt x="172" y="64" on="0"/>
      </contour>
      <contour>
        <pt x="310" y="704" on="1"/>
        <pt x="419" y="820" on="1"/>
        <pt x="486" y="820" on="1"/>
        <pt x="597" y="704" on="1"/>
        <pt x="605" y="694" on="0"/>
        <pt x="605" y="680" on="1"/>
        <pt x="605" y="652" on="0"/>
        <pt x="572" y="652" on="1"/>
        <pt x="565" y="652" on="0"/>
        <pt x="553" y="656" on="0"/>
        <pt x="548" y="660" on="0"/>
        <pt x="542" y="665" on="1"/>
        <pt x="537" y="670" on="1"/>
        <pt x="453" y="739" on="1"/>
        <pt x="370" y="670" on="1"/>
        <pt x="368" y="669" on="0"/>
        <pt x="360" y="661" on="0"/>
        <pt x="354" y="656" on="0"/>
        <pt x="342" y="652" on="0"/>
        <pt x="335" y="652" on="1"/>
        <pt x="302" y="652" on="0"/>
        <pt x="302" y="680" on="1"/>
        <pt x="302" y="694" on="0"/>
      </contour>
    </TTGlyph>
    <TTGlyph name="Jecyrillic" xMin="33" yMin="-8" xMax="510" yMax="643">
      <component glyphName="J" x="0" y="0" flags="0x1004"/>
    </TTGlyph>
    <TTGlyph name="K" xMin="84" yMin="-7" xMax="554" yMax="643">
      <contour>
        <pt x="554" y="27" on="1"/>
        <pt x="554" y="13" on="0"/>
        <pt x="530" y="-7" on="0"/>
        <pt x="518" y="-7" on="1"/>
        <pt x="501" y="-7" on="0"/>
        <pt x="485" y="12" on="1"/>
        <pt x="199" y="316" on="1"/>
        <pt x="156" y="264" on="1"/>
        <pt x="156" y="35" on="1"/>
        <pt x="156" y="-7" on="0"/>
        <pt x="119" y="-7" on="1"/>
        <pt x="84" y="-7" on="0"/>
        <pt x="84" y="33" on="1"/>
        <pt x="84" y="602" on="1"/>
        <pt x="84" y="643" on="0"/>
        <pt x="120" y="643" on="1"/>
        <pt x="134" y="643" on="0"/>
        <pt x="156" y="623" on="0"/>
        <pt x="156" y="600" on="1"/>
        <pt x="156" y="346" on="1"/>
        <pt x="419" y="624" on="1"/>
        <pt x="436" y="643" on="0"/>
        <pt x="452" y="643" on="1"/>
        <pt x="465" y="643" on="0"/>
        <pt x="487" y="624" on="0"/>
        <pt x="487" y="610" on="1"/>
        <pt x="487" y="595" on="0"/>
        <pt x="475" y="581" on="1"/>
        <pt x="251" y="354" on="1"/>
        <pt x="541" y="55" on="1"/>
        <pt x="554" y="40" on="0"/>
      </contour>
    </TTGlyph>
    <TTGlyph name="Kacyrillic" xMin="84" yMin="-7" xMax="574" yMax="614">
      <contour>
        <pt x="239" y="260" on="1"/>
        <pt x="156" y="260" on="1"/>
        <pt x="156" y="33" on="1"/>
        <pt x="156" y="15" on="0"/>
        <pt x="136" y="-7" on="0"/>
        <pt x="119" y="-7" on="1"/>
        <pt x="101" y="-7" on="0"/>
        <pt x="84" y="17" on="0"/>
        <pt x="84" y="33" on="1"/>
        <pt x="84" y="570" on="1"/>
        <pt x="84" y="589" on="0"/>
        <pt x="104" y="613" on="0"/>
        <pt x="120" y="613" on="1"/>
        <pt x="156" y="613" on="0"/>
        <pt x="156" y="570" on="1"/>
        <pt x="156" y="332" on="1"/>
        <pt x="242" y="332" on="1"/>
        <pt x="259" y="332" on="0"/>
        <pt x="306" y="390" on="0"/>
        <pt x="357" y="473" on="0"/>
        <pt x="415" y="556" on="0"/>
        <pt x="490" y="614" on="0"/>
        <pt x="528" y="614" on="1"/>
        <pt x="548" y="614" on="0"/>
        <pt x="574" y="596" on="0"/>
        <pt x="574" y="578" on="1"/>
        <pt x="574" y="542" on="0"/>
        <pt x="528" y="542" on="1"/>
        <pt x="508" y="542" on="0"/>
        <pt x="460" y="486" on="0"/>
        <pt x="419" y="413" on="0"/>
        <pt x="356" y="323" on="0"/>
        <pt x="326" y="297" on="1"/>
        <pt x="358" y="270" on="0"/>
        <pt x="424" y="184" on="0"/>
        <pt x="464" y="116" on="0"/>
        <pt x="510" y="65" on="0"/>
        <pt x="528" y="65" on="1"/>
        <pt x="548" y="65" on="0"/>
        <pt x="574" y="46" on="0"/>
        <pt x="574" y="29" on="1"/>
        <pt x="574" y="-7" on="0"/>
        <pt x="528" y="-7" on="1"/>
        <pt x="489" y="-7" on="0"/>
        <pt x="414" y="48" on="0"/>
        <pt x="357" y="127" on="0"/>
        <pt x="306" y="205" on="0"/>
        <pt x="258" y="260" on="0"/>
      </contour>
    </TTGlyph>
    <TTGlyph name="Kappa" xMin="84" yMin="-7" xMax="554" yMax="643">
      <component glyphName="K" x="0" y="0" flags="0x1004"/>
    </TTGlyph>
    <TTGlyph name="Kcommaaccent" xMin="84" yMin="-171" xMax="554" yMax="643">
      <contour>
        <pt x="328" y="-141" on="1"/>
        <pt x="315" y="-171" on="0"/>
        <pt x="294" y="-171" on="1"/>
        <pt x="262" y="-171" on="0"/>
        <pt x="262" y="-136" on="1"/>
        <pt x="262" y="-136" on="0"/>
        <pt x="265" y="-118" on="1"/>
        <pt x="289" y="-31" on="1"/>
        <pt x="298" y="0" on="0"/>
        <pt x="324" y="0" on="1"/>
        <pt x="331" y="0" on="0"/>
        <pt x="352" y="-4" on="0"/>
        <pt x="375" y="-21" on="0"/>
        <pt x="375" y="-35" on="1"/>
        <pt x="375" y="-44" on="0"/>
        <pt x="368" y="-58" on="1"/>
      </contour>
      <contour>
        <pt x="554" y="27" on="1"/>
        <pt x="554" y="13" on="0"/>
        <pt x="530" y="-7" on="0"/>
        <pt x="518" y="-7" on="1"/>
        <pt x="501" y="-7" on="0"/>
        <pt x="485" y="12" on="1"/>
        <pt x="199" y="316" on="1"/>
        <pt x="156" y="264" on="1"/>
        <pt x="156" y="35" on="1"/>
        <pt x="156" y="-7" on="0"/>
        <pt x="119" y="-7" on="1"/>
        <pt x="84" y="-7" on="0"/>
        <pt x="84" y="33" on="1"/>
        <pt x="84" y="602" on="1"/>
        <pt x="84" y="643" on="0"/>
        <pt x="120" y="643" on="1"/>
        <pt x="134" y="643" on="0"/>
        <pt x="156" y="623" on="0"/>
        <pt x="156" y="600" on="1"/>
        <pt x="156" y="346" on="1"/>
        <pt x="419" y="624" on="1"/>
        <pt x="436" y="643" on="0"/>
        <pt x="452" y="643" on="1"/>
        <pt x="465" y="643" on="0"/>
        <pt x="487" y="624" on="0"/>
        <pt x="487" y="610" on="1"/>
        <pt x="487" y="595" on="0"/>
        <pt x="475" y="581" on="1"/>
        <pt x="251" y="354" on="1"/>
        <pt x="541" y="55" on="1"/>
        <pt x="554" y="40" on="0"/>
      </contour>
    </TTGlyph>
    <TTGlyph name="Khacyrillic" xMin="39" yMin="-7" xMax="566" yMax="643">
      <component glyphName="X" x="0" y="0" flags="0x1004"/>
    </TTGlyph>
    <TTGlyph name="Kjecyrillic" xMin="84" yMin="-7" xMax="574" yMax="777">
      <component glyphName="acute" x="214" y="84" flags="0x1004"/>
      <component glyphName="Kacyrillic" x="0" y="0" flags="0x1204"/>
    </TTGlyph>
    <TTGlyph name="L" xMin="84" yMin="0" xMax="532" yMax="643">
      <contour>
        <pt x="118" y="0" on="1"/>
        <pt x="84" y="0" on="0"/>
        <pt x="84" y="43" on="1"/>
        <pt x="84" y="603" on="1"/>
        <pt x="84" y="624" on="0"/>
        <pt x="106" y="643" on="0"/>
        <pt x="134" y="643" on="0"/>
        <pt x="156" y="624" on="0"/>
        <pt x="156" y="603" on="1"/>
        <pt x="156" y="72" on="1"/>
        <pt x="489" y="72" on="1"/>
        <pt x="532" y="72" on="0"/>
        <pt x="532" y="35" on="1"/>
        <pt x="532" y="0" on="0"/>
        <pt x="489" y="0" on="1"/>
      </contour>
    </TTGlyph>
    <TTGlyph name="Lacute" xMin="80" yMin="0" xMax="532" yMax="820">
      <contour>
        <pt x="118" y="0" on="1"/>
        <pt x="84" y="0" on="0"/>
        <pt x="84" y="43" on="1"/>
        <pt x="84" y="603" on="1"/>
        <pt x="84" y="624" on="0"/>
        <pt x="106" y="643" on="0"/>
        <pt x="134" y="643" on="0"/>
        <pt x="156" y="624" on="0"/>
        <pt x="156" y="603" on="1"/>
        <pt x="156" y="72" on="1"/>
        <pt x="489" y="72" on="1"/>
        <pt x="532" y="72" on="0"/>
        <pt x="532" y="35" on="1"/>
        <pt x="532" y="0" on="0"/>
        <pt x="489" y="0" on="1"/>
      </contour>
      <contour>
        <pt x="196" y="820" on="1"/>
        <pt x="209" y="820" on="0"/>
        <pt x="232" y="798" on="0"/>
        <pt x="232" y="785" on="1"/>
        <pt x="232" y="771" on="0"/>
        <pt x="217" y="754" on="1"/>
        <pt x="148" y="686" on="1"/>
        <pt x="133" y="669" on="0"/>
        <pt x="115" y="669" on="1"/>
        <pt x="100" y="669" on="0"/>
        <pt x="80" y="691" on="0"/>
        <pt x="80" y="703" on="1"/>
        <pt x="80" y="718" on="0"/>
        <pt x="94" y="734" on="1"/>
        <pt x="164" y="804" on="1"/>
        <pt x="181" y="820" on="0"/>
      </contour>
    </TTGlyph>
    <TTGlyph name="Lambda" xMin="23" yMin="-16" xMax="585" yMax="636">
      <contour>
        <pt x="23" y="4" on="1"/>
        <pt x="23" y="19" on="0"/>
        <pt x="26" y="28" on="1"/>
        <pt x="267" y="636" on="1"/>
        <pt x="341" y="636" on="1"/>
        <pt x="582" y="28" on="1"/>
        <pt x="585" y="19" on="0"/>
        <pt x="585" y="4" on="1"/>
        <pt x="585" y="-16" on="0"/>
        <pt x="549" y="-16" on="1"/>
        <pt x="535" y="-16" on="0"/>
        <pt x="514" y="-2" on="0"/>
        <pt x="512" y="4" on="1"/>
        <pt x="303" y="527" on="1"/>
        <pt x="96" y="4" on="1"/>
        <pt x="88" y="-16" on="0"/>
        <pt x="59" y="-16" on="1"/>
        <pt x="23" y="-16" on="0"/>
      </contour>
    </TTGlyph>
    <TTGlyph name="Lcaron" xMin="84" yMin="0" xMax="532" yMax="660">
      <contour>
        <pt x="118" y="0" on="1"/>
        <pt x="84" y="0" on="0"/>
        <pt x="84" y="43" on="1"/>
        <pt x="84" y="603" on="1"/>
        <pt x="84" y="624" on="0"/>
        <pt x="106" y="643" on="0"/>
        <pt x="134" y="643" on="0"/>
        <pt x="156" y="624" on="0"/>
        <pt x="156" y="603" on="1"/>
        <pt x="156" y="72" on="1"/>
        <pt x="489" y="72" on="1"/>
        <pt x="532" y="72" on="0"/>
        <pt x="532" y="35" on="1"/>
        <pt x="532" y="0" on="0"/>
        <pt x="489" y="0" on="1"/>
      </contour>
      <contour>
        <pt x="276" y="519" on="1"/>
        <pt x="263" y="489" on="0"/>
        <pt x="242" y="489" on="1"/>
        <pt x="210" y="489" on="0"/>
        <pt x="210" y="524" on="1"/>
        <pt x="213" y="542" on="1"/>
        <pt x="237" y="629" on="1"/>
        <pt x="246" y="660" on="0"/>
        <pt x="272" y="660" on="1"/>
        <pt x="279" y="660" on="0"/>
        <pt x="300" y="656" on="0"/>
        <pt x="323" y="639" on="0"/>
        <pt x="323" y="625" on="1"/>
        <pt x="323" y="616" on="0"/>
        <pt x="316" y="602" on="1"/>
      </contour>
    </TTGlyph>
    <TTGlyph name="Lcommaaccent" xMin="84" yMin="-205" xMax="532" yMax="643">
      <contour>
        <pt x="313" y="-175" on="1"/>
        <pt x="300" y="-205" on="0"/>
        <pt x="279" y="-205" on="1"/>
        <pt x="247" y="-205" on="0"/>
        <pt x="247" y="-170" on="1"/>
        <pt x="247" y="-170" on="0"/>
        <pt x="250" y="-152" on="1"/>
        <pt x="274" y="-65" on="1"/>
        <pt x="283" y="-34" on="0"/>
        <pt x="309" y="-34" on="1"/>
        <pt x="316" y="-34" on="0"/>
        <pt x="337" y="-38" on="0"/>
        <pt x="360" y="-55" on="0"/>
        <pt x="360" y="-69" on="1"/>
        <pt x="360" y="-78" on="0"/>
        <pt x="353" y="-92" on="1"/>
      </contour>
      <contour>
        <pt x="118" y="0" on="1"/>
        <pt x="84" y="0" on="0"/>
        <pt x="84" y="43" on="1"/>
        <pt x="84" y="603" on="1"/>
        <pt x="84" y="624" on="0"/>
        <pt x="106" y="643" on="0"/>
        <pt x="134" y="643" on="0"/>
        <pt x="156" y="624" on="0"/>
        <pt x="156" y="603" on="1"/>
        <pt x="156" y="72" on="1"/>
        <pt x="489" y="72" on="1"/>
        <pt x="532" y="72" on="0"/>
        <pt x="532" y="35" on="1"/>
        <pt x="532" y="0" on="0"/>
        <pt x="489" y="0" on="1"/>
      </contour>
    </TTGlyph>
    <TTGlyph name="Ljecyrillic" xMin="22" yMin="-7" xMax="908" yMax="636">
      <contour>
        <pt x="674" y="344" on="1"/>
        <pt x="530" y="344" on="1"/>
        <pt x="530" y="65" on="1"/>
        <pt x="677" y="65" on="1"/>
        <pt x="757" y="65" on="0"/>
        <pt x="836" y="140" on="0"/>
        <pt x="836" y="204" on="1"/>
        <pt x="836" y="269" on="0"/>
        <pt x="756" y="344" on="0"/>
      </contour>
      <contour>
        <pt x="530" y="416" on="1"/>
        <pt x="674" y="416" on="1"/>
        <pt x="781" y="416" on="0"/>
        <pt x="908" y="300" on="0"/>
        <pt x="908" y="204" on="1"/>
        <pt x="908" y="109" on="0"/>
        <pt x="782" y="-7" on="0"/>
        <pt x="677" y="-7" on="1"/>
        <pt x="497" y="-7" on="1"/>
        <pt x="482" y="-7" on="0"/>
        <pt x="458" y="14" on="0"/>
        <pt x="458" y="36" on="1"/>
        <pt x="458" y="564" on="1"/>
        <pt x="260" y="564" on="1"/>
        <pt x="221" y="564" on="0"/>
        <pt x="187" y="543" on="0"/>
        <pt x="187" y="517" on="1"/>
        <pt x="187" y="133" on="1"/>
        <pt x="187" y="51" on="0"/>
        <pt x="125" y="0" on="0"/>
        <pt x="68" y="0" on="1"/>
        <pt x="22" y="0" on="0"/>
        <pt x="22" y="36" on="1"/>
        <pt x="22" y="49" on="0"/>
        <pt x="43" y="69" on="0"/>
        <pt x="68" y="69" on="1"/>
        <pt x="95" y="69" on="0"/>
        <pt x="115" y="88" on="0"/>
        <pt x="115" y="115" on="1"/>
        <pt x="115" y="503" on="1"/>
        <pt x="115" y="577" on="0"/>
        <pt x="170" y="636" on="0"/>
        <pt x="253" y="636" on="1"/>
        <pt x="530" y="636" on="1"/>
      </contour>
    </TTGlyph>
    <TTGlyph name="Lslash" xMin="0" yMin="0" xMax="540" yMax="643">
      <contour>
        <pt x="126" y="0" on="1"/>
        <pt x="92" y="0" on="0"/>
        <pt x="92" y="43" on="1"/>
        <pt x="92" y="290" on="1"/>
        <pt x="55" y="271" on="1"/>
        <pt x="46" y="268" on="0"/>
        <pt x="36" y="268" on="1"/>
        <pt x="17" y="268" on="0"/>
        <pt x="0" y="293" on="0"/>
        <pt x="0" y="306" on="1"/>
        <pt x="0" y="326" on="0"/>
        <pt x="28" y="338" on="1"/>
        <pt x="92" y="370" on="1"/>
        <pt x="92" y="603" on="1"/>
        <pt x="92" y="624" on="0"/>
        <pt x="114" y="643" on="0"/>
        <pt x="142" y="643" on="0"/>
        <pt x="164" y="624" on="0"/>
        <pt x="164" y="603" on="1"/>
        <pt x="164" y="407" on="1"/>
        <pt x="198" y="424" on="1"/>
        <pt x="205" y="428" on="0"/>
        <pt x="219" y="428" on="1"/>
        <pt x="235" y="428" on="0"/>
        <pt x="256" y="407" on="0"/>
        <pt x="256" y="392" on="1"/>
        <pt x="256" y="372" on="0"/>
        <pt x="225" y="356" on="1"/>
        <pt x="164" y="326" on="1"/>
        <pt x="164" y="72" on="1"/>
        <pt x="497" y="72" on="1"/>
        <pt x="540" y="72" on="0"/>
        <pt x="540" y="35" on="1"/>
        <pt x="540" y="0" on="0"/>
        <pt x="497" y="0" on="1"/>
      </contour>
    </TTGlyph>
    <TTGlyph name="M" xMin="84" yMin="-7" xMax="609" yMax="643">
      <contour>
        <pt x="346" y="279" on="1"/>
        <pt x="331" y="279" on="0"/>
        <pt x="319" y="291" on="1"/>
        <pt x="156" y="523" on="1"/>
        <pt x="156" y="38" on="1"/>
        <pt x="156" y="-7" on="0"/>
        <pt x="84" y="-7" on="0"/>
        <pt x="84" y="35" on="1"/>
        <pt x="84" y="600" on="1"/>
        <pt x="84" y="643" on="0"/>
        <pt x="118" y="643" on="1"/>
        <pt x="140" y="643" on="0"/>
        <pt x="156" y="620" on="1"/>
        <pt x="346" y="354" on="1"/>
        <pt x="537" y="620" on="1"/>
        <pt x="553" y="643" on="0"/>
        <pt x="574" y="643" on="1"/>
        <pt x="609" y="643" on="0"/>
        <pt x="609" y="600" on="1"/>
        <pt x="609" y="35" on="1"/>
        <pt x="609" y="-7" on="0"/>
        <pt x="572" y="-7" on="1"/>
        <pt x="537" y="-7" on="0"/>
        <pt x="537" y="38" on="1"/>
        <pt x="537" y="523" on="1"/>
        <pt x="374" y="291" on="1"/>
        <pt x="362" y="279" on="0"/>
      </contour>
    </TTGlyph>
    <TTGlyph name="Mu" xMin="84" yMin="-7" xMax="609" yMax="643">
      <component glyphName="M" x="0" y="0" flags="0x1004"/>
    </TTGlyph>
    <TTGlyph name="N" xMin="84" yMin="-7" xMax="588" yMax="643">
      <contour>
        <pt x="553" y="-7" on="1"/>
        <pt x="530" y="-7" on="0"/>
        <pt x="525" y="0" on="1"/>
        <pt x="156" y="517" on="1"/>
        <pt x="156" y="32" on="1"/>
        <pt x="156" y="-7" on="0"/>
        <pt x="84" y="-7" on="0"/>
        <pt x="84" y="35" on="1"/>
        <pt x="84" y="600" on="1"/>
        <pt x="84" y="643" on="0"/>
        <pt x="118" y="643" on="1"/>
        <pt x="140" y="643" on="0"/>
        <pt x="156" y="620" on="1"/>
        <pt x="516" y="118" on="1"/>
        <pt x="516" y="597" on="1"/>
        <pt x="516" y="643" on="0"/>
        <pt x="551" y="643" on="1"/>
        <pt x="588" y="643" on="0"/>
        <pt x="588" y="600" on="1"/>
        <pt x="588" y="35" on="1"/>
        <pt x="588" y="-7" on="0"/>
      </contour>
    </TTGlyph>
    <TTGlyph name="Nacute" xMin="84" yMin="-7" xMax="588" yMax="819">
      <contour>
        <pt x="553" y="-7" on="1"/>
        <pt x="530" y="-7" on="0"/>
        <pt x="525" y="0" on="1"/>
        <pt x="156" y="517" on="1"/>
        <pt x="156" y="32" on="1"/>
        <pt x="156" y="-7" on="0"/>
        <pt x="84" y="-7" on="0"/>
        <pt x="84" y="35" on="1"/>
        <pt x="84" y="600" on="1"/>
        <pt x="84" y="643" on="0"/>
        <pt x="118" y="643" on="1"/>
        <pt x="140" y="643" on="0"/>
        <pt x="156" y="620" on="1"/>
        <pt x="516" y="118" on="1"/>
        <pt x="516" y="597" on="1"/>
        <pt x="516" y="643" on="0"/>
        <pt x="551" y="643" on="1"/>
        <pt x="588" y="643" on="0"/>
        <pt x="588" y="600" on="1"/>
        <pt x="588" y="35" on="1"/>
        <pt x="588" y="-7" on="0"/>
      </contour>
      <contour>
        <pt x="292" y="621" on="1"/>
        <pt x="280" y="621" on="0"/>
        <pt x="257" y="641" on="0"/>
        <pt x="257" y="656" on="1"/>
        <pt x="257" y="670" on="0"/>
        <pt x="268" y="685" on="1"/>
        <pt x="364" y="800" on="1"/>
        <pt x="381" y="819" on="0"/>
        <pt x="397" y="819" on="1"/>
        <pt x="411" y="819" on="0"/>
        <pt x="432" y="799" on="0"/>
        <pt x="432" y="767" on="0"/>
        <pt x="421" y="755" on="1"/>
        <pt x="325" y="640" on="1"/>
        <pt x="308" y="621" on="0"/>
      </contour>
    </TTGlyph>
    <TTGlyph name="Ncaron" xMin="84" yMin="-7" xMax="588" yMax="801">
      <contour>
        <pt x="553" y="-7" on="1"/>
        <pt x="530" y="-7" on="0"/>
        <pt x="525" y="0" on="1"/>
        <pt x="156" y="517" on="1"/>
        <pt x="156" y="32" on="1"/>
        <pt x="156" y="-7" on="0"/>
        <pt x="84" y="-7" on="0"/>
        <pt x="84" y="35" on="1"/>
        <pt x="84" y="600" on="1"/>
        <pt x="84" y="643" on="0"/>
        <pt x="118" y="643" on="1"/>
        <pt x="140" y="643" on="0"/>
        <pt x="156" y="620" on="1"/>
        <pt x="516" y="118" on="1"/>
        <pt x="516" y="597" on="1"/>
        <pt x="516" y="643" on="0"/>
        <pt x="551" y="643" on="1"/>
        <pt x="588" y="643" on="0"/>
        <pt x="588" y="600" on="1"/>
        <pt x="588" y="35" on="1"/>
        <pt x="588" y="-7" on="0"/>
      </contour>
      <contour>
        <pt x="368" y="637" on="1"/>
        <pt x="304" y="637" on="1"/>
        <pt x="196" y="750" on="1"/>
        <pt x="187" y="759" on="0"/>
        <pt x="187" y="771" on="1"/>
        <pt x="187" y="781" on="0"/>
        <pt x="203" y="801" on="0"/>
        <pt x="220" y="801" on="1"/>
        <pt x="236" y="801" on="0"/>
        <pt x="258" y="782" on="1"/>
        <pt x="336" y="717" on="1"/>
        <pt x="414" y="782" on="1"/>
        <pt x="436" y="801" on="0"/>
        <pt x="452" y="801" on="1"/>
        <pt x="469" y="801" on="0"/>
        <pt x="485" y="781" on="0"/>
        <pt x="485" y="771" on="1"/>
        <pt x="485" y="759" on="0"/>
        <pt x="476" y="750" on="1"/>
      </contour>
    </TTGlyph>
    <TTGlyph name="Ncommaaccent" xMin="84" yMin="-171" xMax="588" yMax="643">
      <contour>
        <pt x="346" y="-141" on="1"/>
        <pt x="333" y="-171" on="0"/>
        <pt x="312" y="-171" on="1"/>
        <pt x="280" y="-171" on="0"/>
        <pt x="280" y="-136" on="1"/>
        <pt x="280" y="-136" on="0"/>
        <pt x="283" y="-118" on="1"/>
        <pt x="307" y="-31" on="1"/>
        <pt x="316" y="0" on="0"/>
        <pt x="342" y="0" on="1"/>
        <pt x="349" y="0" on="0"/>
        <pt x="370" y="-4" on="0"/>
        <pt x="393" y="-21" on="0"/>
        <pt x="393" y="-35" on="1"/>
        <pt x="393" y="-44" on="0"/>
        <pt x="386" y="-58" on="1"/>
      </contour>
      <contour>
        <pt x="553" y="-7" on="1"/>
        <pt x="530" y="-7" on="0"/>
        <pt x="525" y="0" on="1"/>
        <pt x="156" y="517" on="1"/>
        <pt x="156" y="32" on="1"/>
        <pt x="156" y="-7" on="0"/>
        <pt x="84" y="-7" on="0"/>
        <pt x="84" y="35" on="1"/>
        <pt x="84" y="600" on="1"/>
        <pt x="84" y="643" on="0"/>
        <pt x="118" y="643" on="1"/>
        <pt x="140" y="643" on="0"/>
        <pt x="156" y="620" on="1"/>
        <pt x="516" y="118" on="1"/>
        <pt x="516" y="597" on="1"/>
        <pt x="516" y="643" on="0"/>
        <pt x="551" y="643" on="1"/>
        <pt x="588" y="643" on="0"/>
        <pt x="588" y="600" on="1"/>
        <pt x="588" y="35" on="1"/>
        <pt x="588" y="-7" on="0"/>
      </contour>
    </TTGlyph>
    <TTGlyph name="Njecyrillic" xMin="84" yMin="-7" xMax="936" yMax="643">
      <contour>
        <pt x="708" y="344" on="1"/>
        <pt x="574" y="344" on="1"/>
        <pt x="574" y="65" on="1"/>
        <pt x="708" y="65" on="1"/>
        <pt x="786" y="65" on="0"/>
        <pt x="864" y="140" on="0"/>
        <pt x="864" y="268" on="0"/>
        <pt x="786" y="344" on="0"/>
      </contour>
      <contour>
        <pt x="574" y="416" on="1"/>
        <pt x="708" y="416" on="1"/>
        <pt x="812" y="416" on="0"/>
        <pt x="936" y="299" on="0"/>
        <pt x="936" y="109" on="0"/>
        <pt x="812" y="-7" on="0"/>
        <pt x="708" y="-7" on="1"/>
        <pt x="537" y="-7" on="1"/>
        <pt x="520" y="-7" on="0"/>
        <pt x="501" y="18" on="0"/>
        <pt x="501" y="37" on="1"/>
        <pt x="501" y="344" on="1"/>
        <pt x="156" y="344" on="1"/>
        <pt x="156" y="36" on="1"/>
        <pt x="156" y="-7" on="0"/>
        <pt x="84" y="-7" on="0"/>
        <pt x="84" y="35" on="1"/>
        <pt x="84" y="600" on="1"/>
        <pt x="84" y="643" on="0"/>
        <pt x="118" y="643" on="1"/>
        <pt x="156" y="643" on="0"/>
        <pt x="156" y="600" on="1"/>
        <pt x="156" y="416" on="1"/>
        <pt x="501" y="416" on="1"/>
        <pt x="501" y="600" on="1"/>
        <pt x="501" y="643" on="0"/>
        <pt x="536" y="643" on="1"/>
        <pt x="574" y="643" on="0"/>
        <pt x="574" y="600" on="1"/>
      </contour>
    </TTGlyph>
    <TTGlyph name="Ntilde" xMin="84" yMin="-7" xMax="588" yMax="808">
      <component glyphName="tildecomb" x="612" y="212" flags="0x1004"/>
      <component glyphName="N" x="0" y="0" flags="0x1204"/>
    </TTGlyph>
    <TTGlyph name="Nu" xMin="84" yMin="-7" xMax="588" yMax="643">
      <component glyphName="N" x="0" y="0" flags="0x1004"/>
    </TTGlyph>
    <TTGlyph name="O" xMin="64" yMin="-9" xMax="568" yMax="645">
      <contour>
        <pt x="316" y="-9" on="1"/>
        <pt x="202" y="-9" on="0"/>
        <pt x="64" y="118" on="0"/>
        <pt x="64" y="230" on="1"/>
        <pt x="64" y="406" on="1"/>
        <pt x="64" y="518" on="0"/>
        <pt x="202" y="645" on="0"/>
        <pt x="316" y="645" on="1"/>
        <pt x="429" y="645" on="0"/>
        <pt x="568" y="517" on="0"/>
        <pt x="568" y="406" on="1"/>
        <pt x="568" y="230" on="1"/>
        <pt x="568" y="119" on="0"/>
        <pt x="429" y="-9" on="0"/>
      </contour>
      <contour>
        <pt x="405" y="573" on="0"/>
        <pt x="227" y="573" on="0"/>
        <pt x="136" y="484" on="0"/>
        <pt x="136" y="403" on="1"/>
        <pt x="136" y="233" on="1"/>
        <pt x="136" y="151" on="0"/>
        <pt x="228" y="63" on="0"/>
        <pt x="404" y="63" on="0"/>
        <pt x="496" y="151" on="0"/>
        <pt x="496" y="233" on="1"/>
        <pt x="496" y="403" on="1"/>
        <pt x="496" y="484" on="0"/>
      </contour>
    </TTGlyph>
    <TTGlyph name="O.sc" xMin="62" yMin="-9" xMax="566" yMax="559">
      <contour>
        <pt x="314" y="-9" on="1"/>
        <pt x="200" y="-9" on="0"/>
        <pt x="62" y="118" on="0"/>
        <pt x="62" y="230" on="1"/>
        <pt x="62" y="320" on="1"/>
        <pt x="62" y="432" on="0"/>
        <pt x="200" y="559" on="0"/>
        <pt x="314" y="559" on="1"/>
        <pt x="427" y="559" on="0"/>
        <pt x="566" y="431" on="0"/>
        <pt x="566" y="320" on="1"/>
        <pt x="566" y="230" on="1"/>
        <pt x="566" y="119" on="0"/>
        <pt x="427" y="-9" on="0"/>
      </contour>
      <contour>
        <pt x="403" y="487" on="0"/>
        <pt x="225" y="487" on="0"/>
        <pt x="134" y="398" on="0"/>
        <pt x="134" y="317" on="1"/>
        <pt x="134" y="233" on="1"/>
        <pt x="134" y="151" on="0"/>
        <pt x="226" y="63" on="0"/>
        <pt x="402" y="63" on="0"/>
        <pt x="494" y="151" on="0"/>
        <pt x="494" y="233" on="1"/>
        <pt x="494" y="317" on="1"/>
        <pt x="494" y="398" on="0"/>
      </contour>
    </TTGlyph>
    <TTGlyph name="OE" xMin="64" yMin="-9" xMax="720" yMax="645">
      <contour>
        <pt x="397" y="625" on="1"/>
        <pt x="406" y="636" on="0"/>
        <pt x="426" y="636" on="1"/>
        <pt x="675" y="636" on="1"/>
        <pt x="720" y="636" on="0"/>
        <pt x="720" y="604" on="1"/>
        <pt x="720" y="568" on="0"/>
        <pt x="675" y="568" on="1"/>
        <pt x="465" y="568" on="1"/>
        <pt x="465" y="394" on="1"/>
        <pt x="554" y="394" on="1"/>
        <pt x="602" y="394" on="0"/>
        <pt x="602" y="356" on="1"/>
        <pt x="602" y="322" on="0"/>
        <pt x="554" y="322" on="1"/>
        <pt x="465" y="322" on="1"/>
        <pt x="465" y="72" on="1"/>
        <pt x="669" y="72" on="1"/>
        <pt x="714" y="72" on="0"/>
        <pt x="714" y="34" on="1"/>
        <pt x="714" y="0" on="0"/>
        <pt x="669" y="0" on="1"/>
        <pt x="433" y="0" on="1"/>
        <pt x="414" y="0" on="0"/>
        <pt x="402" y="12" on="1"/>
        <pt x="352" y="-9" on="0"/>
        <pt x="294" y="-9" on="1"/>
        <pt x="207" y="-9" on="0"/>
        <pt x="64" y="123" on="0"/>
        <pt x="64" y="230" on="1"/>
        <pt x="64" y="406" on="1"/>
        <pt x="64" y="512" on="0"/>
        <pt x="205" y="645" on="0"/>
        <pt x="288" y="645" on="1"/>
        <pt x="353" y="645" on="0"/>
      </contour>
      <contour>
        <pt x="294" y="63" on="1"/>
        <pt x="357" y="63" on="0"/>
        <pt x="393" y="90" on="1"/>
        <pt x="393" y="546" on="1"/>
        <pt x="359" y="573" on="0"/>
        <pt x="288" y="573" on="1"/>
        <pt x="231" y="573" on="0"/>
        <pt x="136" y="480" on="0"/>
        <pt x="136" y="403" on="1"/>
        <pt x="136" y="233" on="1"/>
        <pt x="136" y="155" on="0"/>
        <pt x="233" y="63" on="0"/>
      </contour>
    </TTGlyph>
    <TTGlyph name="Oacute" xMin="64" yMin="-9" xMax="568" yMax="819">
      <component glyphName="acutecomb" x="665" y="178" flags="0x1004"/>
      <component glyphName="O" x="0" y="0" flags="0x1204"/>
    </TTGlyph>
    <TTGlyph name="Ocircumflex" xMin="64" yMin="-9" xMax="568" yMax="819">
      <component glyphName="uni0302" x="618" y="141" flags="0x1004"/>
      <component glyphName="O" x="0" y="0" flags="0x1204"/>
    </TTGlyph>
    <TTGlyph name="Ocyrillic" xMin="64" yMin="-9" xMax="568" yMax="645">
      <component glyphName="O" x="0" y="0" flags="0x1004"/>
    </TTGlyph>
    <TTGlyph name="Odieresis" xMin="64" yMin="-9" xMax="568" yMax="808">
      <component glyphName="dieresis" x="120" y="127" flags="0x1004"/>
      <component glyphName="O" x="0" y="0" flags="0x1204"/>
    </TTGlyph>
    <TTGlyph name="Ograve" xMin="64" yMin="-9" xMax="568" yMax="819">
      <component glyphName="gravecomb" x="584" y="178" flags="0x1004"/>
      <component glyphName="O" x="0" y="0" flags="0x1204"/>
    </TTGlyph>
    <TTGlyph name="Ohorn" xMin="64" yMin="-9" xMax="681" yMax="676">
      <contour>
        <pt x="405" y="573" on="0"/>
        <pt x="227" y="573" on="0"/>
        <pt x="136" y="484" on="0"/>
        <pt x="136" y="403" on="1"/>
        <pt x="136" y="233" on="1"/>
        <pt x="136" y="151" on="0"/>
        <pt x="228" y="63" on="0"/>
        <pt x="404" y="63" on="0"/>
        <pt x="496" y="151" on="0"/>
        <pt x="496" y="233" on="1"/>
        <pt x="496" y="403" on="1"/>
        <pt x="496" y="484" on="0"/>
      </contour>
      <contour>
        <pt x="316" y="-9" on="1"/>
        <pt x="202" y="-9" on="0"/>
        <pt x="64" y="118" on="0"/>
        <pt x="64" y="230" on="1"/>
        <pt x="64" y="406" on="1"/>
        <pt x="64" y="518" on="0"/>
        <pt x="202" y="645" on="0"/>
        <pt x="316" y="645" on="1"/>
        <pt x="464" y="645" on="0"/>
        <pt x="531" y="542" on="1"/>
        <pt x="576" y="543" on="0"/>
        <pt x="607" y="561" on="0"/>
        <pt x="607" y="580" on="1"/>
        <pt x="607" y="593" on="0"/>
        <pt x="569" y="621" on="0"/>
        <pt x="569" y="641" on="1"/>
        <pt x="569" y="659" on="0"/>
        <pt x="594" y="676" on="0"/>
        <pt x="604" y="676" on="1"/>
        <pt x="621" y="676" on="0"/>
        <pt x="634" y="663" on="1"/>
        <pt x="638" y="658" on="1"/>
        <pt x="643" y="654" on="0"/>
        <pt x="657" y="639" on="0"/>
        <pt x="671" y="618" on="0"/>
        <pt x="681" y="590" on="0"/>
        <pt x="681" y="576" on="1"/>
        <pt x="681" y="486" on="0"/>
        <pt x="560" y="473" on="1"/>
        <pt x="568" y="439" on="0"/>
        <pt x="568" y="406" on="1"/>
        <pt x="568" y="230" on="1"/>
        <pt x="568" y="119" on="0"/>
        <pt x="429" y="-9" on="0"/>
      </contour>
    </TTGlyph>
    <TTGlyph name="Ohungarumlaut" xMin="64" yMin="-9" xMax="568" yMax="819">
      <contour>
        <pt x="316" y="-9" on="1"/>
        <pt x="202" y="-9" on="0"/>
        <pt x="64" y="118" on="0"/>
        <pt x="64" y="230" on="1"/>
        <pt x="64" y="406" on="1"/>
        <pt x="64" y="518" on="0"/>
        <pt x="202" y="645" on="0"/>
        <pt x="316" y="645" on="1"/>
        <pt x="429" y="645" on="0"/>
        <pt x="568" y="517" on="0"/>
        <pt x="568" y="406" on="1"/>
        <pt x="568" y="230" on="1"/>
        <pt x="568" y="119" on="0"/>
        <pt x="429" y="-9" on="0"/>
      </contour>
      <contour>
        <pt x="405" y="573" on="0"/>
        <pt x="227" y="573" on="0"/>
        <pt x="136" y="484" on="0"/>
        <pt x="136" y="403" on="1"/>
        <pt x="136" y="233" on="1"/>
        <pt x="136" y="151" on="0"/>
        <pt x="228" y="63" on="0"/>
        <pt x="404" y="63" on="0"/>
        <pt x="496" y="151" on="0"/>
        <pt x="496" y="233" on="1"/>
        <pt x="496" y="403" on="1"/>
        <pt x="496" y="484" on="0"/>
      </contour>
      <contour>
        <pt x="313" y="819" on="1"/>
        <pt x="326" y="819" on="0"/>
        <pt x="349" y="797" on="0"/>
        <pt x="349" y="784" on="1"/>
        <pt x="349" y="770" on="0"/>
        <pt x="334" y="753" on="1"/>
        <pt x="265" y="685" on="1"/>
        <pt x="250" y="668" on="0"/>
        <pt x="232" y="668" on="1"/>
        <pt x="217" y="668" on="0"/>
        <pt x="197" y="690" on="0"/>
        <pt x="197" y="702" on="1"/>
        <pt x="197" y="717" on="0"/>
        <pt x="211" y="733" on="1"/>
        <pt x="281" y="803" on="1"/>
        <pt x="298" y="819" on="0"/>
      </contour>
      <contour>
        <pt x="453" y="819" on="1"/>
        <pt x="466" y="819" on="0"/>
        <pt x="489" y="797" on="0"/>
        <pt x="489" y="784" on="1"/>
        <pt x="489" y="770" on="0"/>
        <pt x="474" y="753" on="1"/>
        <pt x="405" y="685" on="1"/>
        <pt x="390" y="668" on="0"/>
        <pt x="372" y="668" on="1"/>
        <pt x="357" y="668" on="0"/>
        <pt x="337" y="690" on="0"/>
        <pt x="337" y="702" on="1"/>
        <pt x="337" y="717" on="0"/>
        <pt x="351" y="733" on="1"/>
        <pt x="421" y="803" on="1"/>
        <pt x="438" y="819" on="0"/>
      </contour>
    </TTGlyph>
    <TTGlyph name="Omacron" xMin="64" yMin="-9" xMax="568" yMax="779">
      <contour>
        <pt x="437" y="779" on="1"/>
        <pt x="481" y="779" on="0"/>
        <pt x="481" y="741" on="1"/>
        <pt x="481" y="725" on="0"/>
        <pt x="456" y="706" on="0"/>
        <pt x="437" y="706" on="1"/>
        <pt x="192" y="706" on="1"/>
        <pt x="151" y="706" on="0"/>
        <pt x="151" y="743" on="1"/>
        <pt x="151" y="756" on="0"/>
        <pt x="170" y="779" on="0"/>
        <pt x="192" y="779" on="1"/>
      </contour>
      <contour>
        <pt x="316" y="-9" on="1"/>
        <pt x="202" y="-9" on="0"/>
        <pt x="64" y="118" on="0"/>
        <pt x="64" y="230" on="1"/>
        <pt x="64" y="406" on="1"/>
        <pt x="64" y="518" on="0"/>
        <pt x="202" y="645" on="0"/>
        <pt x="316" y="645" on="1"/>
        <pt x="429" y="645" on="0"/>
        <pt x="568" y="517" on="0"/>
        <pt x="568" y="406" on="1"/>
        <pt x="568" y="230" on="1"/>
        <pt x="568" y="119" on="0"/>
        <pt x="429" y="-9" on="0"/>
      </contour>
      <contour>
        <pt x="405" y="573" on="0"/>
        <pt x="227" y="573" on="0"/>
        <pt x="136" y="484" on="0"/>
        <pt x="136" y="403" on="1"/>
        <pt x="136" y="233" on="1"/>
        <pt x="136" y="151" on="0"/>
        <pt x="228" y="63" on="0"/>
        <pt x="404" y="63" on="0"/>
        <pt x="496" y="151" on="0"/>
        <pt x="496" y="233" on="1"/>
        <pt x="496" y="403" on="1"/>
        <pt x="496" y="484" on="0"/>
      </contour>
    </TTGlyph>
    <TTGlyph name="Omega" xMin="64" yMin="0" xMax="568" yMax="645">
      <contour>
        <pt x="355" y="157" on="1"/>
        <pt x="380" y="162" on="0"/>
        <pt x="416" y="176" on="0"/>
        <pt x="467" y="211" on="0"/>
        <pt x="496" y="277" on="0"/>
        <pt x="496" y="324" on="1"/>
        <pt x="496" y="403" on="1"/>
        <pt x="496" y="484" on="0"/>
        <pt x="403" y="573" on="0"/>
        <pt x="229" y="573" on="0"/>
        <pt x="136" y="484" on="0"/>
        <pt x="136" y="403" on="1"/>
        <pt x="136" y="324" on="1"/>
        <pt x="136" y="285" on="0"/>
        <pt x="159" y="225" on="0"/>
        <pt x="186" y="193" on="0"/>
        <pt x="233" y="168" on="0"/>
        <pt x="257" y="161" on="0"/>
        <pt x="277" y="156" on="1"/>
        <pt x="277" y="105" on="1"/>
        <pt x="277" y="34" on="0"/>
        <pt x="237" y="0" on="0"/>
        <pt x="166" y="0" on="1"/>
        <pt x="109" y="0" on="1"/>
        <pt x="64" y="0" on="0"/>
        <pt x="64" y="72" on="0"/>
        <pt x="109" y="72" on="1"/>
        <pt x="166" y="72" on="1"/>
        <pt x="188" y="72" on="0"/>
        <pt x="197" y="79" on="0"/>
        <pt x="197" y="94" on="1"/>
        <pt x="197" y="112" on="1"/>
        <pt x="135" y="139" on="0"/>
        <pt x="64" y="250" on="0"/>
        <pt x="64" y="328" on="1"/>
        <pt x="64" y="406" on="1"/>
        <pt x="64" y="518" on="0"/>
        <pt x="202" y="645" on="0"/>
        <pt x="316" y="645" on="1"/>
        <pt x="429" y="645" on="0"/>
        <pt x="568" y="517" on="0"/>
        <pt x="568" y="406" on="1"/>
        <pt x="568" y="328" on="1"/>
        <pt x="568" y="250" on="0"/>
        <pt x="497" y="139" on="0"/>
        <pt x="435" y="112" on="1"/>
        <pt x="435" y="89" on="1"/>
        <pt x="435" y="77" on="0"/>
        <pt x="443" y="72" on="0"/>
        <pt x="464" y="72" on="1"/>
        <pt x="523" y="72" on="1"/>
        <pt x="568" y="72" on="0"/>
        <pt x="568" y="0" on="0"/>
        <pt x="523" y="0" on="1"/>
        <pt x="466" y="0" on="1"/>
        <pt x="395" y="0" on="0"/>
        <pt x="355" y="33" on="0"/>
        <pt x="355" y="105" on="1"/>
      </contour>
    </TTGlyph>
    <TTGlyph name="Omegatonos" xMin="43" yMin="0" xMax="588" yMax="793">
      <component glyphName="tonos" x="-27" y="102" flags="0x1004"/>
      <component glyphName="Omega" x="20" y="0" flags="0x1004"/>
    </TTGlyph>
    <TTGlyph name="Omicron" xMin="64" yMin="-9" xMax="568" yMax="645">
      <component glyphName="O" x="0" y="0" flags="0x1004"/>
    </TTGlyph>
    <TTGlyph name="Omicrontonos" xMin="24" yMin="-9" xMax="597" yMax="793">
      <component glyphName="tonos" x="-46" y="102" flags="0x1004"/>
      <component glyphName="Omicron" x="29" y="0" flags="0x1004"/>
    </TTGlyph>
    <TTGlyph name="Oslash" xMin="59" yMin="-12" xMax="573" yMax="646">
      <contour>
        <pt x="316" y="573" on="1"/>
        <pt x="227" y="573" on="0"/>
        <pt x="136" y="484" on="0"/>
        <pt x="136" y="403" on="1"/>
        <pt x="136" y="233" on="1"/>
        <pt x="136" y="188" on="0"/>
        <pt x="149" y="156" on="1"/>
        <pt x="438" y="539" on="1"/>
        <pt x="393" y="573" on="0"/>
      </contour>
      <contour>
        <pt x="536" y="646" on="1"/>
        <pt x="550" y="646" on="0"/>
        <pt x="573" y="625" on="0"/>
        <pt x="573" y="611" on="1"/>
        <pt x="573" y="598" on="0"/>
        <pt x="562" y="584" on="1"/>
        <pt x="531" y="543" on="1"/>
        <pt x="568" y="486" on="0"/>
        <pt x="568" y="406" on="1"/>
        <pt x="568" y="230" on="1"/>
        <pt x="568" y="119" on="0"/>
        <pt x="429" y="-9" on="0"/>
        <pt x="316" y="-9" on="1"/>
        <pt x="219" y="-9" on="0"/>
        <pt x="152" y="39" on="1"/>
        <pt x="127" y="6" on="1"/>
        <pt x="113" y="-12" on="0"/>
        <pt x="96" y="-12" on="1"/>
        <pt x="83" y="-12" on="0"/>
        <pt x="59" y="8" on="0"/>
        <pt x="59" y="38" on="0"/>
        <pt x="69" y="50" on="1"/>
        <pt x="101" y="93" on="1"/>
        <pt x="64" y="150" on="0"/>
        <pt x="64" y="230" on="1"/>
        <pt x="64" y="406" on="1"/>
        <pt x="64" y="518" on="0"/>
        <pt x="202" y="645" on="0"/>
        <pt x="316" y="645" on="1"/>
        <pt x="415" y="645" on="0"/>
        <pt x="481" y="596" on="1"/>
        <pt x="505" y="627" on="1"/>
        <pt x="519" y="646" on="0"/>
      </contour>
      <contour>
        <pt x="483" y="479" on="1"/>
        <pt x="195" y="96" on="1"/>
        <pt x="238" y="63" on="0"/>
        <pt x="316" y="63" on="1"/>
        <pt x="404" y="63" on="0"/>
        <pt x="496" y="151" on="0"/>
        <pt x="496" y="233" on="1"/>
        <pt x="496" y="403" on="1"/>
        <pt x="496" y="447" on="0"/>
      </contour>
    </TTGlyph>
    <TTGlyph name="Otilde" xMin="64" yMin="-9" xMax="568" yMax="808">
      <component glyphName="tildecomb" x="593" y="212" flags="0x1004"/>
      <component glyphName="O" x="0" y="0" flags="0x1204"/>
    </TTGlyph>
    <TTGlyph name="P" xMin="84" yMin="-7" xMax="546" yMax="641">
      <contour>
        <pt x="156" y="33" on="1"/>
        <pt x="156" y="-7" on="0"/>
        <pt x="119" y="-7" on="1"/>
        <pt x="84" y="-7" on="0"/>
        <pt x="84" y="33" on="1"/>
        <pt x="84" y="597" on="1"/>
        <pt x="84" y="641" on="0"/>
        <pt x="118" y="641" on="1"/>
        <pt x="309" y="641" on="1"/>
        <pt x="429" y="641" on="0"/>
        <pt x="546" y="573" on="0"/>
        <pt x="546" y="482" on="1"/>
        <pt x="546" y="405" on="0"/>
        <pt x="447" y="322" on="0"/>
        <pt x="357" y="322" on="1"/>
        <pt x="156" y="322" on="1"/>
      </contour>
      <contour>
        <pt x="309" y="394" on="1"/>
        <pt x="409" y="394" on="0"/>
        <pt x="474" y="429" on="0"/>
        <pt x="474" y="482" on="1"/>
        <pt x="474" y="536" on="0"/>
        <pt x="405" y="569" on="0"/>
        <pt x="309" y="569" on="1"/>
        <pt x="156" y="569" on="1"/>
        <pt x="156" y="394" on="1"/>
      </contour>
    </TTGlyph>
    <TTGlyph name="Pecyrillic" xMin="85" yMin="-7" xMax="579" yMax="636">
      <component glyphName="Pi" x="0" y="0" flags="0x1004"/>
    </TTGlyph>
    <TTGlyph name="Phi" xMin="42" yMin="-7" xMax="546" yMax="643">
      <contour>
        <pt x="336" y="33" on="1"/>
        <pt x="336" y="-7" on="0"/>
        <pt x="295" y="-7" on="1"/>
        <pt x="280" y="-7" on="0"/>
        <pt x="257" y="13" on="0"/>
        <pt x="257" y="33" on="1"/>
        <pt x="257" y="74" on="1"/>
        <pt x="158" y="85" on="0"/>
        <pt x="42" y="210" on="0"/>
        <pt x="42" y="312" on="1"/>
        <pt x="42" y="324" on="1"/>
        <pt x="42" y="426" on="0"/>
        <pt x="158" y="551" on="0"/>
        <pt x="257" y="562" on="1"/>
        <pt x="257" y="602" on="1"/>
        <pt x="257" y="643" on="0"/>
        <pt x="296" y="643" on="1"/>
        <pt x="336" y="643" on="0"/>
        <pt x="336" y="602" on="1"/>
        <pt x="336" y="562" on="1"/>
        <pt x="432" y="550" on="0"/>
        <pt x="546" y="425" on="0"/>
        <pt x="546" y="324" on="1"/>
        <pt x="546" y="312" on="1"/>
        <pt x="546" y="211" on="0"/>
        <pt x="432" y="86" on="0"/>
        <pt x="336" y="74" on="1"/>
      </contour>
      <contour>
        <pt x="474" y="324" on="1"/>
        <pt x="474" y="398" on="0"/>
        <pt x="403" y="489" on="0"/>
        <pt x="336" y="499" on="1"/>
        <pt x="336" y="137" on="1"/>
        <pt x="403" y="146" on="0"/>
        <pt x="474" y="237" on="0"/>
        <pt x="474" y="312" on="1"/>
      </contour>
      <contour>
        <pt x="114" y="312" on="1"/>
        <pt x="114" y="155" on="0"/>
        <pt x="257" y="136" on="1"/>
        <pt x="257" y="500" on="1"/>
        <pt x="185" y="491" on="0"/>
        <pt x="114" y="398" on="0"/>
        <pt x="114" y="324" on="1"/>
      </contour>
    </TTGlyph>
    <TTGlyph name="Pi" xMin="85" yMin="-7" xMax="579" yMax="636">
      <contour>
        <pt x="85" y="636" on="1"/>
        <pt x="579" y="636" on="1"/>
        <pt x="579" y="35" on="1"/>
        <pt x="579" y="-7" on="0"/>
        <pt x="544" y="-7" on="1"/>
        <pt x="507" y="-7" on="0"/>
        <pt x="507" y="35" on="1"/>
        <pt x="507" y="564" on="1"/>
        <pt x="157" y="564" on="1"/>
        <pt x="157" y="35" on="1"/>
        <pt x="157" y="-7" on="0"/>
        <pt x="85" y="-7" on="0"/>
        <pt x="85" y="35" on="1"/>
      </contour>
    </TTGlyph>
    <TTGlyph name="Psi" xMin="48" yMin="-7" xMax="552" yMax="643">
      <contour>
        <pt x="480" y="600" on="1"/>
        <pt x="480" y="623" on="0"/>
        <pt x="503" y="643" on="0"/>
        <pt x="517" y="643" on="1"/>
        <pt x="552" y="643" on="0"/>
        <pt x="552" y="602" on="1"/>
        <pt x="552" y="453" on="1"/>
        <pt x="552" y="352" on="0"/>
        <pt x="435" y="227" on="0"/>
        <pt x="338" y="215" on="1"/>
        <pt x="338" y="33" on="1"/>
        <pt x="338" y="-7" on="0"/>
        <pt x="300" y="-7" on="1"/>
        <pt x="264" y="-7" on="0"/>
        <pt x="264" y="33" on="1"/>
        <pt x="264" y="215" on="1"/>
        <pt x="166" y="226" on="0"/>
        <pt x="48" y="351" on="0"/>
        <pt x="48" y="453" on="1"/>
        <pt x="48" y="602" on="1"/>
        <pt x="48" y="643" on="0"/>
        <pt x="84" y="643" on="1"/>
        <pt x="98" y="643" on="0"/>
        <pt x="120" y="623" on="0"/>
        <pt x="120" y="600" on="1"/>
        <pt x="120" y="454" on="1"/>
        <pt x="120" y="306" on="0"/>
        <pt x="264" y="288" on="1"/>
        <pt x="264" y="600" on="1"/>
        <pt x="264" y="643" on="0"/>
        <pt x="338" y="643" on="0"/>
        <pt x="338" y="600" on="1"/>
        <pt x="338" y="289" on="1"/>
        <pt x="480" y="307" on="0"/>
        <pt x="480" y="454" on="1"/>
      </contour>
    </TTGlyph>
    <TTGlyph name="Q" xMin="64" yMin="-12" xMax="568" yMax="645">
      <contour>
        <pt x="405" y="573" on="0"/>
        <pt x="227" y="573" on="0"/>
        <pt x="136" y="484" on="0"/>
        <pt x="136" y="403" on="1"/>
        <pt x="136" y="233" on="1"/>
        <pt x="136" y="151" on="0"/>
        <pt x="228" y="63" on="0"/>
        <pt x="316" y="63" on="1"/>
        <pt x="376" y="63" on="0"/>
        <pt x="416" y="83" on="1"/>
        <pt x="367" y="124" on="1"/>
        <pt x="349" y="135" on="0"/>
        <pt x="349" y="153" on="1"/>
        <pt x="349" y="167" on="0"/>
        <pt x="371" y="189" on="0"/>
        <pt x="388" y="189" on="1"/>
        <pt x="406" y="189" on="0"/>
        <pt x="424" y="172" on="1"/>
        <pt x="470" y="130" on="1"/>
        <pt x="496" y="172" on="0"/>
        <pt x="496" y="233" on="1"/>
        <pt x="496" y="403" on="1"/>
        <pt x="496" y="484" on="0"/>
      </contour>
      <contour>
        <pt x="316" y="-9" on="1"/>
        <pt x="202" y="-9" on="0"/>
        <pt x="64" y="118" on="0"/>
        <pt x="64" y="230" on="1"/>
        <pt x="64" y="406" on="1"/>
        <pt x="64" y="518" on="0"/>
        <pt x="202" y="645" on="0"/>
        <pt x="316" y="645" on="1"/>
        <pt x="429" y="645" on="0"/>
        <pt x="568" y="517" on="0"/>
        <pt x="568" y="406" on="1"/>
        <pt x="568" y="230" on="1"/>
        <pt x="568" y="138" on="0"/>
        <pt x="523" y="79" on="1"/>
        <pt x="551" y="53" on="1"/>
        <pt x="565" y="39" on="0"/>
        <pt x="565" y="22" on="1"/>
        <pt x="565" y="10" on="0"/>
        <pt x="545" y="-12" on="0"/>
        <pt x="531" y="-12" on="1"/>
        <pt x="511" y="-12" on="0"/>
        <pt x="499" y="-1" on="1"/>
        <pt x="470" y="28" on="1"/>
        <pt x="408" y="-9" on="0"/>
      </contour>
    </TTGlyph>
    <TTGlyph name="R" xMin="84" yMin="-7" xMax="554" yMax="646">
      <contour>
        <pt x="438" y="336" on="1"/>
        <pt x="469" y="298" on="0"/>
        <pt x="527" y="151" on="0"/>
        <pt x="554" y="44" on="0"/>
        <pt x="554" y="33" on="1"/>
        <pt x="554" y="17" on="0"/>
        <pt x="533" y="-7" on="0"/>
        <pt x="517" y="-7" on="1"/>
        <pt x="500" y="-7" on="0"/>
        <pt x="483" y="17" on="0"/>
        <pt x="482" y="33" on="1"/>
        <pt x="481" y="50" on="0"/>
        <pt x="454" y="150" on="0"/>
        <pt x="385" y="292" on="0"/>
        <pt x="342" y="322" on="1"/>
        <pt x="156" y="322" on="1"/>
        <pt x="156" y="33" on="1"/>
        <pt x="156" y="-7" on="0"/>
        <pt x="119" y="-7" on="1"/>
        <pt x="84" y="-7" on="0"/>
        <pt x="84" y="33" on="1"/>
        <pt x="84" y="602" on="1"/>
        <pt x="84" y="646" on="0"/>
        <pt x="118" y="646" on="1"/>
        <pt x="306" y="646" on="1"/>
        <pt x="428" y="646" on="0"/>
        <pt x="546" y="577" on="0"/>
        <pt x="546" y="485" on="1"/>
        <pt x="546" y="367" on="0"/>
      </contour>
      <contour>
        <pt x="156" y="569" on="1"/>
        <pt x="156" y="394" on="1"/>
        <pt x="306" y="394" on="1"/>
        <pt x="404" y="394" on="0"/>
        <pt x="474" y="428" on="0"/>
        <pt x="474" y="536" on="0"/>
        <pt x="402" y="569" on="0"/>
        <pt x="306" y="569" on="1"/>
      </contour>
    </TTGlyph>
    <TTGlyph name="Racute" xMin="84" yMin="-7" xMax="554" yMax="819">
      <contour>
        <pt x="438" y="336" on="1"/>
        <pt x="469" y="298" on="0"/>
        <pt x="527" y="151" on="0"/>
        <pt x="554" y="44" on="0"/>
        <pt x="554" y="33" on="1"/>
        <pt x="554" y="17" on="0"/>
        <pt x="533" y="-7" on="0"/>
        <pt x="517" y="-7" on="1"/>
        <pt x="500" y="-7" on="0"/>
        <pt x="483" y="17" on="0"/>
        <pt x="482" y="33" on="1"/>
        <pt x="481" y="50" on="0"/>
        <pt x="454" y="150" on="0"/>
        <pt x="385" y="292" on="0"/>
        <pt x="342" y="322" on="1"/>
        <pt x="156" y="322" on="1"/>
        <pt x="156" y="33" on="1"/>
        <pt x="156" y="-7" on="0"/>
        <pt x="119" y="-7" on="1"/>
        <pt x="84" y="-7" on="0"/>
        <pt x="84" y="33" on="1"/>
        <pt x="84" y="602" on="1"/>
        <pt x="84" y="646" on="0"/>
        <pt x="118" y="646" on="1"/>
        <pt x="306" y="646" on="1"/>
        <pt x="428" y="646" on="0"/>
        <pt x="546" y="577" on="0"/>
        <pt x="546" y="485" on="1"/>
        <pt x="546" y="367" on="0"/>
      </contour>
      <contour>
        <pt x="156" y="569" on="1"/>
        <pt x="156" y="394" on="1"/>
        <pt x="306" y="394" on="1"/>
        <pt x="404" y="394" on="0"/>
        <pt x="474" y="428" on="0"/>
        <pt x="474" y="536" on="0"/>
        <pt x="402" y="569" on="0"/>
        <pt x="306" y="569" on="1"/>
      </contour>
      <contour>
        <pt x="326" y="819" on="1"/>
        <pt x="339" y="819" on="0"/>
        <pt x="362" y="797" on="0"/>
        <pt x="362" y="784" on="1"/>
        <pt x="362" y="770" on="0"/>
        <pt x="347" y="753" on="1"/>
        <pt x="278" y="685" on="1"/>
        <pt x="263" y="668" on="0"/>
        <pt x="245" y="668" on="1"/>
        <pt x="230" y="668" on="0"/>
        <pt x="210" y="690" on="0"/>
        <pt x="210" y="702" on="1"/>
        <pt x="210" y="717" on="0"/>
        <pt x="224" y="733" on="1"/>
        <pt x="294" y="803" on="1"/>
        <pt x="311" y="819" on="0"/>
      </contour>
    </TTGlyph>
    <TTGlyph name="Rcaron" xMin="84" yMin="-7" xMax="554" yMax="821">
      <contour>
        <pt x="438" y="336" on="1"/>
        <pt x="469" y="298" on="0"/>
        <pt x="527" y="151" on="0"/>
        <pt x="554" y="44" on="0"/>
        <pt x="554" y="33" on="1"/>
        <pt x="554" y="17" on="0"/>
        <pt x="533" y="-7" on="0"/>
        <pt x="517" y="-7" on="1"/>
        <pt x="500" y="-7" on="0"/>
        <pt x="483" y="17" on="0"/>
        <pt x="482" y="33" on="1"/>
        <pt x="481" y="50" on="0"/>
        <pt x="454" y="150" on="0"/>
        <pt x="385" y="292" on="0"/>
        <pt x="342" y="322" on="1"/>
        <pt x="156" y="322" on="1"/>
        <pt x="156" y="33" on="1"/>
        <pt x="156" y="-7" on="0"/>
        <pt x="119" y="-7" on="1"/>
        <pt x="84" y="-7" on="0"/>
        <pt x="84" y="33" on="1"/>
        <pt x="84" y="602" on="1"/>
        <pt x="84" y="646" on="0"/>
        <pt x="118" y="646" on="1"/>
        <pt x="306" y="646" on="1"/>
        <pt x="428" y="646" on="0"/>
        <pt x="546" y="577" on="0"/>
        <pt x="546" y="485" on="1"/>
        <pt x="546" y="367" on="0"/>
      </contour>
      <contour>
        <pt x="156" y="569" on="1"/>
        <pt x="156" y="394" on="1"/>
        <pt x="306" y="394" on="1"/>
        <pt x="404" y="394" on="0"/>
        <pt x="474" y="428" on="0"/>
        <pt x="474" y="536" on="0"/>
        <pt x="402" y="569" on="0"/>
        <pt x="306" y="569" on="1"/>
      </contour>
      <contour>
        <pt x="319" y="657" on="1"/>
        <pt x="255" y="657" on="1"/>
        <pt x="147" y="770" on="1"/>
        <pt x="138" y="779" on="0"/>
        <pt x="138" y="791" on="1"/>
        <pt x="138" y="801" on="0"/>
        <pt x="154" y="821" on="0"/>
        <pt x="171" y="821" on="1"/>
        <pt x="187" y="821" on="0"/>
        <pt x="209" y="802" on="1"/>
        <pt x="287" y="737" on="1"/>
        <pt x="365" y="802" on="1"/>
        <pt x="387" y="821" on="0"/>
        <pt x="403" y="821" on="1"/>
        <pt x="420" y="821" on="0"/>
        <pt x="436" y="801" on="0"/>
        <pt x="436" y="791" on="1"/>
        <pt x="436" y="779" on="0"/>
        <pt x="427" y="770" on="1"/>
      </contour>
    </TTGlyph>
    <TTGlyph name="Rcommaaccent" xMin="84" yMin="-171" xMax="554" yMax="646">
      <contour>
        <pt x="328" y="-141" on="1"/>
        <pt x="315" y="-171" on="0"/>
        <pt x="294" y="-171" on="1"/>
        <pt x="262" y="-171" on="0"/>
        <pt x="262" y="-136" on="1"/>
        <pt x="262" y="-136" on="0"/>
        <pt x="265" y="-118" on="1"/>
        <pt x="289" y="-31" on="1"/>
        <pt x="298" y="0" on="0"/>
        <pt x="324" y="0" on="1"/>
        <pt x="331" y="0" on="0"/>
        <pt x="352" y="-4" on="0"/>
        <pt x="375" y="-21" on="0"/>
        <pt x="375" y="-35" on="1"/>
        <pt x="375" y="-44" on="0"/>
        <pt x="368" y="-58" on="1"/>
      </contour>
      <contour>
        <pt x="438" y="336" on="1"/>
        <pt x="469" y="298" on="0"/>
        <pt x="527" y="151" on="0"/>
        <pt x="554" y="44" on="0"/>
        <pt x="554" y="33" on="1"/>
        <pt x="554" y="17" on="0"/>
        <pt x="533" y="-7" on="0"/>
        <pt x="517" y="-7" on="1"/>
        <pt x="500" y="-7" on="0"/>
        <pt x="483" y="17" on="0"/>
        <pt x="482" y="33" on="1"/>
        <pt x="481" y="50" on="0"/>
        <pt x="454" y="150" on="0"/>
        <pt x="385" y="292" on="0"/>
        <pt x="342" y="322" on="1"/>
        <pt x="156" y="322" on="1"/>
        <pt x="156" y="33" on="1"/>
        <pt x="156" y="-7" on="0"/>
        <pt x="119" y="-7" on="1"/>
        <pt x="84" y="-7" on="0"/>
        <pt x="84" y="33" on="1"/>
        <pt x="84" y="602" on="1"/>
        <pt x="84" y="646" on="0"/>
        <pt x="118" y="646" on="1"/>
        <pt x="306" y="646" on="1"/>
        <pt x="428" y="646" on="0"/>
        <pt x="546" y="577" on="0"/>
        <pt x="546" y="485" on="1"/>
        <pt x="546" y="367" on="0"/>
      </contour>
      <contour>
        <pt x="156" y="569" on="1"/>
        <pt x="156" y="394" on="1"/>
        <pt x="306" y="394" on="1"/>
        <pt x="404" y="394" on="0"/>
        <pt x="474" y="428" on="0"/>
        <pt x="474" y="536" on="0"/>
        <pt x="402" y="569" on="0"/>
        <pt x="306" y="569" on="1"/>
      </contour>
    </TTGlyph>
    <TTGlyph name="Rho" xMin="84" yMin="-7" xMax="546" yMax="641">
      <component glyphName="P" x="0" y="0" flags="0x1004"/>
    </TTGlyph>
    <TTGlyph name="S" xMin="61" yMin="-8" xMax="597" yMax="644">
      <contour>
        <pt x="133" y="475" on="1"/>
        <pt x="133" y="441" on="0"/>
        <pt x="165" y="389" on="0"/>
        <pt x="185" y="385" on="1"/>
        <pt x="460" y="336" on="1"/>
        <pt x="532" y="323" on="0"/>
        <pt x="597" y="225" on="0"/>
        <pt x="597" y="160" on="1"/>
        <pt x="597" y="90" on="0"/>
        <pt x="509" y="-8" on="0"/>
        <pt x="408" y="-8" on="1"/>
        <pt x="312" y="-8" on="1"/>
        <pt x="180" y="-8" on="0"/>
        <pt x="61" y="68" on="0"/>
        <pt x="61" y="182" on="1"/>
        <pt x="61" y="225" on="0"/>
        <pt x="99" y="225" on="1"/>
        <pt x="115" y="225" on="0"/>
        <pt x="134" y="201" on="0"/>
        <pt x="134" y="182" on="1"/>
        <pt x="134" y="105" on="0"/>
        <pt x="203" y="64" on="0"/>
        <pt x="312" y="64" on="1"/>
        <pt x="430" y="64" on="1"/>
        <pt x="482" y="64" on="0"/>
        <pt x="525" y="127" on="0"/>
        <pt x="525" y="163" on="1"/>
        <pt x="525" y="208" on="0"/>
        <pt x="489" y="262" on="0"/>
        <pt x="473" y="265" on="1"/>
        <pt x="200" y="316" on="1"/>
        <pt x="125" y="331" on="0"/>
        <pt x="61" y="408" on="0"/>
        <pt x="61" y="478" on="1"/>
        <pt x="61" y="510" on="0"/>
        <pt x="80" y="564" on="0"/>
        <pt x="124" y="615" on="0"/>
        <pt x="209" y="644" on="0"/>
        <pt x="268" y="644" on="1"/>
        <pt x="344" y="644" on="1"/>
        <pt x="411" y="644" on="0"/>
        <pt x="496" y="630" on="0"/>
        <pt x="566" y="591" on="0"/>
        <pt x="597" y="515" on="0"/>
        <pt x="597" y="456" on="1"/>
        <pt x="597" y="433" on="0"/>
        <pt x="574" y="413" on="0"/>
        <pt x="560" y="413" on="1"/>
        <pt x="544" y="413" on="0"/>
        <pt x="524" y="437" on="0"/>
        <pt x="524" y="456" on="1"/>
        <pt x="524" y="533" on="0"/>
        <pt x="456" y="572" on="0"/>
        <pt x="344" y="572" on="1"/>
        <pt x="238" y="572" on="1"/>
        <pt x="180" y="572" on="0"/>
        <pt x="133" y="510" on="0"/>
      </contour>
    </TTGlyph>
    <TTGlyph name="Sacute" xMin="61" yMin="-8" xMax="597" yMax="819">
      <contour>
        <pt x="133" y="475" on="1"/>
        <pt x="133" y="441" on="0"/>
        <pt x="163" y="390" on="0"/>
        <pt x="185" y="385" on="1"/>
        <pt x="460" y="336" on="1"/>
        <pt x="533" y="322" on="0"/>
        <pt x="597" y="225" on="0"/>
        <pt x="597" y="160" on="1"/>
        <pt x="597" y="90" on="0"/>
        <pt x="509" y="-8" on="0"/>
        <pt x="408" y="-8" on="1"/>
        <pt x="312" y="-8" on="1"/>
        <pt x="180" y="-8" on="0"/>
        <pt x="61" y="68" on="0"/>
        <pt x="61" y="182" on="1"/>
        <pt x="61" y="225" on="0"/>
        <pt x="99" y="225" on="1"/>
        <pt x="115" y="225" on="0"/>
        <pt x="134" y="201" on="0"/>
        <pt x="134" y="182" on="1"/>
        <pt x="134" y="105" on="0"/>
        <pt x="203" y="64" on="0"/>
        <pt x="312" y="64" on="1"/>
        <pt x="430" y="64" on="1"/>
        <pt x="482" y="64" on="0"/>
        <pt x="525" y="127" on="0"/>
        <pt x="525" y="163" on="1"/>
        <pt x="525" y="208" on="0"/>
        <pt x="489" y="261" on="0"/>
        <pt x="473" y="265" on="1"/>
        <pt x="200" y="316" on="1"/>
        <pt x="125" y="331" on="0"/>
        <pt x="61" y="408" on="0"/>
        <pt x="61" y="478" on="1"/>
        <pt x="61" y="510" on="0"/>
        <pt x="80" y="564" on="0"/>
        <pt x="124" y="615" on="0"/>
        <pt x="209" y="644" on="0"/>
        <pt x="268" y="644" on="1"/>
        <pt x="344" y="644" on="1"/>
        <pt x="411" y="644" on="0"/>
        <pt x="496" y="630" on="0"/>
        <pt x="566" y="591" on="0"/>
        <pt x="597" y="515" on="0"/>
        <pt x="597" y="456" on="1"/>
        <pt x="597" y="433" on="0"/>
        <pt x="574" y="413" on="0"/>
        <pt x="560" y="413" on="1"/>
        <pt x="544" y="413" on="0"/>
        <pt x="524" y="437" on="0"/>
        <pt x="524" y="456" on="1"/>
        <pt x="524" y="533" on="0"/>
        <pt x="456" y="572" on="0"/>
        <pt x="344" y="572" on="1"/>
        <pt x="238" y="572" on="1"/>
        <pt x="180" y="572" on="0"/>
        <pt x="133" y="510" on="0"/>
      </contour>
      <contour>
        <pt x="379" y="819" on="1"/>
        <pt x="392" y="819" on="0"/>
        <pt x="415" y="797" on="0"/>
        <pt x="415" y="784" on="1"/>
        <pt x="415" y="770" on="0"/>
        <pt x="400" y="753" on="1"/>
        <pt x="331" y="685" on="1"/>
        <pt x="316" y="668" on="0"/>
        <pt x="298" y="668" on="1"/>
        <pt x="283" y="668" on="0"/>
        <pt x="263" y="690" on="0"/>
        <pt x="263" y="702" on="1"/>
        <pt x="263" y="717" on="0"/>
        <pt x="277" y="733" on="1"/>
        <pt x="347" y="803" on="1"/>
        <pt x="364" y="819" on="0"/>
      </contour>
    </TTGlyph>
    <TTGlyph name="Scaron" xMin="61" yMin="-8" xMax="597" yMax="819">
      <contour>
        <pt x="133" y="475" on="1"/>
        <pt x="133" y="441" on="0"/>
        <pt x="163" y="390" on="0"/>
        <pt x="185" y="385" on="1"/>
        <pt x="460" y="336" on="1"/>
        <pt x="533" y="322" on="0"/>
        <pt x="597" y="225" on="0"/>
        <pt x="597" y="160" on="1"/>
        <pt x="597" y="90" on="0"/>
        <pt x="509" y="-8" on="0"/>
        <pt x="408" y="-8" on="1"/>
        <pt x="312" y="-8" on="1"/>
        <pt x="180" y="-8" on="0"/>
        <pt x="61" y="68" on="0"/>
        <pt x="61" y="182" on="1"/>
        <pt x="61" y="225" on="0"/>
        <pt x="99" y="225" on="1"/>
        <pt x="115" y="225" on="0"/>
        <pt x="134" y="201" on="0"/>
        <pt x="134" y="182" on="1"/>
        <pt x="134" y="105" on="0"/>
        <pt x="203" y="64" on="0"/>
        <pt x="312" y="64" on="1"/>
        <pt x="430" y="64" on="1"/>
        <pt x="482" y="64" on="0"/>
        <pt x="525" y="127" on="0"/>
        <pt x="525" y="163" on="1"/>
        <pt x="525" y="208" on="0"/>
        <pt x="489" y="261" on="0"/>
        <pt x="473" y="265" on="1"/>
        <pt x="200" y="316" on="1"/>
        <pt x="125" y="331" on="0"/>
        <pt x="61" y="408" on="0"/>
        <pt x="61" y="478" on="1"/>
        <pt x="61" y="510" on="0"/>
        <pt x="80" y="564" on="0"/>
        <pt x="124" y="615" on="0"/>
        <pt x="209" y="644" on="0"/>
        <pt x="268" y="644" on="1"/>
        <pt x="344" y="644" on="1"/>
        <pt x="411" y="644" on="0"/>
        <pt x="496" y="630" on="0"/>
        <pt x="566" y="591" on="0"/>
        <pt x="597" y="515" on="0"/>
        <pt x="597" y="456" on="1"/>
        <pt x="597" y="433" on="0"/>
        <pt x="574" y="413" on="0"/>
        <pt x="560" y="413" on="1"/>
        <pt x="544" y="413" on="0"/>
        <pt x="524" y="437" on="0"/>
        <pt x="524" y="456" on="1"/>
        <pt x="524" y="533" on="0"/>
        <pt x="456" y="572" on="0"/>
        <pt x="344" y="572" on="1"/>
        <pt x="238" y="572" on="1"/>
        <pt x="180" y="572" on="0"/>
        <pt x="133" y="510" on="0"/>
      </contour>
      <contour>
        <pt x="360" y="655" on="1"/>
        <pt x="296" y="655" on="1"/>
        <pt x="188" y="768" on="1"/>
        <pt x="179" y="777" on="0"/>
        <pt x="179" y="789" on="1"/>
        <pt x="179" y="799" on="0"/>
        <pt x="195" y="819" on="0"/>
        <pt x="212" y="819" on="1"/>
        <pt x="228" y="819" on="0"/>
        <pt x="250" y="800" on="1"/>
        <pt x="328" y="735" on="1"/>
        <pt x="406" y="800" on="1"/>
        <pt x="428" y="819" on="0"/>
        <pt x="444" y="819" on="1"/>
        <pt x="461" y="819" on="0"/>
        <pt x="477" y="799" on="0"/>
        <pt x="477" y="789" on="1"/>
        <pt x="477" y="777" on="0"/>
        <pt x="468" y="768" on="1"/>
      </contour>
    </TTGlyph>
    <TTGlyph name="Scedilla" xMin="61" yMin="-190" xMax="597" yMax="644">
      <contour>
        <pt x="133" y="475" on="1"/>
        <pt x="133" y="441" on="0"/>
        <pt x="163" y="390" on="0"/>
        <pt x="185" y="385" on="1"/>
        <pt x="460" y="336" on="1"/>
        <pt x="533" y="322" on="0"/>
        <pt x="597" y="225" on="0"/>
        <pt x="597" y="160" on="1"/>
        <pt x="597" y="90" on="0"/>
        <pt x="509" y="-8" on="0"/>
        <pt x="408" y="-8" on="1"/>
        <pt x="393" y="-8" on="1"/>
        <pt x="398" y="-17" on="0"/>
        <pt x="432" y="-40" on="0"/>
        <pt x="459" y="-73" on="0"/>
        <pt x="459" y="-99" on="1"/>
        <pt x="459" y="-142" on="0"/>
        <pt x="395" y="-190" on="0"/>
        <pt x="353" y="-190" on="1"/>
        <pt x="336" y="-190" on="0"/>
        <pt x="299" y="-181" on="0"/>
        <pt x="264" y="-152" on="0"/>
        <pt x="264" y="-130" on="1"/>
        <pt x="264" y="-116" on="0"/>
        <pt x="280" y="-102" on="0"/>
        <pt x="289" y="-102" on="1"/>
        <pt x="302" y="-102" on="0"/>
        <pt x="346" y="-123" on="0"/>
        <pt x="355" y="-123" on="1"/>
        <pt x="367" y="-123" on="0"/>
        <pt x="381" y="-119" on="0"/>
        <pt x="386" y="-108" on="0"/>
        <pt x="387" y="-104" on="0"/>
        <pt x="387" y="-98" on="1"/>
        <pt x="387" y="-95" on="0"/>
        <pt x="357" y="-75" on="0"/>
        <pt x="323" y="-35" on="0"/>
        <pt x="319" y="-8" on="1"/>
        <pt x="312" y="-8" on="1"/>
        <pt x="180" y="-8" on="0"/>
        <pt x="61" y="68" on="0"/>
        <pt x="61" y="182" on="1"/>
        <pt x="61" y="225" on="0"/>
        <pt x="99" y="225" on="1"/>
        <pt x="115" y="225" on="0"/>
        <pt x="134" y="201" on="0"/>
        <pt x="134" y="182" on="1"/>
        <pt x="134" y="105" on="0"/>
        <pt x="203" y="64" on="0"/>
        <pt x="312" y="64" on="1"/>
        <pt x="430" y="64" on="1"/>
        <pt x="482" y="64" on="0"/>
        <pt x="525" y="127" on="0"/>
        <pt x="525" y="163" on="1"/>
        <pt x="525" y="208" on="0"/>
        <pt x="489" y="261" on="0"/>
        <pt x="473" y="265" on="1"/>
        <pt x="200" y="316" on="1"/>
        <pt x="125" y="331" on="0"/>
        <pt x="61" y="408" on="0"/>
        <pt x="61" y="478" on="1"/>
        <pt x="61" y="510" on="0"/>
        <pt x="80" y="564" on="0"/>
        <pt x="124" y="615" on="0"/>
        <pt x="209" y="644" on="0"/>
        <pt x="268" y="644" on="1"/>
        <pt x="344" y="644" on="1"/>
        <pt x="411" y="644" on="0"/>
        <pt x="496" y="630" on="0"/>
        <pt x="566" y="591" on="0"/>
        <pt x="597" y="515" on="0"/>
        <pt x="597" y="456" on="1"/>
        <pt x="597" y="433" on="0"/>
        <pt x="574" y="413" on="0"/>
        <pt x="560" y="413" on="1"/>
        <pt x="544" y="413" on="0"/>
        <pt x="524" y="437" on="0"/>
        <pt x="524" y="456" on="1"/>
        <pt x="524" y="533" on="0"/>
        <pt x="456" y="572" on="0"/>
        <pt x="344" y="572" on="1"/>
        <pt x="238" y="572" on="1"/>
        <pt x="180" y="572" on="0"/>
        <pt x="133" y="510" on="0"/>
      </contour>
    </TTGlyph>
    <TTGlyph name="Scircumflex" xMin="61" yMin="-8" xMax="597" yMax="819">
      <contour>
        <pt x="133" y="475" on="1"/>
        <pt x="133" y="441" on="0"/>
        <pt x="163" y="390" on="0"/>
        <pt x="185" y="385" on="1"/>
        <pt x="460" y="336" on="1"/>
        <pt x="533" y="322" on="0"/>
        <pt x="597" y="225" on="0"/>
        <pt x="597" y="160" on="1"/>
        <pt x="597" y="90" on="0"/>
        <pt x="509" y="-8" on="0"/>
        <pt x="408" y="-8" on="1"/>
        <pt x="312" y="-8" on="1"/>
        <pt x="180" y="-8" on="0"/>
        <pt x="61" y="68" on="0"/>
        <pt x="61" y="182" on="1"/>
        <pt x="61" y="225" on="0"/>
        <pt x="99" y="225" on="1"/>
        <pt x="115" y="225" on="0"/>
        <pt x="134" y="201" on="0"/>
        <pt x="134" y="182" on="1"/>
        <pt x="134" y="105" on="0"/>
        <pt x="203" y="64" on="0"/>
        <pt x="312" y="64" on="1"/>
        <pt x="430" y="64" on="1"/>
        <pt x="482" y="64" on="0"/>
        <pt x="525" y="127" on="0"/>
        <pt x="525" y="163" on="1"/>
        <pt x="525" y="208" on="0"/>
        <pt x="489" y="261" on="0"/>
        <pt x="473" y="265" on="1"/>
        <pt x="200" y="316" on="1"/>
        <pt x="125" y="331" on="0"/>
        <pt x="61" y="408" on="0"/>
        <pt x="61" y="478" on="1"/>
        <pt x="61" y="510" on="0"/>
        <pt x="80" y="564" on="0"/>
        <pt x="124" y="615" on="0"/>
        <pt x="209" y="644" on="0"/>
        <pt x="268" y="644" on="1"/>
        <pt x="344" y="644" on="1"/>
        <pt x="411" y="644" on="0"/>
        <pt x="496" y="630" on="0"/>
        <pt x="566" y="591" on="0"/>
        <pt x="597" y="515" on="0"/>
        <pt x="597" y="456" on="1"/>
        <pt x="597" y="433" on="0"/>
        <pt x="574" y="413" on="0"/>
        <pt x="560" y="413" on="1"/>
        <pt x="544" y="413" on="0"/>
        <pt x="524" y="437" on="0"/>
        <pt x="524" y="456" on="1"/>
        <pt x="524" y="533" on="0"/>
        <pt x="456" y="572" on="0"/>
        <pt x="344" y="572" on="1"/>
        <pt x="238" y="572" on="1"/>
        <pt x="180" y="572" on="0"/>
        <pt x="133" y="510" on="0"/>
      </contour>
      <contour>
        <pt x="178" y="703" on="1"/>
        <pt x="287" y="819" on="1"/>
        <pt x="354" y="819" on="1"/>
        <pt x="465" y="703" on="1"/>
        <pt x="473" y="693" on="0"/>
        <pt x="473" y="679" on="1"/>
        <pt x="473" y="651" on="0"/>
        <pt x="440" y="651" on="1"/>
        <pt x="433" y="651" on="0"/>
        <pt x="421" y="655" on="0"/>
        <pt x="416" y="659" on="0"/>
        <pt x="410" y="664" on="1"/>
        <pt x="405" y="669" on="1"/>
        <pt x="321" y="738" on="1"/>
        <pt x="238" y="669" on="1"/>
        <pt x="236" y="668" on="0"/>
        <pt x="228" y="660" on="0"/>
        <pt x="222" y="655" on="0"/>
        <pt x="210" y="651" on="0"/>
        <pt x="203" y="651" on="1"/>
        <pt x="170" y="651" on="0"/>
        <pt x="170" y="679" on="1"/>
        <pt x="170" y="693" on="0"/>
      </contour>
    </TTGlyph>
    <TTGlyph name="Scommaaccent" xMin="61" yMin="-205" xMax="597" yMax="644">
      <contour>
        <pt x="347" y="-175" on="1"/>
        <pt x="334" y="-205" on="0"/>
        <pt x="313" y="-205" on="1"/>
        <pt x="281" y="-205" on="0"/>
        <pt x="281" y="-170" on="1"/>
        <pt x="281" y="-170" on="0"/>
        <pt x="284" y="-152" on="1"/>
        <pt x="308" y="-65" on="1"/>
        <pt x="317" y="-34" on="0"/>
        <pt x="343" y="-34" on="1"/>
        <pt x="350" y="-34" on="0"/>
        <pt x="371" y="-38" on="0"/>
        <pt x="394" y="-55" on="0"/>
        <pt x="394" y="-69" on="1"/>
        <pt x="394" y="-78" on="0"/>
        <pt x="387" y="-92" on="1"/>
      </contour>
      <contour>
        <pt x="133" y="475" on="1"/>
        <pt x="133" y="441" on="0"/>
        <pt x="163" y="390" on="0"/>
        <pt x="185" y="385" on="1"/>
        <pt x="460" y="336" on="1"/>
        <pt x="533" y="322" on="0"/>
        <pt x="597" y="225" on="0"/>
        <pt x="597" y="160" on="1"/>
        <pt x="597" y="90" on="0"/>
        <pt x="509" y="-8" on="0"/>
        <pt x="408" y="-8" on="1"/>
        <pt x="312" y="-8" on="1"/>
        <pt x="180" y="-8" on="0"/>
        <pt x="61" y="68" on="0"/>
        <pt x="61" y="182" on="1"/>
        <pt x="61" y="225" on="0"/>
        <pt x="99" y="225" on="1"/>
        <pt x="115" y="225" on="0"/>
        <pt x="134" y="201" on="0"/>
        <pt x="134" y="182" on="1"/>
        <pt x="134" y="105" on="0"/>
        <pt x="203" y="64" on="0"/>
        <pt x="312" y="64" on="1"/>
        <pt x="430" y="64" on="1"/>
        <pt x="482" y="64" on="0"/>
        <pt x="525" y="127" on="0"/>
        <pt x="525" y="163" on="1"/>
        <pt x="525" y="208" on="0"/>
        <pt x="489" y="261" on="0"/>
        <pt x="473" y="265" on="1"/>
        <pt x="200" y="316" on="1"/>
        <pt x="125" y="331" on="0"/>
        <pt x="61" y="408" on="0"/>
        <pt x="61" y="478" on="1"/>
        <pt x="61" y="510" on="0"/>
        <pt x="80" y="564" on="0"/>
        <pt x="124" y="615" on="0"/>
        <pt x="209" y="644" on="0"/>
        <pt x="268" y="644" on="1"/>
        <pt x="344" y="644" on="1"/>
        <pt x="411" y="644" on="0"/>
        <pt x="496" y="630" on="0"/>
        <pt x="566" y="591" on="0"/>
        <pt x="597" y="515" on="0"/>
        <pt x="597" y="456" on="1"/>
        <pt x="597" y="433" on="0"/>
        <pt x="574" y="413" on="0"/>
        <pt x="560" y="413" on="1"/>
        <pt x="544" y="413" on="0"/>
        <pt x="524" y="437" on="0"/>
        <pt x="524" y="456" on="1"/>
        <pt x="524" y="533" on="0"/>
        <pt x="456" y="572" on="0"/>
        <pt x="344" y="572" on="1"/>
        <pt x="238" y="572" on="1"/>
        <pt x="180" y="572" on="0"/>
        <pt x="133" y="510" on="0"/>
      </contour>
    </TTGlyph>
    <TTGlyph name="Shacyrillic" xMin="85" yMin="0" xMax="651" yMax="631">
      <contour>
        <pt x="85" y="0" on="1"/>
        <pt x="85" y="586" on="1"/>
        <pt x="85" y="631" on="0"/>
        <pt x="120" y="631" on="1"/>
        <pt x="157" y="631" on="0"/>
        <pt x="157" y="586" on="1"/>
        <pt x="157" y="72" on="1"/>
        <pt x="332" y="72" on="1"/>
        <pt x="332" y="586" on="1"/>
        <pt x="332" y="631" on="0"/>
        <pt x="367" y="631" on="1"/>
        <pt x="404" y="631" on="0"/>
        <pt x="404" y="586" on="1"/>
        <pt x="404" y="72" on="1"/>
        <pt x="579" y="72" on="1"/>
        <pt x="579" y="586" on="1"/>
        <pt x="579" y="631" on="0"/>
        <pt x="651" y="631" on="0"/>
        <pt x="651" y="586" on="1"/>
        <pt x="651" y="0" on="1"/>
      </contour>
    </TTGlyph>
    <TTGlyph name="Shchacyrillic" xMin="85" yMin="-92" xMax="709" yMax="631">
      <contour>
        <pt x="329" y="586" on="1"/>
        <pt x="329" y="631" on="0"/>
        <pt x="364" y="631" on="1"/>
        <pt x="401" y="631" on="0"/>
        <pt x="401" y="586" on="1"/>
        <pt x="401" y="72" on="1"/>
        <pt x="579" y="72" on="1"/>
        <pt x="579" y="586" on="1"/>
        <pt x="579" y="631" on="0"/>
        <pt x="651" y="631" on="0"/>
        <pt x="651" y="586" on="1"/>
        <pt x="651" y="72" on="1"/>
        <pt x="709" y="70" on="0"/>
        <pt x="709" y="0" on="1"/>
        <pt x="709" y="-47" on="1"/>
        <pt x="709" y="-92" on="0"/>
        <pt x="637" y="-92" on="0"/>
        <pt x="637" y="-47" on="1"/>
        <pt x="637" y="0" on="1"/>
        <pt x="85" y="0" on="1"/>
        <pt x="85" y="586" on="1"/>
        <pt x="85" y="631" on="0"/>
        <pt x="120" y="631" on="1"/>
        <pt x="157" y="631" on="0"/>
        <pt x="157" y="586" on="1"/>
        <pt x="157" y="72" on="1"/>
        <pt x="329" y="72" on="1"/>
      </contour>
    </TTGlyph>
    <TTGlyph name="Sigma" xMin="32" yMin="0" xMax="577" yMax="647">
      <contour>
        <pt x="32" y="613" on="1"/>
        <pt x="32" y="647" on="0"/>
        <pt x="73" y="647" on="1"/>
        <pt x="533" y="647" on="1"/>
        <pt x="557" y="647" on="0"/>
        <pt x="577" y="623" on="0"/>
        <pt x="577" y="609" on="1"/>
        <pt x="577" y="596" on="0"/>
        <pt x="557" y="575" on="0"/>
        <pt x="533" y="575" on="1"/>
        <pt x="147" y="575" on="1"/>
        <pt x="369" y="351" on="1"/>
        <pt x="369" y="350" on="0"/>
        <pt x="378" y="341" on="0"/>
        <pt x="384" y="329" on="0"/>
        <pt x="384" y="323" on="1"/>
        <pt x="384" y="311" on="0"/>
        <pt x="370" y="295" on="1"/>
        <pt x="147" y="72" on="1"/>
        <pt x="533" y="72" on="1"/>
        <pt x="557" y="72" on="0"/>
        <pt x="577" y="48" on="0"/>
        <pt x="577" y="34" on="1"/>
        <pt x="577" y="21" on="0"/>
        <pt x="557" y="0" on="0"/>
        <pt x="533" y="0" on="1"/>
        <pt x="67" y="0" on="1"/>
        <pt x="53" y="0" on="0"/>
        <pt x="32" y="19" on="0"/>
        <pt x="32" y="34" on="1"/>
        <pt x="32" y="47" on="0"/>
        <pt x="44" y="62" on="1"/>
        <pt x="291" y="323" on="1"/>
        <pt x="44" y="584" on="1"/>
        <pt x="32" y="596" on="0"/>
      </contour>
    </TTGlyph>
    <TTGlyph name="Softsigncyrillic" xMin="84" yMin="-7" xMax="546" yMax="636">
      <contour>
        <pt x="309" y="476" on="1"/>
        <pt x="416" y="476" on="0"/>
        <pt x="546" y="333" on="0"/>
        <pt x="546" y="135" on="0"/>
        <pt x="416" y="-7" on="0"/>
        <pt x="309" y="-7" on="1"/>
        <pt x="118" y="-7" on="1"/>
        <pt x="84" y="-7" on="0"/>
        <pt x="84" y="36" on="1"/>
        <pt x="84" y="596" on="1"/>
        <pt x="84" y="636" on="0"/>
        <pt x="119" y="636" on="1"/>
        <pt x="156" y="636" on="0"/>
        <pt x="156" y="597" on="1"/>
        <pt x="156" y="476" on="1"/>
      </contour>
      <contour>
        <pt x="309" y="404" on="1"/>
        <pt x="156" y="404" on="1"/>
        <pt x="156" y="65" on="1"/>
        <pt x="309" y="65" on="1"/>
        <pt x="391" y="65" on="0"/>
        <pt x="474" y="165" on="0"/>
        <pt x="474" y="303" on="0"/>
        <pt x="390" y="404" on="0"/>
      </contour>
    </TTGlyph>
    <TTGlyph name="T" xMin="26" yMin="-7" xMax="493" yMax="636">
      <contour>
        <pt x="450" y="636" on="1"/>
        <pt x="493" y="636" on="0"/>
        <pt x="493" y="599" on="1"/>
        <pt x="493" y="564" on="0"/>
        <pt x="450" y="564" on="1"/>
        <pt x="302" y="564" on="1"/>
        <pt x="302" y="33" on="1"/>
        <pt x="302" y="12" on="0"/>
        <pt x="275" y="-7" on="0"/>
        <pt x="243" y="-7" on="0"/>
        <pt x="219" y="11" on="0"/>
        <pt x="219" y="33" on="1"/>
        <pt x="219" y="564" on="1"/>
        <pt x="69" y="564" on="1"/>
        <pt x="46" y="564" on="0"/>
        <pt x="26" y="586" on="0"/>
        <pt x="26" y="614" on="0"/>
        <pt x="46" y="636" on="0"/>
        <pt x="69" y="636" on="1"/>
      </contour>
    </TTGlyph>
    <TTGlyph name="Tau" xMin="26" yMin="-7" xMax="493" yMax="636">
      <component glyphName="T" x="0" y="0" flags="0x1004"/>
    </TTGlyph>
    <TTGlyph name="Tbar" xMin="26" yMin="-7" xMax="493" yMax="636">
      <contour>
        <pt x="450" y="636" on="1"/>
        <pt x="493" y="636" on="0"/>
        <pt x="493" y="599" on="1"/>
        <pt x="493" y="564" on="0"/>
        <pt x="450" y="564" on="1"/>
        <pt x="302" y="564" on="1"/>
        <pt x="302" y="376" on="1"/>
        <pt x="376" y="376" on="1"/>
        <pt x="420" y="376" on="0"/>
        <pt x="420" y="338" on="1"/>
        <pt x="420" y="322" on="0"/>
        <pt x="395" y="303" on="0"/>
        <pt x="376" y="303" on="1"/>
        <pt x="302" y="303" on="1"/>
        <pt x="302" y="33" on="1"/>
        <pt x="302" y="12" on="0"/>
        <pt x="275" y="-7" on="0"/>
        <pt x="243" y="-7" on="0"/>
        <pt x="219" y="11" on="0"/>
        <pt x="219" y="33" on="1"/>
        <pt x="219" y="303" on="1"/>
        <pt x="142" y="303" on="1"/>
        <pt x="101" y="303" on="0"/>
        <pt x="101" y="340" on="1"/>
        <pt x="101" y="353" on="0"/>
        <pt x="120" y="376" on="0"/>
        <pt x="142" y="376" on="1"/>
        <pt x="219" y="376" on="1"/>
        <pt x="219" y="564" on="1"/>
        <pt x="69" y="564" on="1"/>
        <pt x="46" y="564" on="0"/>
        <pt x="26" y="586" on="0"/>
        <pt x="26" y="614" on="0"/>
        <pt x="46" y="636" on="0"/>
        <pt x="69" y="636" on="1"/>
      </contour>
    </TTGlyph>
    <TTGlyph name="Tcaron" xMin="26" yMin="-7" xMax="493" yMax="819">
      <contour>
        <pt x="291" y="655" on="1"/>
        <pt x="227" y="655" on="1"/>
        <pt x="119" y="768" on="1"/>
        <pt x="110" y="777" on="0"/>
        <pt x="110" y="789" on="1"/>
        <pt x="110" y="799" on="0"/>
        <pt x="126" y="819" on="0"/>
        <pt x="143" y="819" on="1"/>
        <pt x="159" y="819" on="0"/>
        <pt x="181" y="800" on="1"/>
        <pt x="259" y="735" on="1"/>
        <pt x="337" y="800" on="1"/>
        <pt x="359" y="819" on="0"/>
        <pt x="375" y="819" on="1"/>
        <pt x="392" y="819" on="0"/>
        <pt x="408" y="799" on="0"/>
        <pt x="408" y="789" on="1"/>
        <pt x="408" y="777" on="0"/>
        <pt x="399" y="768" on="1"/>
      </contour>
      <contour>
        <pt x="450" y="636" on="1"/>
        <pt x="493" y="636" on="0"/>
        <pt x="493" y="599" on="1"/>
        <pt x="493" y="564" on="0"/>
        <pt x="450" y="564" on="1"/>
        <pt x="302" y="564" on="1"/>
        <pt x="302" y="33" on="1"/>
        <pt x="302" y="12" on="0"/>
        <pt x="275" y="-7" on="0"/>
        <pt x="243" y="-7" on="0"/>
        <pt x="219" y="11" on="0"/>
        <pt x="219" y="33" on="1"/>
        <pt x="219" y="564" on="1"/>
        <pt x="69" y="564" on="1"/>
        <pt x="46" y="564" on="0"/>
        <pt x="26" y="586" on="0"/>
        <pt x="26" y="614" on="0"/>
        <pt x="46" y="636" on="0"/>
        <pt x="69" y="636" on="1"/>
      </contour>
    </TTGlyph>
    <TTGlyph name="Tcommaaccent" xMin="27" yMin="-190" xMax="494" yMax="636">
      <contour>
        <pt x="303" y="5" on="1"/>
        <pt x="303" y="-7" on="0"/>
        <pt x="323" y="-29" on="0"/>
        <pt x="346" y="-44" on="0"/>
        <pt x="366" y="-77" on="0"/>
        <pt x="366" y="-99" on="1"/>
        <pt x="366" y="-142" on="0"/>
        <pt x="302" y="-190" on="0"/>
        <pt x="260" y="-190" on="1"/>
        <pt x="244" y="-190" on="0"/>
        <pt x="206" y="-181" on="0"/>
        <pt x="171" y="-152" on="0"/>
        <pt x="171" y="-130" on="1"/>
        <pt x="171" y="-116" on="0"/>
        <pt x="187" y="-102" on="0"/>
        <pt x="196" y="-102" on="1"/>
        <pt x="209" y="-102" on="0"/>
        <pt x="253" y="-123" on="0"/>
        <pt x="262" y="-123" on="1"/>
        <pt x="274" y="-123" on="0"/>
        <pt x="288" y="-119" on="0"/>
        <pt x="293" y="-108" on="0"/>
        <pt x="294" y="-104" on="0"/>
        <pt x="294" y="-98" on="1"/>
        <pt x="294" y="-95" on="0"/>
        <pt x="257" y="-72" on="0"/>
        <pt x="220" y="-26" on="0"/>
        <pt x="220" y="5" on="1"/>
        <pt x="220" y="564" on="1"/>
        <pt x="70" y="564" on="1"/>
        <pt x="47" y="564" on="0"/>
        <pt x="27" y="586" on="0"/>
        <pt x="27" y="614" on="0"/>
        <pt x="47" y="636" on="0"/>
        <pt x="70" y="636" on="1"/>
        <pt x="451" y="636" on="1"/>
        <pt x="494" y="636" on="0"/>
        <pt x="494" y="599" on="1"/>
        <pt x="494" y="564" on="0"/>
        <pt x="451" y="564" on="1"/>
        <pt x="303" y="564" on="1"/>
      </contour>
    </TTGlyph>
    <TTGlyph name="Tecyrillic" xMin="26" yMin="-7" xMax="493" yMax="636">
      <component glyphName="T" x="0" y="0" flags="0x1004"/>
    </TTGlyph>
    <TTGlyph name="Theta" xMin="64" yMin="-9" xMax="568" yMax="645">
      <contour>
        <pt x="220" y="281" on="1"/>
        <pt x="200" y="281" on="0"/>
        <pt x="176" y="302" on="0"/>
        <pt x="176" y="318" on="1"/>
        <pt x="176" y="354" on="0"/>
        <pt x="220" y="354" on="1"/>
        <pt x="409" y="354" on="1"/>
        <pt x="430" y="354" on="0"/>
        <pt x="456" y="334" on="0"/>
        <pt x="456" y="318" on="1"/>
        <pt x="456" y="301" on="0"/>
        <pt x="429" y="281" on="0"/>
        <pt x="409" y="281" on="1"/>
      </contour>
      <contour>
        <pt x="316" y="-9" on="1"/>
        <pt x="202" y="-9" on="0"/>
        <pt x="64" y="118" on="0"/>
        <pt x="64" y="230" on="1"/>
        <pt x="64" y="406" on="1"/>
        <pt x="64" y="518" on="0"/>
        <pt x="202" y="645" on="0"/>
        <pt x="316" y="645" on="1"/>
        <pt x="429" y="645" on="0"/>
        <pt x="568" y="517" on="0"/>
        <pt x="568" y="406" on="1"/>
        <pt x="568" y="230" on="1"/>
        <pt x="568" y="119" on="0"/>
        <pt x="429" y="-9" on="0"/>
      </contour>
      <contour>
        <pt x="405" y="573" on="0"/>
        <pt x="227" y="573" on="0"/>
        <pt x="136" y="484" on="0"/>
        <pt x="136" y="403" on="1"/>
        <pt x="136" y="233" on="1"/>
        <pt x="136" y="151" on="0"/>
        <pt x="228" y="63" on="0"/>
        <pt x="404" y="63" on="0"/>
        <pt x="496" y="151" on="0"/>
        <pt x="496" y="233" on="1"/>
        <pt x="496" y="403" on="1"/>
        <pt x="496" y="484" on="0"/>
      </contour>
    </TTGlyph>
    <TTGlyph name="Thorn" xMin="84" yMin="-7" xMax="525" yMax="616">
      <contour>
        <pt x="156" y="476" on="1"/>
        <pt x="335" y="476" on="1"/>
        <pt x="426" y="476" on="0"/>
        <pt x="525" y="394" on="0"/>
        <pt x="525" y="317" on="1"/>
        <pt x="525" y="238" on="0"/>
        <pt x="425" y="155" on="0"/>
        <pt x="333" y="155" on="1"/>
        <pt x="156" y="155" on="1"/>
        <pt x="156" y="35" on="1"/>
        <pt x="156" y="-7" on="0"/>
        <pt x="119" y="-7" on="1"/>
        <pt x="84" y="-7" on="0"/>
        <pt x="84" y="35" on="1"/>
        <pt x="84" y="573" on="1"/>
        <pt x="84" y="596" on="0"/>
        <pt x="106" y="616" on="0"/>
        <pt x="134" y="616" on="0"/>
        <pt x="156" y="596" on="0"/>
        <pt x="156" y="573" on="1"/>
      </contour>
      <contour>
        <pt x="284" y="404" on="1"/>
        <pt x="156" y="404" on="1"/>
        <pt x="156" y="218" on="1"/>
        <pt x="283" y="218" on="1"/>
        <pt x="384" y="218" on="0"/>
        <pt x="452" y="254" on="0"/>
        <pt x="452" y="368" on="0"/>
        <pt x="382" y="404" on="0"/>
      </contour>
    </TTGlyph>
    <TTGlyph name="Tsecyrillic" xMin="85" yMin="-92" xMax="579" yMax="631">
      <contour>
        <pt x="579" y="-47" on="1"/>
        <pt x="579" y="-92" on="0"/>
        <pt x="507" y="-92" on="0"/>
        <pt x="507" y="-47" on="1"/>
        <pt x="507" y="0" on="1"/>
        <pt x="85" y="0" on="1"/>
        <pt x="85" y="586" on="1"/>
        <pt x="85" y="631" on="0"/>
        <pt x="120" y="631" on="1"/>
        <pt x="157" y="631" on="0"/>
        <pt x="157" y="586" on="1"/>
        <pt x="157" y="72" on="1"/>
        <pt x="449" y="72" on="1"/>
        <pt x="449" y="586" on="1"/>
        <pt x="449" y="631" on="0"/>
        <pt x="521" y="631" on="0"/>
        <pt x="521" y="586" on="1"/>
        <pt x="521" y="72" on="1"/>
        <pt x="579" y="70" on="0"/>
        <pt x="579" y="0" on="1"/>
      </contour>
    </TTGlyph>
    <TTGlyph name="Tshecyrillic" xMin="26" yMin="-7" xMax="684" yMax="636">
      <contour>
        <pt x="440" y="564" on="1"/>
        <pt x="290" y="564" on="1"/>
        <pt x="290" y="426" on="1"/>
        <pt x="356" y="476" on="0"/>
        <pt x="454" y="476" on="1"/>
        <pt x="572" y="476" on="0"/>
        <pt x="684" y="400" on="0"/>
        <pt x="684" y="292" on="1"/>
        <pt x="684" y="38" on="1"/>
        <pt x="684" y="-7" on="0"/>
        <pt x="649" y="-7" on="1"/>
        <pt x="612" y="-7" on="0"/>
        <pt x="612" y="37" on="1"/>
        <pt x="612" y="290" on="1"/>
        <pt x="612" y="363" on="0"/>
        <pt x="547" y="404" on="0"/>
        <pt x="454" y="404" on="1"/>
        <pt x="374" y="404" on="0"/>
        <pt x="290" y="319" on="0"/>
        <pt x="290" y="238" on="1"/>
        <pt x="290" y="37" on="1"/>
        <pt x="290" y="-7" on="0"/>
        <pt x="251" y="-7" on="1"/>
        <pt x="215" y="-7" on="0"/>
        <pt x="215" y="35" on="1"/>
        <pt x="215" y="564" on="1"/>
        <pt x="69" y="564" on="1"/>
        <pt x="46" y="564" on="0"/>
        <pt x="26" y="586" on="0"/>
        <pt x="26" y="614" on="0"/>
        <pt x="46" y="636" on="0"/>
        <pt x="69" y="636" on="1"/>
        <pt x="440" y="636" on="1"/>
        <pt x="486" y="636" on="0"/>
        <pt x="486" y="599" on="1"/>
        <pt x="486" y="564" on="0"/>
      </contour>
    </TTGlyph>
    <TTGlyph name="U" xMin="77" yMin="-9" xMax="581" yMax="643">
      <contour>
        <pt x="509" y="603" on="1"/>
        <pt x="509" y="643" on="0"/>
        <pt x="546" y="643" on="1"/>
        <pt x="581" y="643" on="0"/>
        <pt x="581" y="602" on="1"/>
        <pt x="581" y="230" on="1"/>
        <pt x="581" y="119" on="0"/>
        <pt x="442" y="-9" on="0"/>
        <pt x="329" y="-9" on="1"/>
        <pt x="215" y="-9" on="0"/>
        <pt x="77" y="118" on="0"/>
        <pt x="77" y="230" on="1"/>
        <pt x="77" y="602" on="1"/>
        <pt x="77" y="643" on="0"/>
        <pt x="113" y="643" on="1"/>
        <pt x="127" y="643" on="0"/>
        <pt x="149" y="624" on="0"/>
        <pt x="149" y="603" on="1"/>
        <pt x="149" y="233" on="1"/>
        <pt x="149" y="151" on="0"/>
        <pt x="241" y="63" on="0"/>
        <pt x="417" y="63" on="0"/>
        <pt x="509" y="151" on="0"/>
        <pt x="509" y="233" on="1"/>
      </contour>
    </TTGlyph>
    <TTGlyph name="Uacute" xMin="77" yMin="-9" xMax="581" yMax="819">
      <component glyphName="acute" x="275" y="126" flags="0x1004"/>
      <component glyphName="U" x="0" y="0" flags="0x1204"/>
    </TTGlyph>
    <TTGlyph name="Ubreve" xMin="77" yMin="-9" xMax="581" yMax="762">
      <contour>
        <pt x="460" y="762" on="1"/>
        <pt x="460" y="696" on="0"/>
        <pt x="375" y="636" on="0"/>
        <pt x="330" y="636" on="1"/>
        <pt x="310" y="636" on="0"/>
        <pt x="269" y="648" on="0"/>
        <pt x="227" y="675" on="0"/>
        <pt x="200" y="727" on="0"/>
        <pt x="200" y="762" on="1"/>
        <pt x="273" y="762" on="1"/>
        <pt x="273" y="710" on="0"/>
        <pt x="387" y="710" on="0"/>
        <pt x="387" y="762" on="1"/>
      </contour>
      <contour>
        <pt x="509" y="603" on="1"/>
        <pt x="509" y="643" on="0"/>
        <pt x="546" y="643" on="1"/>
        <pt x="581" y="643" on="0"/>
        <pt x="581" y="602" on="1"/>
        <pt x="581" y="230" on="1"/>
        <pt x="581" y="119" on="0"/>
        <pt x="442" y="-9" on="0"/>
        <pt x="329" y="-9" on="1"/>
        <pt x="215" y="-9" on="0"/>
        <pt x="77" y="118" on="0"/>
        <pt x="77" y="230" on="1"/>
        <pt x="77" y="602" on="1"/>
        <pt x="77" y="643" on="0"/>
        <pt x="113" y="643" on="1"/>
        <pt x="127" y="643" on="0"/>
        <pt x="149" y="624" on="0"/>
        <pt x="149" y="603" on="1"/>
        <pt x="149" y="233" on="1"/>
        <pt x="149" y="151" on="0"/>
        <pt x="241" y="63" on="0"/>
        <pt x="417" y="63" on="0"/>
        <pt x="509" y="151" on="0"/>
        <pt x="509" y="233" on="1"/>
      </contour>
    </TTGlyph>
    <TTGlyph name="Ucircumflex" xMin="77" yMin="-9" xMax="581" yMax="819">
      <component glyphName="uni0302" x="631" y="141" flags="0x1004"/>
      <component glyphName="U" x="0" y="0" flags="0x1204"/>
    </TTGlyph>
    <TTGlyph name="Ucyrillic" xMin="44" yMin="-6" xMax="548" yMax="636">
      <contour>
        <pt x="293" y="227" on="1"/>
        <pt x="476" y="609" on="1"/>
        <pt x="488" y="636" on="0"/>
        <pt x="514" y="636" on="1"/>
        <pt x="527" y="636" on="0"/>
        <pt x="548" y="618" on="0"/>
        <pt x="548" y="604" on="1"/>
        <pt x="548" y="600" on="0"/>
        <pt x="545" y="588" on="1"/>
        <pt x="277" y="46" on="1"/>
        <pt x="265" y="22" on="0"/>
        <pt x="208" y="-6" on="0"/>
        <pt x="174" y="-6" on="1"/>
        <pt x="109" y="-6" on="0"/>
        <pt x="64" y="61" on="0"/>
        <pt x="64" y="116" on="1"/>
        <pt x="64" y="161" on="0"/>
        <pt x="136" y="161" on="0"/>
        <pt x="136" y="118" on="1"/>
        <pt x="136" y="87" on="0"/>
        <pt x="152" y="66" on="0"/>
        <pt x="194" y="66" on="0"/>
        <pt x="207" y="88" on="1"/>
        <pt x="245" y="158" on="1"/>
        <pt x="48" y="587" on="1"/>
        <pt x="44" y="597" on="0"/>
        <pt x="44" y="604" on="1"/>
        <pt x="44" y="636" on="0"/>
        <pt x="78" y="636" on="1"/>
        <pt x="102" y="636" on="0"/>
        <pt x="116" y="608" on="1"/>
      </contour>
    </TTGlyph>
    <TTGlyph name="Udieresis" xMin="77" yMin="-9" xMax="581" yMax="808">
      <component glyphName="dieresis" x="134" y="127" flags="0x1004"/>
      <component glyphName="U" x="0" y="0" flags="0x1204"/>
    </TTGlyph>
    <TTGlyph name="Ugrave" xMin="77" yMin="-9" xMax="581" yMax="819">
      <component glyphName="grave" x="194" y="126" flags="0x1004"/>
      <component glyphName="U" x="0" y="0" flags="0x1204"/>
    </TTGlyph>
    <TTGlyph name="Uhorn" xMin="77" yMin="-9" xMax="711" yMax="676">
      <contour>
        <pt x="509" y="603" on="1"/>
        <pt x="509" y="643" on="0"/>
        <pt x="546" y="643" on="1"/>
        <pt x="581" y="643" on="0"/>
        <pt x="581" y="602" on="1"/>
        <pt x="581" y="543" on="1"/>
        <pt x="614" y="546" on="0"/>
        <pt x="637" y="563" on="0"/>
        <pt x="637" y="580" on="1"/>
        <pt x="637" y="593" on="0"/>
        <pt x="599" y="621" on="0"/>
        <pt x="599" y="641" on="1"/>
        <pt x="599" y="659" on="0"/>
        <pt x="624" y="676" on="0"/>
        <pt x="634" y="676" on="1"/>
        <pt x="651" y="676" on="0"/>
        <pt x="664" y="663" on="1"/>
        <pt x="668" y="658" on="1"/>
        <pt x="673" y="654" on="0"/>
        <pt x="687" y="639" on="0"/>
        <pt x="701" y="618" on="0"/>
        <pt x="711" y="590" on="0"/>
        <pt x="711" y="576" on="1"/>
        <pt x="711" y="482" on="0"/>
        <pt x="581" y="472" on="1"/>
        <pt x="581" y="230" on="1"/>
        <pt x="581" y="119" on="0"/>
        <pt x="442" y="-9" on="0"/>
        <pt x="329" y="-9" on="1"/>
        <pt x="215" y="-9" on="0"/>
        <pt x="77" y="118" on="0"/>
        <pt x="77" y="230" on="1"/>
        <pt x="77" y="602" on="1"/>
        <pt x="77" y="643" on="0"/>
        <pt x="113" y="643" on="1"/>
        <pt x="127" y="643" on="0"/>
        <pt x="149" y="624" on="0"/>
        <pt x="149" y="603" on="1"/>
        <pt x="149" y="233" on="1"/>
        <pt x="149" y="151" on="0"/>
        <pt x="241" y="63" on="0"/>
        <pt x="417" y="63" on="0"/>
        <pt x="509" y="151" on="0"/>
        <pt x="509" y="233" on="1"/>
      </contour>
    </TTGlyph>
    <TTGlyph name="Uhungarumlaut" xMin="77" yMin="-9" xMax="581" yMax="819">
      <contour>
        <pt x="509" y="603" on="1"/>
        <pt x="509" y="643" on="0"/>
        <pt x="546" y="643" on="1"/>
        <pt x="581" y="643" on="0"/>
        <pt x="581" y="602" on="1"/>
        <pt x="581" y="230" on="1"/>
        <pt x="581" y="119" on="0"/>
        <pt x="442" y="-9" on="0"/>
        <pt x="329" y="-9" on="1"/>
        <pt x="215" y="-9" on="0"/>
        <pt x="77" y="118" on="0"/>
        <pt x="77" y="230" on="1"/>
        <pt x="77" y="602" on="1"/>
        <pt x="77" y="643" on="0"/>
        <pt x="113" y="643" on="1"/>
        <pt x="127" y="643" on="0"/>
        <pt x="149" y="624" on="0"/>
        <pt x="149" y="603" on="1"/>
        <pt x="149" y="233" on="1"/>
        <pt x="149" y="151" on="0"/>
        <pt x="241" y="63" on="0"/>
        <pt x="417" y="63" on="0"/>
        <pt x="509" y="151" on="0"/>
        <pt x="509" y="233" on="1"/>
      </contour>
      <contour>
        <pt x="232" y="621" on="1"/>
        <pt x="220" y="621" on="0"/>
        <pt x="197" y="641" on="0"/>
        <pt x="197" y="656" on="1"/>
        <pt x="197" y="670" on="0"/>
        <pt x="208" y="685" on="1"/>
        <pt x="304" y="800" on="1"/>
        <pt x="321" y="819" on="0"/>
        <pt x="337" y="819" on="1"/>
        <pt x="351" y="819" on="0"/>
        <pt x="372" y="799" on="0"/>
        <pt x="372" y="767" on="0"/>
        <pt x="361" y="755" on="1"/>
        <pt x="265" y="640" on="1"/>
        <pt x="248" y="621" on="0"/>
      </contour>
      <contour>
        <pt x="392" y="621" on="1"/>
        <pt x="380" y="621" on="0"/>
        <pt x="357" y="641" on="0"/>
        <pt x="357" y="656" on="1"/>
        <pt x="357" y="670" on="0"/>
        <pt x="368" y="685" on="1"/>
        <pt x="464" y="800" on="1"/>
        <pt x="481" y="819" on="0"/>
        <pt x="497" y="819" on="1"/>
        <pt x="511" y="819" on="0"/>
        <pt x="532" y="799" on="0"/>
        <pt x="532" y="767" on="0"/>
        <pt x="521" y="755" on="1"/>
        <pt x="425" y="640" on="1"/>
        <pt x="408" y="621" on="0"/>
      </contour>
    </TTGlyph>
    <TTGlyph name="Umacron" xMin="77" yMin="-9" xMax="581" yMax="779">
      <contour>
        <pt x="450" y="779" on="1"/>
        <pt x="494" y="779" on="0"/>
        <pt x="494" y="741" on="1"/>
        <pt x="494" y="725" on="0"/>
        <pt x="469" y="706" on="0"/>
        <pt x="450" y="706" on="1"/>
        <pt x="205" y="706" on="1"/>
        <pt x="164" y="706" on="0"/>
        <pt x="164" y="743" on="1"/>
        <pt x="164" y="756" on="0"/>
        <pt x="183" y="779" on="0"/>
        <pt x="205" y="779" on="1"/>
      </contour>
      <contour>
        <pt x="509" y="603" on="1"/>
        <pt x="509" y="643" on="0"/>
        <pt x="546" y="643" on="1"/>
        <pt x="581" y="643" on="0"/>
        <pt x="581" y="602" on="1"/>
        <pt x="581" y="230" on="1"/>
        <pt x="581" y="119" on="0"/>
        <pt x="442" y="-9" on="0"/>
        <pt x="329" y="-9" on="1"/>
        <pt x="215" y="-9" on="0"/>
        <pt x="77" y="118" on="0"/>
        <pt x="77" y="230" on="1"/>
        <pt x="77" y="602" on="1"/>
        <pt x="77" y="643" on="0"/>
        <pt x="113" y="643" on="1"/>
        <pt x="127" y="643" on="0"/>
        <pt x="149" y="624" on="0"/>
        <pt x="149" y="603" on="1"/>
        <pt x="149" y="233" on="1"/>
        <pt x="149" y="151" on="0"/>
        <pt x="241" y="63" on="0"/>
        <pt x="417" y="63" on="0"/>
        <pt x="509" y="151" on="0"/>
        <pt x="509" y="233" on="1"/>
      </contour>
    </TTGlyph>
    <TTGlyph name="Uogonek" xMin="78" yMin="-204" xMax="582" yMax="643">
      <contour>
        <pt x="312" y="-90" on="1"/>
        <pt x="312" y="-134" on="0"/>
        <pt x="344" y="-134" on="1"/>
        <pt x="358" y="-134" on="0"/>
        <pt x="403" y="-117" on="0"/>
        <pt x="410" y="-117" on="1"/>
        <pt x="435" y="-117" on="0"/>
        <pt x="435" y="-144" on="1"/>
        <pt x="435" y="-166" on="0"/>
        <pt x="400" y="-195" on="0"/>
        <pt x="363" y="-204" on="0"/>
        <pt x="346" y="-204" on="1"/>
        <pt x="300" y="-204" on="0"/>
        <pt x="240" y="-141" on="0"/>
        <pt x="240" y="-90" on="1"/>
        <pt x="240" y="-58" on="0"/>
        <pt x="279" y="-5" on="1"/>
        <pt x="187" y="9" on="0"/>
        <pt x="78" y="132" on="0"/>
        <pt x="78" y="230" on="1"/>
        <pt x="78" y="602" on="1"/>
        <pt x="78" y="643" on="0"/>
        <pt x="114" y="643" on="1"/>
        <pt x="128" y="643" on="0"/>
        <pt x="150" y="624" on="0"/>
        <pt x="150" y="603" on="1"/>
        <pt x="150" y="233" on="1"/>
        <pt x="150" y="151" on="0"/>
        <pt x="242" y="63" on="0"/>
        <pt x="418" y="63" on="0"/>
        <pt x="510" y="151" on="0"/>
        <pt x="510" y="233" on="1"/>
        <pt x="510" y="603" on="1"/>
        <pt x="510" y="643" on="0"/>
        <pt x="547" y="643" on="1"/>
        <pt x="582" y="643" on="0"/>
        <pt x="582" y="602" on="1"/>
        <pt x="582" y="230" on="1"/>
        <pt x="582" y="130" on="0"/>
        <pt x="469" y="5" on="0"/>
        <pt x="373" y="-6" on="1"/>
        <pt x="351" y="-21" on="0"/>
        <pt x="321" y="-61" on="0"/>
        <pt x="312" y="-85" on="0"/>
      </contour>
    </TTGlyph>
    <TTGlyph name="Upsilon" xMin="18" yMin="-7" xMax="544" yMax="643">
      <component glyphName="Y" x="0" y="0" flags="0x1004"/>
    </TTGlyph>
    <TTGlyph name="Upsilondieresis" xMin="18" yMin="-7" xMax="544" yMax="808">
      <component glyphName="Ydieresis" x="0" y="0" flags="0x1004"/>
    </TTGlyph>
    <TTGlyph name="Upsilontonos" xMin="20" yMin="-7" xMax="655" yMax="793">
      <component glyphName="tonos" x="-50" y="102" flags="0x1004"/>
      <component glyphName="Upsilon" x="111" y="0" flags="0x1004"/>
    </TTGlyph>
    <TTGlyph name="Uring" xMin="77" yMin="-9" xMax="581" yMax="799">
      <contour>
        <pt x="509" y="603" on="1"/>
        <pt x="509" y="643" on="0"/>
        <pt x="546" y="643" on="1"/>
        <pt x="581" y="643" on="0"/>
        <pt x="581" y="602" on="1"/>
        <pt x="581" y="230" on="1"/>
        <pt x="581" y="119" on="0"/>
        <pt x="442" y="-9" on="0"/>
        <pt x="329" y="-9" on="1"/>
        <pt x="215" y="-9" on="0"/>
        <pt x="77" y="118" on="0"/>
        <pt x="77" y="230" on="1"/>
        <pt x="77" y="602" on="1"/>
        <pt x="77" y="643" on="0"/>
        <pt x="113" y="643" on="1"/>
        <pt x="127" y="643" on="0"/>
        <pt x="149" y="624" on="0"/>
        <pt x="149" y="603" on="1"/>
        <pt x="149" y="233" on="1"/>
        <pt x="149" y="151" on="0"/>
        <pt x="241" y="63" on="0"/>
        <pt x="417" y="63" on="0"/>
        <pt x="509" y="151" on="0"/>
        <pt x="509" y="233" on="1"/>
      </contour>
      <contour>
        <pt x="294" y="726" on="0"/>
        <pt x="294" y="698" on="0"/>
        <pt x="314" y="679" on="0"/>
        <pt x="340" y="679" on="0"/>
        <pt x="360" y="698" on="0"/>
        <pt x="360" y="726" on="0"/>
        <pt x="340" y="745" on="0"/>
        <pt x="314" y="745" on="0"/>
      </contour>
      <contour>
        <pt x="291" y="799" on="0"/>
        <pt x="363" y="799" on="0"/>
        <pt x="414" y="748" on="0"/>
        <pt x="414" y="676" on="0"/>
        <pt x="363" y="625" on="0"/>
        <pt x="291" y="625" on="0"/>
        <pt x="240" y="676" on="0"/>
        <pt x="240" y="748" on="0"/>
      </contour>
    </TTGlyph>
    <TTGlyph name="Ushortcyrillic" xMin="44" yMin="-6" xMax="548" yMax="795">
      <contour>
        <pt x="293" y="227" on="1"/>
        <pt x="476" y="609" on="1"/>
        <pt x="488" y="636" on="0"/>
        <pt x="514" y="636" on="1"/>
        <pt x="527" y="636" on="0"/>
        <pt x="548" y="618" on="0"/>
        <pt x="548" y="604" on="1"/>
        <pt x="548" y="600" on="0"/>
        <pt x="545" y="588" on="1"/>
        <pt x="277" y="46" on="1"/>
        <pt x="265" y="22" on="0"/>
        <pt x="208" y="-6" on="0"/>
        <pt x="174" y="-6" on="1"/>
        <pt x="109" y="-6" on="0"/>
        <pt x="64" y="61" on="0"/>
        <pt x="64" y="116" on="1"/>
        <pt x="64" y="161" on="0"/>
        <pt x="136" y="161" on="0"/>
        <pt x="136" y="118" on="1"/>
        <pt x="136" y="87" on="0"/>
        <pt x="152" y="66" on="0"/>
        <pt x="194" y="66" on="0"/>
        <pt x="207" y="88" on="1"/>
        <pt x="245" y="158" on="1"/>
        <pt x="48" y="587" on="1"/>
        <pt x="44" y="597" on="0"/>
        <pt x="44" y="604" on="1"/>
        <pt x="44" y="636" on="0"/>
        <pt x="78" y="636" on="1"/>
        <pt x="102" y="636" on="0"/>
        <pt x="116" y="608" on="1"/>
      </contour>
      <contour>
        <pt x="234" y="631" on="1"/>
        <pt x="176" y="631" on="0"/>
        <pt x="133" y="690" on="0"/>
        <pt x="133" y="758" on="1"/>
        <pt x="133" y="795" on="1"/>
        <pt x="205" y="795" on="1"/>
        <pt x="205" y="742" on="1"/>
        <pt x="205" y="717" on="0"/>
        <pt x="218" y="703" on="0"/>
        <pt x="242" y="703" on="1"/>
        <pt x="344" y="703" on="1"/>
        <pt x="367" y="703" on="0"/>
        <pt x="380" y="717" on="0"/>
        <pt x="380" y="742" on="1"/>
        <pt x="380" y="795" on="1"/>
        <pt x="452" y="795" on="1"/>
        <pt x="452" y="758" on="1"/>
        <pt x="452" y="690" on="0"/>
        <pt x="410" y="631" on="0"/>
        <pt x="351" y="631" on="1"/>
      </contour>
    </TTGlyph>
    <TTGlyph name="Utilde" xMin="77" yMin="-9" xMax="581" yMax="823">
      <contour>
        <pt x="282" y="744" on="1"/>
        <pt x="278" y="746" on="0"/>
        <pt x="274" y="746" on="0"/>
        <pt x="271" y="743" on="1"/>
        <pt x="242" y="717" on="1"/>
        <pt x="231" y="706" on="0"/>
        <pt x="214" y="706" on="1"/>
        <pt x="202" y="706" on="0"/>
        <pt x="179" y="725" on="0"/>
        <pt x="179" y="740" on="1"/>
        <pt x="179" y="759" on="0"/>
        <pt x="197" y="774" on="1"/>
        <pt x="242" y="812" on="1"/>
        <pt x="255" y="823" on="0"/>
        <pt x="268" y="823" on="1"/>
        <pt x="278" y="823" on="0"/>
        <pt x="291" y="818" on="1"/>
        <pt x="378" y="785" on="1"/>
        <pt x="382" y="783" on="0"/>
        <pt x="384" y="783" on="1"/>
        <pt x="385" y="783" on="0"/>
        <pt x="388" y="786" on="1"/>
        <pt x="418" y="812" on="1"/>
        <pt x="429" y="823" on="0"/>
        <pt x="446" y="823" on="1"/>
        <pt x="458" y="823" on="0"/>
        <pt x="480" y="804" on="0"/>
        <pt x="480" y="789" on="1"/>
        <pt x="480" y="768" on="0"/>
        <pt x="462" y="755" on="1"/>
        <pt x="418" y="717" on="1"/>
        <pt x="403" y="706" on="0"/>
        <pt x="381" y="706" on="0"/>
        <pt x="368" y="711" on="1"/>
      </contour>
      <contour>
        <pt x="509" y="603" on="1"/>
        <pt x="509" y="643" on="0"/>
        <pt x="546" y="643" on="1"/>
        <pt x="581" y="643" on="0"/>
        <pt x="581" y="602" on="1"/>
        <pt x="581" y="230" on="1"/>
        <pt x="581" y="119" on="0"/>
        <pt x="442" y="-9" on="0"/>
        <pt x="329" y="-9" on="1"/>
        <pt x="215" y="-9" on="0"/>
        <pt x="77" y="118" on="0"/>
        <pt x="77" y="230" on="1"/>
        <pt x="77" y="602" on="1"/>
        <pt x="77" y="643" on="0"/>
        <pt x="113" y="643" on="1"/>
        <pt x="127" y="643" on="0"/>
        <pt x="149" y="624" on="0"/>
        <pt x="149" y="603" on="1"/>
        <pt x="149" y="233" on="1"/>
        <pt x="149" y="151" on="0"/>
        <pt x="241" y="63" on="0"/>
        <pt x="417" y="63" on="0"/>
        <pt x="509" y="151" on="0"/>
        <pt x="509" y="233" on="1"/>
      </contour>
    </TTGlyph>
    <TTGlyph name="V" xMin="24" yMin="0" xMax="586" yMax="652">
      <contour>
        <pt x="513" y="624" on="1"/>
        <pt x="525" y="652" on="0"/>
        <pt x="550" y="652" on="1"/>
        <pt x="561" y="652" on="0"/>
        <pt x="586" y="636" on="0"/>
        <pt x="586" y="618" on="1"/>
        <pt x="586" y="608" on="0"/>
        <pt x="583" y="599" on="1"/>
        <pt x="346" y="0" on="1"/>
        <pt x="264" y="0" on="1"/>
        <pt x="27" y="599" on="1"/>
        <pt x="24" y="608" on="0"/>
        <pt x="24" y="618" on="1"/>
        <pt x="24" y="636" on="0"/>
        <pt x="49" y="652" on="0"/>
        <pt x="60" y="652" on="1"/>
        <pt x="86" y="652" on="0"/>
        <pt x="97" y="624" on="1"/>
        <pt x="306" y="104" on="1"/>
      </contour>
    </TTGlyph>
    <TTGlyph name="Vecyrillic" xMin="84" yMin="0" xMax="588" yMax="636">
      <component glyphName="B" x="0" y="0" flags="0x1004"/>
    </TTGlyph>
</ttFont>
